<?xml version="1.0" encoding="UTF-8" standalone="no"?>
<svg
   xmlns:dc="http://purl.org/dc/elements/1.1/"
   xmlns:cc="http://creativecommons.org/ns#"
   xmlns:rdf="http://www.w3.org/1999/02/22-rdf-syntax-ns#"
   xmlns:svg="http://www.w3.org/2000/svg"
   xmlns="http://www.w3.org/2000/svg"
   xmlns:sodipodi="http://sodipodi.sourceforge.net/DTD/sodipodi-0.dtd"
   xmlns:inkscape="http://www.inkscape.org/namespaces/inkscape"
   inkscape:version="1.0 (4035a4fb49, 2020-05-01)"
   sodipodi:docname="contact.svg"
   viewBox="0 0 666.66669 666.66669"
   height="666.66669"
   width="666.66669"
   xml:space="preserve"
   id="svg2"
   version="1.1"><metadata
     id="metadata8"><rdf:RDF><cc:Work
         rdf:about=""><dc:format>image/svg+xml</dc:format><dc:type
           rdf:resource="http://purl.org/dc/dcmitype/StillImage" /></cc:Work></rdf:RDF></metadata><defs
     id="defs6" /><sodipodi:namedview
     inkscape:current-layer="g12"
     inkscape:window-maximized="1"
     inkscape:window-y="-9"
     inkscape:window-x="69"
     inkscape:cy="535.75229"
     inkscape:cx="12.982256"
     inkscape:zoom="0.65999998"
     showgrid="false"
     inkscape:document-rotation="0"
     id="namedview4"
     inkscape:window-height="1051"
     inkscape:window-width="1842"
     inkscape:pageshadow="2"
     inkscape:pageopacity="0"
     guidetolerance="10"
     gridtolerance="10"
     objecttolerance="10"
     borderopacity="1"
     bordercolor="#666666"
     pagecolor="#ffffff" /><g
     transform="matrix(1.3333333,0,0,-1.3333333,0,666.66667)"
     inkscape:label="ink_ext_XXXXXX"
     inkscape:groupmode="layer"
     id="g10"><g
       transform="scale(0.1)"
       id="g12"><path
         id="path16"
         style="fill:#d1ebfa;fill-opacity:1;fill-rule:nonzero;stroke:none"
         d="m 1074.64,1157.38 c 0,0 -546.21,388.96 -703.452,1051.03 -157.247,662.07 82.753,1464.83 537.929,1870.35 455.173,405.51 1274.483,132.41 1638.623,-206.9 364.13,-339.31 364.13,-339.31 364.13,-339.31 0,0 347.59,-190.34 802.77,-173.79 455.17,16.55 860.68,-604.14 968.27,-1092.42 107.58,-488.27 -148.97,-1133.78 -148.97,-1133.78 l -3459.3,24.82" /><path
         id="path18"
         style="fill:#d1eaf9;fill-opacity:1;fill-rule:nonzero;stroke:none"
         d="m 764.289,1098.65 c -112.121,81.22 -343.676,287.43 -417.93,646.32 -30.816,148.94 -10.629,293.92 33.106,430.2 109.387,-419.86 373.148,-725.95 542.5,-887.45 H 764.289 v -189.07 m 3831.201,189.07 h -8.24 c 40.28,129.82 92.06,327 112.81,536.64 12.25,-109.27 2.02,-222.6 -33.71,-352.5 -19.88,-72.31 -44.51,-133.18 -70.86,-184.14 m -153.6,1555.07 c -180.79,287.76 -435.45,516.29 -709.4,516.29 -5.93,0 -11.91,-0.11 -17.85,-0.32 -18.98,-0.69 -37.73,-1.02 -56.31,-1.02 -427.21,0 -746.46,174.81 -746.46,174.81 0,0 0,0 -364.13,339.31 -19.74,18.39 -40.84,36.62 -63.12,54.52 204.07,105.56 445.88,331.39 798.09,331.39 48.07,0 98.18,-4.2 150.55,-13.5 513.09,-91.03 1009.65,-364.13 1034.48,-960 8.43,-202.46 -7.97,-338.04 -25.85,-441.48" /><path
         id="path20"
         style="fill:#b0d6f2;fill-opacity:1;fill-rule:nonzero;stroke:none"
         d="m 4587.25,1287.72 h -713.67 c 69.31,184.22 146.45,443.48 123.67,639.32 -39.46,339.3 -228.91,662.06 -615.71,910.34 -146.58,94.09 -377.04,163.22 -627.82,178.11 15.31,93.45 15.99,191.98 11.26,243.96 -8.27,91.03 -51.72,165.52 -51.72,165.52 0,0 -81.69,46.33 -186.11,46.33 -31.6,0 -65.29,-4.25 -99.41,-15.3 -146.9,-47.58 -198.62,-275.17 -182.07,-395.17 4.72,-34.2 13.26,-63.59 24.57,-89.41 C 2017.4,2905.65 1784.65,2766.1 1637.03,2522.9 1420.29,2165.81 1434.05,1790.57 1492.22,1525.25 V 1287.72 H 921.965 c -169.352,161.5 -433.113,467.59 -542.5,887.45 97.211,302.9 310.769,562.89 339.305,728.42 41.382,240 -49.653,537.93 331.04,769.65 380.68,231.73 1059.31,148.97 1315.86,206.9 38.52,8.7 77.97,25.04 118.95,46.24 22.28,-17.9 43.38,-36.13 63.12,-54.52 364.13,-339.31 364.13,-339.31 364.13,-339.31 0,0 319.25,-174.81 746.46,-174.81 18.58,0 37.33,0.33 56.31,1.02 5.94,0.21 11.92,0.32 17.85,0.32 273.95,0 528.61,-228.53 709.4,-516.29 -34.73,-200.98 -74.99,-280.6 50.67,-493.69 115.66,-196.11 188.54,-355.55 207.5,-524.74 -20.75,-209.64 -72.53,-406.82 -112.81,-536.64" /><path
         id="path22"
         style="fill:#95c3eb;fill-opacity:1;fill-rule:nonzero;stroke:none"
         d="m 3873.58,1287.72 h -694.86 c 11.56,41.6 39.36,194.48 39.36,194.48 0,0 -235.86,202.07 -248.27,235.18 -8.28,22.07 -4.14,431.03 -39.32,619.31 -35.17,188.28 -80.68,226.21 -175.85,273.1 -98.36,48.47 -244.15,93.8 -244.15,93.8 0,0 28.97,-66.9 55.86,-224.14 26.91,-157.25 51.73,-422.07 57.94,-604.14 5.63,-165.08 9.55,-522.34 10.24,-587.59 h -292.57 c 4.97,46.71 24.5,236.62 15.43,256.55 -3.99,8.8 -100.55,13.88 -217.58,16.82 v 746.63 c 0,0 -119.01,8.31 -248.52,8.31 -120.87,0 -250.89,-7.24 -301.83,-35.2 -105.51,-57.93 -97.24,-258.63 -97.24,-258.63 v -496.95 c -58.17,265.32 -71.93,640.56 144.81,997.65 147.62,243.2 380.37,382.75 633.21,448.52 1.13,-2.57 2.28,-5.11 3.46,-7.61 -8.3,-65.98 -24.63,-189.41 -32.17,-202.98 -10.34,-18.62 -10.34,-18.62 -10.34,-18.62 l -51.73,-35.18 c 0,0 99.31,-140.69 221.38,-163.44 16.58,-3.1 30.71,-4.43 42.76,-4.43 76.69,0 68.96,54.08 68.96,54.08 l -18.62,39.31 16.24,140.68 c 12.73,-1.97 25.67,-3.04 38.57,-3.04 53.62,0 106.64,18.32 141.74,65.12 31.96,42.61 51.73,109.96 63.23,180.18 250.78,-14.89 481.24,-84.02 627.82,-178.11 386.8,-248.28 576.25,-571.04 615.71,-910.34 22.78,-195.84 -54.36,-455.1 -123.67,-639.32" /><path
         id="path24"
         style="fill:#599fdc;fill-opacity:1;fill-rule:nonzero;stroke:none"
         d="m 4344.64,2336 h -446.22 c -27.6,0 -50,22.39 -50,50 v 222.76 c 0,27.61 22.4,50 50,50 h 446.22 c 27.61,0 50,-22.39 50,-50 V 2386 c 0,-27.61 -22.39,-50 -50,-50" /><path
         id="path26"
         style="fill:#599fdc;fill-opacity:1;fill-rule:nonzero;stroke:none"
         d="m 4121.53,2209.79 70.71,167.59 h -141.42 z" /><path
         id="path28"
         style="fill:#293d8a;fill-opacity:1;fill-rule:nonzero;stroke:none"
         d="m 4119.84,2552.8 h 127.73 v -18.69 l 62.62,36.11 -62.62,36.1 v -18.69 h -127.73 v -34.83" /><path
         id="path30"
         style="fill:#ffffff;fill-opacity:1;fill-rule:nonzero;stroke:none"
         d="m 4310.19,2479.35 h -127.73 v 18.69 l -62.62,-36.1 62.62,-36.1 v 18.69 h 127.73 v 34.82" /><path
         id="path32"
         style="fill:#293d8a;fill-opacity:1;fill-rule:nonzero;stroke:none"
         d="m 4041.44,2446.5 -6.08,-2.22 c 0,0 -18.95,21.64 -28.79,45.21 -9.84,23.56 -10.18,52.34 -10.18,52.34 l 4.45,1.86 -27.02,64.64 c -4.81,-3.76 -9.4,-8.6 -13.11,-14.87 -15.28,-25.83 -13.77,-65.47 1.61,-104.2 15.37,-38.72 31.81,-73.26 61.81,-94.98 17.7,-12.82 32.87,-15.06 44.65,-13.2 l -27.34,65.42" /><path
         id="path34"
         style="fill:#293d8a;fill-opacity:1;fill-rule:nonzero;stroke:none"
         d="m 4060.84,2454.11 -8.4,-3.05 27.64,-66.18 c 3.13,1.02 5.93,2.28 8.36,3.61 7.14,3.91 10.28,12.5 7.27,20.06 l -14.44,36.39 c -3.21,8.07 -12.26,12.15 -20.43,9.17" /><path
         id="path36"
         style="fill:#293d8a;fill-opacity:1;fill-rule:nonzero;stroke:none"
         d="m 3994.94,2619.66 c -3.4,-1.22 -7.1,-2.88 -10.82,-5.07 l 27.58,-66.02 9.28,3.88 c 8.06,3.36 11.96,12.54 8.78,20.67 l -14.5,37.22 c -3.14,8.08 -12.16,12.27 -20.32,9.32" /><path
         id="path38"
         style="fill:#3a76c4;fill-opacity:1;fill-rule:nonzero;stroke:none"
         d="m 1492.22,1277.38 v 744.82 c 0,0 -8.27,200.7 97.24,258.63 105.52,57.93 550.35,26.89 550.35,26.89 V 1277.38 h -647.59" /><path
         id="path40"
         style="fill:#f57c83;fill-opacity:1;fill-rule:nonzero;stroke:none"
         d="m 2278.77,3004.97 c 0,0 -26.89,-225.52 -37.24,-244.14 -10.34,-18.62 -10.34,-18.62 -10.34,-18.62 l -51.73,-35.18 c 0,0 99.31,-140.69 221.38,-163.44 122.07,-22.76 111.72,49.65 111.72,49.65 l -18.62,39.31 24.84,215.18 c 0,0 -221.39,101.37 -240.01,157.24" /><path
         id="path42"
         style="fill:#ffffff;fill-opacity:1;fill-rule:nonzero;stroke:none"
         d="m 2115.32,2688.41 80.69,35.18 c 0,0 51.73,-84.83 171.73,-134.49 120,-49.65 122.07,-20.69 128.27,0 6.21,20.69 -2.07,43.45 -2.07,43.45 l 8.88,72.44 47.99,-15.99 166.58,-1347.48 -428.27,-20.69 -173.8,1367.58" /><path
         id="path44"
         style="fill:#293d8a;fill-opacity:1;fill-rule:nonzero;stroke:none"
         d="m 2510.49,2703.59 c 0,0 28.97,-66.9 55.86,-224.14 26.91,-157.25 51.73,-422.07 57.94,-604.14 6.2,-182.07 10.35,-597.93 10.35,-597.93 0,0 533.78,0 540,0 6.2,0 43.44,204.82 43.44,204.82 0,0 -235.86,202.07 -248.27,235.18 -8.28,22.07 -4.14,431.03 -39.32,619.31 -35.17,188.28 -80.68,226.21 -175.85,273.1 -98.36,48.47 -244.15,93.8 -244.15,93.8" /><path
         id="path46"
         style="fill:#788cbd;fill-opacity:1;fill-rule:nonzero;stroke:none"
         d="m 2791.87,1514.45 c -2.76,0 -5,2.24 -5,5 0,14.79 -2.63,224.96 -5.16,428.21 -2.55,203.28 -5.18,413.48 -5.18,428.34 0,2.77 2.24,5 5,5 2.76,0 5,-2.23 5,-5 0,-14.79 2.63,-224.96 5.17,-428.21 2.54,-203.28 5.17,-413.48 5.17,-428.34 0,-2.76 -2.23,-5 -5,-5" /><path
         id="path48"
         style="fill:#293d8a;fill-opacity:1;fill-rule:nonzero;stroke:none"
         d="m 1716.01,1564.97 -4.13,-287.59 h 628.96 c 0,0 26.9,244.14 16.55,266.89 -10.34,22.77 -641.38,20.7 -641.38,20.7" /><path
         id="path50"
         style="fill:#945168;fill-opacity:1;fill-rule:nonzero;stroke:none"
         d="m 2504.01,2719.77 c -27.31,10.02 -62.37,26.6 -88,47.26 -44.9,36.2 -73.66,79.32 -92.3,121.62 20.75,-23.59 43.71,-44 66.78,-63.68 29.22,-24.92 73.06,-44.49 119.69,-51.74 l -6.17,-53.46" /><path
         id="path52"
         style="fill:#f57c83;fill-opacity:1;fill-rule:nonzero;stroke:none"
         d="m 2713.26,3424.97 c 0,0 43.45,-74.49 51.72,-165.52 8.28,-91.04 0,-324.83 -74.49,-424.14 -74.48,-99.31 -229.65,-70.34 -300,-10.34 -64.55,55.06 -128.27,115.86 -144.82,235.86 -16.55,120 35.17,347.59 182.07,395.17 146.89,47.59 285.52,-31.03 285.52,-31.03" /><path
         id="path54"
         style="fill:#f57c83;fill-opacity:1;fill-rule:nonzero;stroke:none"
         d="m 2899.9,1407.45 c 0,0 -7.3,0 -18.4,0.3 -2.6,0.1 -5.5,0 -8.51,0.1 -10.69,0.3 -23.69,0.59 -36.79,0.99 -2.9,0.11 -5.9,0.21 -8.8,0.31 -13,0.3 -24.1,-1.3 -34.5,-0.71 h -0.3 c -2.2,0.11 -5.4,-0.19 -8,-0.29 -1.3,-0.11 -2.5,-0.2 -3.3,-0.11 -6,1.11 -7.2,2.5 -13.7,5.4 -8.4,3.81 -122.11,29.2 -214.61,28.61 -92.39,-0.4 -175.29,-6.7 -188.79,4.6 -13.6,11.5 -21.8,127.59 57.1,135.2 l 97,-36.8 c 0,0 221.5,26.29 302.7,-33.6 81.4,-59.9 78.9,-104 78.9,-104" /><path
         id="path56"
         style="fill:#293d8a;fill-opacity:1;fill-rule:nonzero;stroke:none"
         d="m 2792.6,1408.44 c -2.2,0.11 -5.4,-0.19 -8,-0.29 -2,3.19 -6.21,9 -8.5,11.4 -25,25.5 -85.4,42 -107.3,47.3 -2,0.5 -3.31,2.5 -2.8,4.49 0.4,2.01 2.5,3.21 4.6,2.81 31.9,-7.7 99.6,-27.41 118.8,-59.7 0.6,-0.9 2.2,-4 3.2,-6.01" /><path
         id="path58"
         style="fill:#293d8a;fill-opacity:1;fill-rule:nonzero;stroke:none"
         d="m 2836.23,1408.85 c -2.9,0.07 -5.9,0.15 -8.8,0.32 -27.3,49.78 -71.96,64.07 -127.15,81.82 l -3.27,1.09 c -1.89,0.64 -3.04,2.77 -2.38,4.75 0.64,1.89 2.67,3.04 4.75,2.39 l 3.17,-1.08 c 58.36,-18.73 105.32,-33.78 133.68,-89.29" /><path
         id="path60"
         style="fill:#293d8a;fill-opacity:1;fill-rule:nonzero;stroke:none"
         d="m 2881.51,1407.75 c -2.6,0.07 -5.5,0.04 -8.51,0.11 -16.55,34.81 -71.34,93.06 -143.83,106.64 -2.09,0.35 -3.45,2.28 -3.1,4.37 0.45,2 2.38,3.34 4.38,2.99 74.67,-14.02 134.91,-75.01 151.06,-114.11" /><path
         id="path62"
         style="fill:#293d8a;fill-opacity:1;fill-rule:nonzero;stroke:none"
         d="m 2295.32,3163.24 c 0,0 45.52,21.73 77.59,82.76 32.07,61.03 27.93,115.86 27.93,115.86 0,0 57.93,9.31 144.83,-16.55 86.89,-25.86 190.34,-61.04 277.24,-11.38 86.9,49.66 86.9,129.31 44.48,162.41 -47.5,37.08 -141.72,14.49 -141.72,14.49 0,0 36.2,35.17 16.55,55.86 -19.66,20.69 -91.03,-6.21 -91.03,-6.21 0,0 -86.9,69.31 -251.38,61.04 -164.49,-8.28 -243.11,-123.11 -252.42,-251.38 -9.31,-128.28 37.25,-256.55 37.25,-256.55 l 110.68,49.65" /><path
         id="path64"
         style="fill:#945168;fill-opacity:1;fill-rule:nonzero;stroke:none"
         d="m 2632.2,2952.22 c -1.9,0 -3.89,0.05 -6,0.14 -12.18,0.47 -27.49,2.48 -37.94,9.02 -3.09,1.94 -1.92,6.99 1.87,6.99 0.01,0 0.01,0 0.02,0 6.5,-0.03 12.85,-1.99 19.34,-2.48 6.03,-0.44 12.13,-0.7 18.17,-0.98 3.51,-0.16 7.67,-0.48 11.91,-0.48 6.35,0 12.84,0.72 17.46,3.78 20.2,13.37 -19.07,29.87 -27.38,35.99 -17.38,12.81 -13.89,34.93 -12.07,53.9 2.35,24.39 2.12,51.07 11.44,74.05 0.67,1.64 2.39,2.51 3.98,2.51 1.8,0 3.45,-1.11 3.24,-3.49 -2.63,-29.28 -9.4,-58.18 -11.24,-87.6 -0.78,-12.24 -1.68,-25.44 9.27,-33.28 7.9,-5.66 17.5,-8.36 25.33,-14.16 6.79,-5.04 13.56,-13.13 12.35,-22.15 -1.06,-8.02 -7.6,-12.75 -14.35,-16.1 -9.06,-4.5 -16.28,-5.66 -25.4,-5.66" /><path
         id="path66"
         style="fill:#293d8a;fill-opacity:1;fill-rule:nonzero;stroke:none"
         d="m 2713.59,3063.35 c -3.09,-17.44 -15.77,-29.77 -28.34,-27.55 -12.56,2.22 -20.24,18.17 -17.16,35.6 3.09,17.44 15.77,29.78 28.34,27.56 12.56,-2.22 20.25,-18.17 17.16,-35.61" /><path
         id="path68"
         style="fill:#293d8a;fill-opacity:1;fill-rule:nonzero;stroke:none"
         d="m 2555.28,3077.17 c -2.8,-18.82 -16.05,-32.43 -29.61,-30.42 -13.56,2.02 -22.28,18.91 -19.48,37.72 2.8,18.82 16.06,32.44 29.62,30.42 13.55,-2.02 22.27,-18.91 19.47,-37.72" /><path
         id="path70"
         style="fill:#293d8a;fill-opacity:1;fill-rule:nonzero;stroke:none"
         d="m 2676.73,3135.24 c 9.67,-1.63 19.43,0.04 29.18,-0.65 2.35,-0.16 4.66,-0.51 7.01,-0.74 1.66,-0.15 -3.11,0.5 -0.79,0.12 l 1.49,-0.25 c 1.22,-0.22 2.44,-0.47 3.64,-0.76 2.08,-0.51 4.09,-1.29 6.17,-1.75 1.89,-0.41 3.99,-0.85 5.89,-0.76 1.07,0.14 2.12,0.28 3.19,0.43 l -2.01,-0.37 3.96,0.43 c 5.55,1.3 8.97,7.72 7.42,13.08 -0.45,1.54 -1.13,2.94 -2.11,4.21 l -1.27,1.61 1.17,-1.34 -1.28,1.7 c -0.55,0.92 -1.28,1.66 -2.21,2.21 l -2.34,1.78 c -2.56,1.78 -5.93,2.82 -8.97,3.6 -5.77,1.49 -11.83,2.25 -17.77,2.28 -5.92,0.03 -11.76,-0.59 -17.61,-1.4 -5.16,-0.71 -10.9,-2.47 -15.09,-5.58 -3.23,-2.41 -5.22,-5.5 -4.66,-9.73 0.47,-3.5 3.23,-7.48 6.99,-8.12" /><path
         id="path72"
         style="fill:#293d8a;fill-opacity:1;fill-rule:nonzero;stroke:none"
         d="m 2566.38,3162.92 c -1.31,0.78 -2.65,1.46 -4.04,2.09 -1.17,0.53 -4.37,2.21 -1.95,0.89 l -2.66,1.42 c -4.01,2.02 -8.17,3.37 -12.5,4.47 -9.44,2.41 -19.38,3.02 -29.06,2 -10.33,-1.09 -19.76,-3.59 -28.71,-8.98 -1.26,-0.77 -2.56,-1.51 -3.61,-2.56 -0.71,-0.9 -1.41,-1.81 -2.09,-2.73 l 0.59,0.9 c -2.76,-1.93 -4.37,-5.09 -4.34,-8.43 0.02,-3.21 1.69,-5.89 4.48,-7.44 3.37,-1.88 6.57,-0.98 10.05,-0.09 -1.75,0 -3.5,0 -5.24,0 2.87,-0.44 4.89,-0.56 7.79,0.08 0.11,0.02 2.79,0.69 1.02,0.32 -1.66,-0.36 2.82,0.34 3.31,0.41 0.57,0.08 3.68,0.39 0.39,0.07 l 1.82,0.21 c 1.55,0.19 3.12,0.39 4.68,0.51 6.83,0.55 13.64,0.86 20.48,1.08 6.35,0.21 12.82,0.26 19.16,-0.01 2.73,-0.12 5.43,-0.21 8.16,-0.29 1.52,-0.04 0.88,-0.28 -0.17,0.05 l 1.7,-0.44 c 1.13,-0.31 2.24,-0.68 3.33,-1.1 4.42,-1.68 9.71,1.51 11.34,5.57 1.78,4.42 0.27,9.5 -3.93,12" /><path
         id="path74"
         style="fill:#293d8a;fill-opacity:1;fill-rule:nonzero;stroke:none"
         d="m 2615.5,2875.31 c 9.5,19.09 26.77,33.08 46.74,42.08 -17.33,1.76 -99.18,9.34 -119.83,-2.39 -23.14,-13.13 4.28,-65.88 52.12,-68.53 5.03,-0.28 9.6,0.13 13.95,0.81 0.39,9.63 2.61,19.16 7.02,28.03" /><path
         id="path76"
         style="fill:#d6dceb;fill-opacity:1;fill-rule:nonzero;stroke:none"
         d="m 2237.39,2986.34 c 0,0 8.28,-32.07 55.86,-69.31 47.59,-37.24 116.56,-64.48 116.56,-64.48 l 5.51,24.14 c 0,0 -71.38,31.04 -104.48,65.17 -33.1,34.14 -37.24,52.76 -37.24,52.76 l -36.21,-8.28" /><path
         id="path78"
         style="fill:#293d8a;fill-opacity:1;fill-rule:nonzero;stroke:none"
         d="m 2423.6,2894.55 c 38.3,1.78 59.67,-28.5 62.34,-48.09 2.67,-19.6 -15.73,-41.57 -58.78,-22.27 -53.47,23.97 -41.85,68.58 -3.56,70.36" /><path
         id="path80"
         style="fill:#d6dceb;fill-opacity:1;fill-rule:nonzero;stroke:none"
         d="m 2267.39,3223.24 c 0,0 16.54,118.9 96.21,199.66 152.07,154.13 281.38,144.83 281.38,144.83 0,0 -1.04,21.72 -49.66,38.27 -45.65,15.54 -66.2,7.24 -66.2,7.24 0,0 -125.18,-10.34 -230.69,-127.24 -105.52,-116.9 -116.9,-265.86 -116.9,-265.86 l 85.86,3.1" /><path
         id="path82"
         style="fill:#ffffff;fill-opacity:1;fill-rule:nonzero;stroke:none"
         d="m 2256.01,3237.73 c -99.62,16.88 -155.17,-61.04 -159.31,-139.66 -4.14,-78.62 52.99,-138.39 129.31,-132.41 171.73,13.44 152.07,251.37 30,272.07" /><path
         id="path84"
         style="fill:#7588bb;fill-opacity:1;fill-rule:nonzero;stroke:none"
         d="m 2206.41,3042.06 c -26.3,0 -48.53,13.22 -61.23,36.49 -13.61,24.93 -12.47,55.62 2.91,78.19 1.17,1.69 3.49,2.14 5.21,0.98 1.71,-1.17 2.16,-3.5 0.99,-5.21 -13.81,-20.26 -14.8,-47.88 -2.53,-70.36 11.65,-21.34 32.21,-33.43 56.56,-32.56 22.76,0.61 42.05,11.02 54.32,29.32 14,20.89 17.22,49.73 8.2,73.47 -8.95,23.56 -33.49,39.62 -55.8,36.7 -2.02,-0.26 -3.94,1.17 -4.21,3.23 -0.28,2.05 1.16,3.93 3.22,4.21 26.1,3.48 53.51,-14.36 63.8,-41.47 9.86,-25.95 6.33,-57.47 -8.98,-80.31 -13.66,-20.38 -35.09,-31.97 -60.35,-32.65 l -2.11,-0.03" /><path
         id="path86"
         style="fill:#293d8a;fill-opacity:1;fill-rule:nonzero;stroke:none"
         d="m 2133.94,2717.38 c 0,0 -302.06,-74.48 -407.58,-194.48 -105.52,-120 -155.17,-711.73 -157.24,-821.38 -2.07,-109.66 74.48,-155.18 120,-186.21 45.52,-31.04 246.2,-86.9 407.58,-95.18 161.38,-8.27 314.49,0 314.49,0 0,0 -0.52,35.18 24.3,86.91 23.03,47.97 52.25,57.93 52.25,57.93 l -138.62,49.65 c 0,0 -24.27,434.94 -62.07,645.51 -43.45,242.08 -153.11,457.25 -153.11,457.25" /><path
         id="path88"
         style="fill:#788cbd;fill-opacity:1;fill-rule:nonzero;stroke:none"
         d="m 2634.64,1684.11 -2.03,0.43 c -2.53,1.12 -3.67,4.07 -2.55,6.59 28.31,63.86 57.63,189.22 74.15,277.17 l 1.35,7.11 c 5,25.87 11.22,58.04 -1.19,80.25 -6.33,11.33 -20.62,35.91 -34.37,59.54 -14.27,24.53 -27.75,47.71 -31.49,54.62 -7.28,13.51 15.66,49.59 48.87,99.08 8.96,13.38 16.72,24.93 21.24,32.75 11.84,20.48 3.95,39.24 -5.17,60.96 l -3.1,7.48 c -8.27,20.31 -17.68,40.65 -26.76,60.32 -3.71,8.03 -7.43,16.08 -11.09,24.17 -4.86,10.69 -9.73,21.57 -14.67,32.57 -29.24,65.18 -59.47,132.57 -98.19,197.68 -1.41,2.37 -0.63,5.44 1.74,6.85 2.38,1.4 5.44,0.63 6.86,-1.75 39,-65.59 69.35,-133.25 98.71,-198.68 4.93,-11 9.8,-21.86 14.65,-32.55 3.66,-8.06 7.36,-16.09 11.06,-24.1 9.14,-19.77 18.59,-40.22 26.95,-60.74 l 3.06,-7.38 c 9.31,-22.15 18.93,-45.06 4.6,-69.83 -4.69,-8.12 -12.52,-19.8 -21.59,-33.31 -17.31,-25.81 -53.35,-79.53 -48.37,-88.76 3.66,-6.78 17.1,-29.89 31.33,-54.35 13.78,-23.69 28.11,-48.33 34.46,-59.69 14.2,-25.4 7.59,-59.57 2.29,-87.03 l -1.36,-7.05 c -6.02,-32.03 -37.88,-196.02 -74.82,-279.37 -0.83,-1.88 -2.66,-2.98 -4.57,-2.98" /><path
         id="path90"
         style="fill:#788cbd;fill-opacity:1;fill-rule:nonzero;stroke:none"
         d="m 2339.81,1666.52 c -1.29,0 -2.58,0.49 -3.55,1.47 -23.51,23.7 -136.89,220.01 -145.33,256.93 -4.62,20.21 6.98,71.47 18.2,121.05 8.69,38.41 17.68,78.13 15.12,88.88 -3.82,16.07 -32.81,39.76 -60.85,62.66 -33.87,27.66 -68.89,56.28 -75.67,82.05 -7.71,29.29 -1.12,212.66 3.24,333.99 1.57,43.63 2.81,78.09 2.8,90.38 0,2.76 2.24,5 5,5 v 0 c 2.76,0 5,-2.23 5,-4.99 0.01,-12.48 -1.23,-47.02 -2.81,-90.75 -4.07,-113.41 -10.89,-303.21 -3.56,-331.09 5.96,-22.62 41.22,-51.43 72.33,-76.85 30.68,-25.06 59.65,-48.73 64.25,-68.09 3.09,-13 -5.34,-50.26 -15.1,-93.39 -10.46,-46.23 -22.31,-98.62 -18.2,-116.62 8.28,-36.2 119.59,-228.84 142.68,-252.1 1.94,-1.97 1.93,-5.13 -0.03,-7.07 -0.98,-0.97 -2.25,-1.46 -3.52,-1.46" /><path
         id="path92"
         style="fill:#788cbd;fill-opacity:1;fill-rule:nonzero;stroke:none"
         d="m 1933.26,1752.38 -0.7,0.05 c -2.74,0.39 -4.64,2.92 -4.26,5.65 3.67,26.01 61.07,544.01 63.7,583.68 0.19,2.77 2.57,4.93 5.33,4.66 2.75,-0.18 4.83,-2.57 4.65,-5.32 -2.64,-39.74 -60.1,-558.38 -63.78,-584.42 -0.35,-2.49 -2.49,-4.3 -4.94,-4.3" /><path
         id="path94"
         style="fill:#788cbd;fill-opacity:1;fill-rule:nonzero;stroke:none"
         d="m 2344.98,1611.7 -1.88,0.36 c -12.72,5.15 -68.91,24.11 -140.05,48.09 -143.58,48.43 -340.23,114.74 -377.62,134.17 -2.45,1.27 -3.4,4.29 -2.13,6.74 1.27,2.46 4.27,3.44 6.74,2.13 36.71,-19.07 241.02,-87.97 376.21,-133.55 71.3,-24.06 127.61,-43.04 140.61,-48.31 2.56,-1.04 3.79,-3.95 2.75,-6.51 -0.79,-1.94 -2.66,-3.12 -4.63,-3.12" /><path
         id="path96"
         style="fill:#788cbd;fill-opacity:1;fill-rule:nonzero;stroke:none"
         d="m 2275.93,1405.44 c -126.36,0 -371.34,22.78 -557.44,88.6 -2.61,0.93 -3.97,3.78 -3.05,6.39 0.91,2.59 3.8,3.96 6.38,3.04 235.1,-83.16 563.98,-97.36 625.17,-83.62 2.69,0.58 5.36,-1.1 5.97,-3.79 0.61,-2.69 -1.09,-5.37 -3.78,-5.98 -13.25,-2.96 -38.86,-4.64 -73.25,-4.64" /><path
         id="path98"
         style="fill:#60a6df;fill-opacity:1;fill-rule:nonzero;stroke:none"
         d="m 829.598,2647.61 c 39.23,-34.5 88.914,-56.62 123.34,-96.52 13.542,-15.7 25.71,-32.41 38.289,-48.87 9.153,-11.98 33.583,-31.85 37.543,-46.91 1.75,-6.63 1.38,2.35 -0.38,9 l -0.29,0.83 c -3.44,30.49 -5.9,61.1 -6.97,91.77 -1.07,30.59 0.84,61.3 -1.08,91.84 -2.7,43.09 -16.15,84.81 -51.37,111.8 -17.215,13.2 -39.336,21.23 -55.164,35.87 -15.02,13.9 -8.993,29.82 -0.161,45.32 8.262,14.51 18.282,28.76 21.5,45.46 3.661,18.98 -3.472,38.56 -13.101,54.72 -20.484,34.4 -65.926,72.75 -108.953,67.61 -35.891,-4.29 -39.957,-45.69 -39.446,-74.53 0.5,-28.04 3.274,-55.99 3.54,-84.05 0.281,-28.82 -4.622,-57.1 -5.032,-85.79 -0.695,-48.81 21.856,-86 57.735,-117.55" /><path
         id="path100"
         style="fill:#60a6df;fill-opacity:1;fill-rule:nonzero;stroke:none"
         d="m 1194.09,2199.79 c 10.92,26.05 23.45,50.4 38.86,74.09 21.14,32.5 44.59,64.17 58.78,100.57 14.5,37.16 12.37,76.9 13.8,116.04 1.04,28.75 9.59,57.43 7.28,86.26 -1.1,13.83 -9.07,36.2 -26.96,33.91 -13.92,-1.78 -22.19,-19.04 -27.54,-30.05 -9.34,-19.22 -15.81,-39.72 -22.75,-59.88 -2.7,-7.89 -5.29,-15.92 -8.71,-23.53 -1.99,-4.43 -8.32,-15.23 -14.29,-13.76 -10.17,2.51 -0.94,44.02 0.57,51.37 7.59,36.92 19.02,71.23 20.61,109.22 2.3,55.08 -1.98,120.65 -55.85,150.77 -14.09,7.87 -31.93,12.56 -45.31,0.78 -13.2,-11.61 -16.93,-31.75 -18.89,-48.32 -6.01,-50.87 5.96,-99.04 22.26,-146.9 13.46,-39.52 29.5,-80.3 30.67,-122.56 1.13,-40.68 -20.04,-76.73 -29.97,-115.16 -15.83,-61.24 -12.56,-93.71 -12.63,-113.54 -0.11,-24.85 0.8,-49.43 2.61,-74.2 1.68,-22.77 3.65,-45.55 6.43,-68.21 0.57,-4.59 1.09,-9.38 1.7,-14.17 -8.75,21.07 -11.81,45.2 -19.06,66.37 -12.87,37.64 -27.83,74.5 -40.19,112.32 -10.21,31.25 -19.85,62.71 -33.34,92.75 -12.64,28.19 -27.91,57.98 -51.498,78.66 -14.258,12.5 -31.543,19.81 -50.613,19.66 -12.196,-0.09 -23.157,-4.31 -34.805,-7.39 -14.336,-3.79 -25.613,-2.48 -37.406,6.58 -38.61,29.68 -50.352,82.89 -78.934,120.47 -21.32,28.03 -71.902,75.81 -109.098,45.24 -19.73,-16.21 -25.171,-47.54 -24.136,-71.56 1.3,-30.13 14.468,-57.69 30.152,-82.89 16.68,-26.79 38.211,-50.78 53.539,-78.33 9.063,-16.27 10.481,-31.86 9.039,-50.22 -1.351,-17.29 -2.863,-34.04 3.031,-50.72 17.7,-50.09 72.969,-43.1 115.954,-44.41 30.078,-0.91 62.347,-5.39 90.902,-15.01 33.004,-11.11 54.473,-32.59 66.273,-65.23 8.53,-23.63 13.1,-50.45 29.18,-70.52 7.56,-9.44 17.57,-16.41 28.58,-21.28 16.76,-7.4 67.87,-10.64 68.25,-5.97 1.26,15.63 8.67,32.12 13.31,46.95 8.7,27.81 18.93,54.94 30.2,81.8" /><path
         id="path102"
         style="fill:#60a6df;fill-opacity:1;fill-rule:nonzero;stroke:none"
         d="m 1431.4,2209.23 c -4.45,28.64 -3.6,60.2 -17.16,86.5 -0.97,1.88 -3.53,2.36 -5.28,1.39 -9.72,-5.39 -10.12,-21.09 -10.92,-30.71 -1.31,-15.96 -0.33,-31.96 -2.3,-47.88 -3.44,-27.96 -9.9,-56.78 -19.98,-83.13 -11.39,-29.82 -32.12,-46.72 -62.22,-56.03 -19.34,-5.97 -38.31,-11.18 -54.45,-24.01 -14.46,-11.5 -24.5,-27.35 -31.95,-44.04 -20.09,-45.07 -29.66,-95.45 -38.98,-143.6 -6.27,-32.42 -11.39,-64.99 -19.26,-97.09 -7.87,-32.07 -16.32,-63.98 -20.83,-96.75 -0.76,-1.65 -1.57,-3.29 -2.27,-4.96 -2.06,-4.9 5.6,-7.55 8.24,-3.47 31.08,47.83 68.93,90.76 120.57,117.1 23.32,11.89 54.3,14.36 73.75,33.05 14.8,14.22 16.83,35.92 14.62,55.26 -2.91,25.41 -15.08,46.32 -27.77,67.97 -6.96,11.9 -15.19,24.64 -12.38,39.1 2.65,13.64 13.99,23.66 25.24,30.65 21.47,13.33 46.57,19.33 64.15,38.54 16.33,17.84 25.38,40.04 27.19,64.08 2.41,32.04 -3.11,66.39 -8.01,98.03" /><path
         id="path104"
         style="fill:#60a6df;fill-opacity:1;fill-rule:nonzero;stroke:none"
         d="m 1007.74,2044.1 c -27.416,35.32 -60.513,65.78 -97.744,90.51 -19.867,13.19 -66.738,39.22 -76.195,0.3 -5.547,-22.81 16.777,-45.25 31.469,-59.55 22.082,-21.49 47.621,-40.03 66.25,-64.8 -23.067,-7.35 -47.168,-8.79 -67.211,-24.73 -23.727,-18.89 -34.371,-55.35 -10.844,-78.48 11.465,-11.27 26.668,-18.19 40.945,-25.11 18.559,-8.98 37.461,-17.13 56.485,-25.08 41.078,-17.15 82.675,-34.56 117.705,-62.67 35.7,-28.64 69.27,-77.07 72.1,-123.8 0.28,-4.46 -1.42,-0.4 1.24,1.64 1.46,-1.31 6.36,1.04 6.33,3.64 -0.73,69.35 -13.19,135.37 -41.53,198.89 -26.26,58.89 -59.4,118.22 -99,169.24" /><path
         id="path106"
         style="fill:#3e579e;fill-opacity:1;fill-rule:nonzero;stroke:none"
         d="m 913.039,2689.64 c 15.125,-31.4 30.941,-62.07 47.734,-92.68 16.161,-29.47 32.309,-58.72 44.397,-90.16 14.89,-38.71 30.5,-76.84 46.24,-115.21 16.36,-39.88 30.98,-80.52 42.71,-122 22.9,-80.99 39.91,-164.35 48.32,-248.11 4.28,-42.6 6.22,-85.45 5.05,-128.24 -0.92,-33.45 -4.69,-66.53 -7.83,-99.81 -3.27,-34.61 -5.63,-69.64 -2.73,-104.38 2.42,-29.04 7.04,-63.56 29.58,-84.28 4.4,-4.06 10.65,1 8.09,6.24 -26.78,54.92 -25.28,114.8 -20.16,174.35 2.83,32.88 6.75,65.58 7.86,98.58 1.41,41.99 -0.24,84.06 -4.19,125.88 -7.77,82.21 -24.16,163.44 -45.42,243.16 -10.91,40.87 -24.4,80.95 -39.94,120.31 -15.59,39.43 -33.58,77.78 -48.68,117.41 -27.3,71.67 -68.918,135.22 -105.773,202.01 -1.914,3.47 -6.942,0.42 -5.258,-3.07" /><path
         id="path108"
         style="fill:#3e579e;fill-opacity:1;fill-rule:nonzero;stroke:none"
         d="m 1143.67,2103.59 c 4.33,52.19 8.95,102.45 26.55,152.24 8.2,23.22 18.15,45.8 26.07,69.11 6.54,19.27 16.33,45.69 11.29,66.17 -0.56,2.29 -3.89,2.17 -4.52,0 -3.37,-11.7 -3,-24.53 -5.42,-36.52 -2.37,-11.67 -5.52,-23.15 -9.15,-34.49 -7.72,-24.12 -17.81,-47.23 -26.55,-70.97 -16.88,-45.86 -25.55,-96.66 -21.86,-145.54 0.17,-2.31 3.4,-2.31 3.59,0" /><path
         id="path110"
         style="fill:#3e579e;fill-opacity:1;fill-rule:nonzero;stroke:none"
         d="m 841.23,2403.53 c 20.719,-50.05 82.997,-52.94 128.356,-64.15 32.394,-8 56.304,-29.61 73.474,-57.66 18.8,-30.69 31.51,-66.72 41.96,-100.97 l 0.61,0.16 c -12.69,59.99 -30.87,132.22 -92.708,160.13 -49.555,22.37 -114.856,11.13 -146.551,64.66 -1.558,2.63 -6.394,0.86 -5.141,-2.17" /><path
         id="path112"
         style="fill:#3e579e;fill-opacity:1;fill-rule:nonzero;stroke:none"
         d="m 1110.92,2111.51 c 2.47,-3.33 4.73,-6.81 7.27,-10.07 1.26,-1.62 2.54,-3.14 4.13,-4.44 1.63,-1.33 3.53,-2.98 5.76,-2.94 0.93,0.02 1.58,1.05 1.08,1.88 -1.02,1.67 -2.87,2.68 -4.31,3.95 -1.49,1.31 -3,2.6 -4.44,3.95 -2.9,2.74 -5.55,5.72 -8.38,8.52 l -1.11,-0.85" /><path
         id="path114"
         style="fill:#3e579e;fill-opacity:1;fill-rule:nonzero;stroke:none"
         d="m 981.371,1952.74 c 35.739,-29.33 68.709,-64.04 94.899,-102.07 12.52,-18.18 24.08,-37.42 34.56,-56.84 11.45,-21.22 18.96,-43.64 27.93,-65.89 0.68,-1.69 3.77,-1.73 3.53,0.47 -4.96,47.07 -34.77,87.42 -58.65,126.58 -12.4,20.34 -27.82,36.74 -44.4,53.7 -17.12,17.52 -34.57,34.09 -54.642,48.22 -2.442,1.72 -5.559,-2.25 -3.227,-4.17" /><path
         id="path116"
         style="fill:#3e579e;fill-opacity:1;fill-rule:nonzero;stroke:none"
         d="m 1265.93,2008.15 c -17.21,-9.75 -17.77,-36.94 -18.11,-54.3 -0.65,-33.35 7.61,-64.67 -7.03,-96.45 -13.22,-28.71 -34.34,-52.68 -50.94,-79.34 -15.55,-24.95 -30.88,-56.85 -30.54,-86.89 0.02,-1.73 2.68,-2.72 3.49,-0.95 6.26,13.64 8.51,29.13 13,43.42 5.04,16.07 12.08,30.66 21.2,44.79 15.98,24.76 35.59,47.3 48.56,73.93 13.66,28.07 11.66,55.87 10.75,86.28 -0.57,19.39 -2.51,50.55 13.12,64.97 2.46,2.26 -0.68,6.13 -3.5,4.54" /><path
         id="path118"
         style="fill:#ffffff;fill-opacity:1;fill-rule:nonzero;stroke:none"
         d="m 1150.85,1688.07 c -69.33,0.96 -201.389,1.72 -201.389,1.72 l 32.68,-242.62 c 7.347,-54.58 53.939,-95.31 109.009,-95.31 h 56.94 5.51 56.93 c 55.08,0 101.67,40.73 109.02,95.31 l 32.68,242.62 c 0,0 -132.06,-0.76 -201.38,-1.72" /><path
         id="path120"
         style="fill:#f5f6f9;fill-opacity:1;fill-rule:nonzero;stroke:none"
         d="m 4501.88,2133.93 -395.53,-783.44 -1153.09,-8.29 355.86,802.77 1192.76,-11.04" /><path
         id="path122"
         style="fill:#d1d8e8;fill-opacity:1;fill-rule:nonzero;stroke:none"
         d="m 2187.96,1347.09 0.22,62.7 h 746.46 l 343.44,753.11 h 1193.79 l 30.01,-28.97 H 3335.67 l -356.9,-786.21 c 0,0 -790.81,1.43 -790.81,-0.63" /><path
         id="path124"
         style="fill:#d1d8e8;fill-opacity:1;fill-rule:nonzero;stroke:none"
         d="m 3903.1,1701.61 c -13.03,-39.08 -83.73,-69.26 -157.92,-67.4 -74.19,1.85 -123.77,35.03 -110.75,74.12 13.03,39.07 83.73,69.25 157.92,67.39 74.19,-1.86 123.78,-35.04 110.75,-74.11" /><path
         id="path126"
         style="fill:#ffffff;fill-opacity:1;fill-rule:nonzero;stroke:none"
         d="m 2978.78,1342.72 -2.07,0.45 c -2.51,1.14 -3.63,4.1 -2.49,6.62 l 358.23,789.14 h 1169.43 c 2.77,0 5,-2.23 5,-5 0,-2.76 -2.23,-5 -5,-5 H 3338.89 l -355.56,-783.28 c -0.83,-1.83 -2.66,-2.93 -4.55,-2.93" /><path
         id="path128"
         style="fill:#4f68a9;fill-opacity:1;fill-rule:nonzero;stroke:none"
         d="m 764.289,983.59 h 1371.72 v 304.129 H 764.289 Z" /><path
         id="path130"
         style="fill:#6f83b8;fill-opacity:1;fill-rule:nonzero;stroke:none"
         d="m 2128.17,983.59 h 2468 v 304.129 h -2468 z" /><path
         id="path132"
         style="fill:#3d5192;fill-opacity:1;fill-rule:nonzero;stroke:none"
         d="m 764.289,1231.86 h 1363.88 v 55.8594 H 764.289 Z" /><path
         id="path134"
         style="fill:#5165a1;fill-opacity:1;fill-rule:nonzero;stroke:none"
         d="m 4596.17,1231.86 h -2468 v 55.86 h 2468 v -55.86" /><path
         id="path136"
         style="fill:#647ab4;fill-opacity:1;fill-rule:nonzero;stroke:none"
         d="M 2196.01,1273.24 H 698.082 v 74.48 H 2196.01 v -74.48" /><path
         id="path138"
         style="fill:#8e9ec7;fill-opacity:1;fill-rule:nonzero;stroke:none"
         d="M 4656.17,1273.24 H 2188.18 v 74.48 h 2467.99 v -74.48" /><path
         id="path140"
         style="fill:#ffffff;fill-opacity:1;fill-rule:nonzero;stroke:none"
         d="m 1789.69,2943.43 h -484.24 c -29.97,0 -54.26,24.29 -54.26,54.26 v 241.75 c 0,29.96 24.29,54.26 54.26,54.26 h 484.24 c 29.96,0 54.26,-24.3 54.26,-54.26 v -241.75 c 0,-29.97 -24.3,-54.26 -54.26,-54.26" /><path
         id="path142"
         style="fill:#ffffff;fill-opacity:1;fill-rule:nonzero;stroke:none"
         d="m 1981.95,3118.56 -181.87,76.74 v -153.48 z" /><path
         id="path144"
         style="fill:#293d8a;fill-opacity:1;fill-rule:nonzero;stroke:none"
         d="m 1466.19,3118.56 c 0,-18.5 -15,-33.49 -33.5,-33.49 -18.5,0 -33.5,14.99 -33.5,33.49 0,18.51 15,33.5 33.5,33.5 18.5,0 33.5,-14.99 33.5,-33.5" /><path
         id="path146"
         style="fill:#293d8a;fill-opacity:1;fill-rule:nonzero;stroke:none"
         d="m 1581.07,3118.56 c 0,-18.5 -15,-33.49 -33.5,-33.49 -18.5,0 -33.5,14.99 -33.5,33.49 0,18.51 15,33.5 33.5,33.5 18.5,0 33.5,-14.99 33.5,-33.5" /><path
         id="path148"
         style="fill:#293d8a;fill-opacity:1;fill-rule:nonzero;stroke:none"
         d="m 1695.95,3118.56 c 0,-18.5 -15,-33.49 -33.5,-33.49 -18.5,0 -33.5,14.99 -33.5,33.49 0,18.51 15,33.5 33.5,33.5 18.5,0 33.5,-14.99 33.5,-33.5" /><path
         id="path150"
         style="fill:#599fdc;fill-opacity:1;fill-rule:nonzero;stroke:none"
         d="M 4254.98,4037.38 H 3137.05 c -71.8,0 -130,-58.2 -130,-130 v -530.35 c 0,-71.79 58.2,-130 130,-130 h 100.2 c 2.82,-48.07 -4.07,-119.59 -44.22,-211.03 129.16,59.58 203.54,149.04 242.39,211.03 h 819.56 c 71.79,0 130,58.21 130,130 v 530.35 c 0,71.8 -58.21,130 -130,130" /><path
         id="path152"
         style="fill:#ffffff;fill-opacity:1;fill-rule:nonzero;stroke:none"
         d="M 3778.08,3784.62 H 3223.6 c -15.23,0 -27.59,12.35 -27.59,27.58 0,15.24 12.36,27.59 27.59,27.59 h 554.48 c 15.24,0 27.59,-12.35 27.59,-27.59 0,-15.23 -12.35,-27.58 -27.59,-27.58" /><path
         id="path154"
         style="fill:#c3e4f7;fill-opacity:1;fill-rule:nonzero;stroke:none"
         d="m 4175.67,3623.93 h -962.76 c -9.33,0 -16.9,7.56 -16.9,16.89 0,9.33 7.57,16.9 16.9,16.9 h 962.76 c 9.33,0 16.9,-7.57 16.9,-16.9 0,-9.33 -7.57,-16.89 -16.9,-16.89" /><path
         id="path156"
         style="fill:#c3e4f7;fill-opacity:1;fill-rule:nonzero;stroke:none"
         d="m 4175.67,3530.13 h -962.76 c -9.33,0 -16.9,7.57 -16.9,16.9 0,9.33 7.57,16.9 16.9,16.9 h 962.76 c 9.33,0 16.9,-7.57 16.9,-16.9 0,-9.33 -7.57,-16.9 -16.9,-16.9" /><path
         id="path158"
         style="fill:#c3e4f7;fill-opacity:1;fill-rule:nonzero;stroke:none"
         d="m 3965.65,3430.13 h -752.74 c -9.33,0 -16.9,7.57 -16.9,16.9 0,9.33 7.57,16.9 16.9,16.9 h 752.74 c 9.34,0 16.91,-7.57 16.91,-16.9 0,-9.33 -7.57,-16.9 -16.91,-16.9" /><path
         id="path160"
         style="fill:#ffffff;fill-opacity:1;fill-rule:nonzero;stroke:none"
         d="M 4168.11,3784.62 H 3903.6 c -15.23,0 -27.59,12.35 -27.59,27.58 0,15.24 12.36,27.59 27.59,27.59 h 264.51 c 15.24,0 27.58,-12.35 27.58,-27.59 0,-15.23 -12.34,-27.58 -27.58,-27.58" /><path
         id="path162"
         style="fill:#ffffff;fill-opacity:1;fill-rule:nonzero;stroke:none"
         d="M 3501.44,2564.96 H 3201.1 c -11.05,0 -20,8.96 -20,20 v 205.18 c 0,11.04 8.95,20 20,20 h 300.34 c 11.05,0 20,-8.96 20,-20 v -205.18 c 0,-11.04 -8.95,-20 -20,-20" /><path
         id="path164"
         style="fill:#647ab4;fill-opacity:1;fill-rule:nonzero;stroke:none"
         d="m 3353.35,2650.91 c -1.69,0 -3.39,0.58 -4.78,1.72 l -163.46,135.01 c -3.19,2.64 -3.64,7.36 -1,10.56 2.65,3.19 7.38,3.63 10.55,1 l 158.56,-130.95 154.51,134.45 c 3.12,2.71 7.86,2.38 10.58,-0.74 2.72,-3.13 2.39,-7.86 -0.74,-10.58 l -159.3,-138.62 c -1.41,-1.23 -3.17,-1.85 -4.92,-1.85" /><path
         id="path166"
         style="fill:#647ab4;fill-opacity:1;fill-rule:nonzero;stroke:none"
         d="m 3189.89,2570.56 c -1.86,0 -3.72,0.69 -5.17,2.07 -3,2.86 -3.12,7.6 -0.26,10.6 l 114.32,120.18 c 2.83,3.01 7.6,3.13 10.59,0.27 3.01,-2.86 3.13,-7.6 0.27,-10.61 l -114.32,-120.18 c -1.47,-1.55 -3.45,-2.33 -5.43,-2.33" /><path
         id="path168"
         style="fill:#647ab4;fill-opacity:1;fill-rule:nonzero;stroke:none"
         d="m 3512.65,2574.96 c -1.92,0 -3.84,0.73 -5.31,2.2 l -113.86,114.17 c -2.92,2.93 -2.92,7.69 0.02,10.61 2.94,2.93 7.69,2.92 10.61,-0.01 l 113.86,-114.17 c 2.92,-2.94 2.92,-7.69 -0.02,-10.61 -1.47,-1.46 -3.38,-2.19 -5.3,-2.19" /><path
         id="path170"
         style="fill:#f1494a;fill-opacity:1;fill-rule:nonzero;stroke:none"
         d="m 3637.39,2817.73 c 0,-55.42 -44.92,-100.35 -100.34,-100.35 -55.42,0 -100.34,44.93 -100.34,100.35 0,55.41 44.92,100.34 100.34,100.34 55.42,0 100.34,-44.93 100.34,-100.34" /><g
         transform="scale(10)"
         id="g172"><text
           id="text176"
           style="font-variant:normal;font-weight:bold;font-size:12px;font-family:Quicksand;-inkscape-font-specification:Quicksand-Bold;writing-mode:lr-tb;fill:#ffffff;fill-opacity:1;fill-rule:nonzero;stroke:none"
           transform="matrix(1,0,0,-1,346.652,277.538)"><tspan
             id="tspan174"
             sodipodi:role="line"
             y="0"
             x="0 7.0560002">85</tspan></text></g><path
         id="path178"
         style="fill:#293d8a;fill-opacity:1;fill-rule:nonzero;stroke:none"
         d="m 4544.88,2854.66 h -586.21 c -22.09,0 -40,17.91 -40,40 v 91.72 c 0,22.09 17.91,40 40,40 h 586.21 c 22.09,0 40,-17.91 40,-40 v -91.72 c 0,-22.09 -17.91,-40 -40,-40" /><path
         id="path180"
         style="fill:#ffffff;fill-opacity:1;fill-rule:nonzero;stroke:none"
         d="m 4000.99,2895.49 c -2.63,0 -4.74,0.93 -6.34,2.81 -1.6,1.87 -2.3,4.22 -2.1,7.03 l 2.52,22.24 -0.27,1.12 -1.41,-0.28 -18.3,-13.22 c -2.25,-1.69 -4.6,-2.31 -7.04,-1.83 -2.43,0.46 -4.4,1.92 -5.9,4.36 -1.69,3 -2.02,5.63 -0.99,7.88 1.02,2.25 2.77,3.84 5.2,4.78 l 20.55,9.29 0.85,0.84 -0.85,0.85 -20.55,9.29 c -2.62,1.12 -4.31,2.9 -5.05,5.34 -0.76,2.44 -0.47,4.88 0.84,7.32 1.5,2.44 3.47,3.89 5.9,4.37 2.44,0.46 4.79,-0.06 7.04,-1.56 l 18.3,-13.51 1.41,-0.27 0.27,1.12 -2.52,22.24 c -0.2,2.81 0.55,5.16 2.25,7.03 1.69,1.88 3.94,2.81 6.75,2.81 2.63,0 4.78,-0.93 6.47,-2.81 1.69,-1.87 2.35,-4.22 1.97,-7.03 l -2.53,-22.24 0.28,-1.12 1.42,0.27 18.29,13.23 c 2.24,1.7 4.64,2.3 7.18,1.84 2.52,-0.48 4.44,-1.93 5.76,-4.37 1.69,-3 2.02,-5.63 0.97,-7.88 -1.02,-2.25 -2.76,-3.85 -5.2,-4.78 l -20.54,-9.29 -0.84,-0.85 0.84,-0.84 20.54,-9.29 c 2.64,-1.12 4.37,-2.91 5.2,-5.34 0.85,-2.45 0.53,-4.89 -0.97,-7.32 -1.32,-2.44 -3.24,-3.9 -5.76,-4.36 -2.54,-0.48 -4.94,0.05 -7.18,1.54 l -18.29,13.51 -1.42,0.28 -0.28,-1.12 2.53,-22.24 c 0.38,-2.81 -0.33,-5.16 -2.1,-7.03 -1.8,-1.88 -4.09,-2.81 -6.9,-2.81" /><path
         id="path182"
         style="fill:#ffffff;fill-opacity:1;fill-rule:nonzero;stroke:none"
         d="m 4122.23,2895.49 c -2.62,0 -4.73,0.93 -6.33,2.81 -1.6,1.87 -2.3,4.22 -2.11,7.03 l 2.53,22.24 -0.28,1.12 -1.4,-0.28 -18.3,-13.22 c -2.25,-1.69 -4.6,-2.31 -7.04,-1.83 -2.43,0.46 -4.4,1.92 -5.9,4.36 -1.69,3 -2.02,5.63 -0.99,7.88 1.02,2.25 2.76,3.84 5.2,4.78 l 20.55,9.29 0.85,0.84 -0.85,0.85 -20.55,9.29 c -2.62,1.12 -4.31,2.9 -5.06,5.34 -0.75,2.44 -0.46,4.88 0.85,7.32 1.5,2.44 3.47,3.89 5.9,4.37 2.44,0.46 4.79,-0.06 7.04,-1.56 l 18.3,-13.51 1.4,-0.27 0.28,1.12 -2.53,22.24 c -0.19,2.81 0.56,5.16 2.25,7.03 1.69,1.88 3.94,2.81 6.76,2.81 2.63,0 4.78,-0.93 6.47,-2.81 1.69,-1.87 2.35,-4.22 1.97,-7.03 l -2.53,-22.24 0.28,-1.12 1.41,0.27 18.29,13.23 c 2.24,1.7 4.65,2.3 7.18,1.84 2.53,-0.48 4.45,-1.93 5.77,-4.37 1.68,-3 2.01,-5.63 0.97,-7.88 -1.02,-2.25 -2.76,-3.85 -5.2,-4.78 l -20.54,-9.29 -0.84,-0.85 0.84,-0.84 20.54,-9.29 c 2.63,-1.12 4.37,-2.91 5.2,-5.34 0.85,-2.45 0.53,-4.89 -0.97,-7.32 -1.32,-2.44 -3.24,-3.9 -5.77,-4.36 -2.53,-0.48 -4.94,0.05 -7.18,1.54 l -18.29,13.51 -1.41,0.28 -0.28,-1.12 2.53,-22.24 c 0.38,-2.81 -0.33,-5.16 -2.11,-7.03 -1.79,-1.88 -4.08,-2.81 -6.9,-2.81" /><path
         id="path184"
         style="fill:#ffffff;fill-opacity:1;fill-rule:nonzero;stroke:none"
         d="m 4243.48,2895.49 c -2.62,0 -4.74,0.93 -6.33,2.81 -1.61,1.87 -2.31,4.22 -2.11,7.03 l 2.53,22.24 -0.28,1.12 -1.4,-0.28 -18.31,-13.22 c -2.25,-1.69 -4.6,-2.31 -7.03,-1.83 -2.44,0.46 -4.41,1.92 -5.9,4.36 -1.7,3 -2.03,5.63 -0.99,7.88 1.02,2.25 2.76,3.84 5.2,4.78 l 20.55,9.29 0.84,0.84 -0.84,0.85 -20.55,9.29 c -2.62,1.12 -4.32,2.9 -5.06,5.34 -0.75,2.44 -0.46,4.88 0.85,7.32 1.49,2.44 3.46,3.89 5.9,4.37 2.43,0.46 4.78,-0.06 7.03,-1.56 l 18.31,-13.51 1.4,-0.27 0.28,1.12 -2.53,22.24 c -0.2,2.81 0.56,5.16 2.25,7.03 1.69,1.88 3.94,2.81 6.76,2.81 2.63,0 4.77,-0.93 6.46,-2.81 1.7,-1.87 2.36,-4.22 1.97,-7.03 l -2.52,-22.24 0.28,-1.12 1.41,0.27 18.29,13.23 c 2.24,1.7 4.64,2.3 7.18,1.84 2.53,-0.48 4.45,-1.93 5.77,-4.37 1.68,-3 2.01,-5.63 0.97,-7.88 -1.02,-2.25 -2.77,-3.85 -5.2,-4.78 l -20.54,-9.29 -0.85,-0.85 0.85,-0.84 20.54,-9.29 c 2.63,-1.12 4.36,-2.91 5.2,-5.34 0.84,-2.45 0.52,-4.89 -0.97,-7.32 -1.32,-2.44 -3.24,-3.9 -5.77,-4.36 -2.54,-0.48 -4.94,0.05 -7.18,1.54 l -18.29,13.51 -1.41,0.28 -0.28,-1.12 2.52,-22.24 c 0.39,-2.81 -0.33,-5.16 -2.1,-7.03 -1.79,-1.88 -4.09,-2.81 -6.9,-2.81" /><path
         id="path186"
         style="fill:#ffffff;fill-opacity:1;fill-rule:nonzero;stroke:none"
         d="m 4364.72,2895.49 c -2.62,0 -4.73,0.93 -6.32,2.81 -1.61,1.87 -2.31,4.22 -2.11,7.03 l 2.53,22.24 -0.29,1.12 -1.4,-0.28 -18.3,-13.22 c -2.25,-1.69 -4.6,-2.31 -7.04,-1.83 -2.43,0.46 -4.4,1.92 -5.9,4.36 -1.69,3 -2.02,5.63 -0.99,7.88 1.02,2.25 2.77,3.84 5.2,4.78 l 20.55,9.29 0.85,0.84 -0.85,0.85 -20.55,9.29 c -2.62,1.12 -4.31,2.9 -5.05,5.34 -0.76,2.44 -0.47,4.88 0.84,7.32 1.5,2.44 3.47,3.89 5.9,4.37 2.44,0.46 4.79,-0.06 7.04,-1.56 l 18.3,-13.51 1.4,-0.27 0.29,1.12 -2.53,22.24 c -0.2,2.81 0.55,5.16 2.24,7.03 1.7,1.88 3.95,2.81 6.76,2.81 2.63,0 4.78,-0.93 6.47,-2.81 1.69,-1.87 2.35,-4.22 1.97,-7.03 l -2.53,-22.24 0.28,-1.12 1.42,0.27 18.29,13.23 c 2.24,1.7 4.64,2.3 7.18,1.84 2.52,-0.48 4.44,-1.93 5.76,-4.37 1.69,-3 2.02,-5.63 0.97,-7.88 -1.02,-2.25 -2.76,-3.85 -5.2,-4.78 l -20.54,-9.29 -0.84,-0.85 0.84,-0.84 20.54,-9.29 c 2.64,-1.12 4.37,-2.91 5.2,-5.34 0.85,-2.45 0.53,-4.89 -0.97,-7.32 -1.32,-2.44 -3.24,-3.9 -5.76,-4.36 -2.54,-0.48 -4.94,0.05 -7.18,1.54 l -18.29,13.51 -1.42,0.28 -0.28,-1.12 2.53,-22.24 c 0.38,-2.81 -0.33,-5.16 -2.1,-7.03 -1.8,-1.88 -4.09,-2.81 -6.91,-2.81" /><path
         id="path188"
         style="fill:#5da4de;fill-opacity:1;fill-rule:nonzero;stroke:none"
         d="m 4485.97,2895.49 c -2.62,0 -4.73,0.93 -6.32,2.81 -1.61,1.87 -2.31,4.22 -2.12,7.03 l 2.54,22.24 -0.29,1.12 -1.4,-0.28 -18.3,-13.22 c -2.25,-1.69 -4.6,-2.31 -7.04,-1.83 -2.43,0.46 -4.4,1.92 -5.9,4.36 -1.69,3 -2.02,5.63 -0.99,7.88 1.02,2.25 2.76,3.84 5.2,4.78 l 20.55,9.29 0.85,0.84 -0.85,0.85 -20.55,9.29 c -2.62,1.12 -4.31,2.9 -5.06,5.34 -0.75,2.44 -0.46,4.88 0.85,7.32 1.5,2.44 3.47,3.89 5.9,4.37 2.44,0.46 4.79,-0.06 7.04,-1.56 l 18.3,-13.51 1.4,-0.27 0.29,1.12 -2.54,22.24 c -0.19,2.81 0.56,5.16 2.25,7.03 1.69,1.88 3.94,2.81 6.76,2.81 2.63,0 4.78,-0.93 6.47,-2.81 1.69,-1.87 2.35,-4.22 1.97,-7.03 l -2.53,-22.24 0.28,-1.12 1.41,0.27 18.29,13.23 c 2.24,1.7 4.65,2.3 7.18,1.84 2.53,-0.48 4.45,-1.93 5.77,-4.37 1.68,-3 2.01,-5.63 0.97,-7.88 -1.02,-2.25 -2.76,-3.85 -5.2,-4.78 l -20.54,-9.29 -0.85,-0.85 0.85,-0.84 20.54,-9.29 c 2.63,-1.12 4.37,-2.91 5.2,-5.34 0.85,-2.45 0.53,-4.89 -0.97,-7.32 -1.32,-2.44 -3.24,-3.9 -5.77,-4.36 -2.53,-0.48 -4.94,0.05 -7.18,1.54 l -18.29,13.51 -1.41,0.28 -0.28,-1.12 2.53,-22.24 c 0.38,-2.81 -0.33,-5.16 -2.11,-7.03 -1.79,-1.88 -4.08,-2.81 -6.9,-2.81" /></g></g></svg>
