<svg width="1233" height="694" viewBox="0 0 1233 694" fill="none" xmlns="http://www.w3.org/2000/svg">
<g clip-path="url(#clip0)">
<rect width="1233" height="694" fill="#15151C"/>
<rect width="200" height="1080" fill="#0F0F14"/>
<g clip-path="url(#clip1)">
<path d="M60.1695 59.8418L59.637 59.6483L45.7894 54.9029L45.045 54.6479L44.9147 54.6023C44.1095 54.3202 43.378 53.8606 42.7744 53.2576C42.1709 52.6546 41.7106 51.9236 41.4278 51.1186L41.1464 50.311L36.3458 36.4866L36.3346 36.4451L36.2051 35.9653C36.365 36.0213 36.5249 36.0709 36.6848 36.1132C36.8223 36.1516 36.9607 36.1844 37.0998 36.2116C37.1454 36.222 37.1917 36.2308 37.2381 36.2388L37.2845 36.2476L37.3301 36.2556H37.3445L37.4244 36.2684L38.0297 36.3483L47.323 37.5868C47.4317 37.6044 47.5412 37.6268 47.65 37.6492C47.6884 37.6572 47.7299 37.666 47.7659 37.6756C47.8019 37.6852 47.8635 37.698 47.9122 37.7116C47.961 37.7252 48.0074 37.7356 48.0554 37.7492C48.2017 37.7891 48.3472 37.8347 48.4911 37.8843L48.5815 37.9163L48.675 37.9514C48.7486 37.9786 48.8205 38.0074 48.8933 38.037C48.9064 38.044 48.92 38.0499 48.9341 38.0546C48.9749 38.0722 49.014 38.089 49.0564 38.1082C49.0988 38.1273 49.1364 38.1457 49.1819 38.1657L49.2787 38.2113L49.381 38.2625C49.7687 38.4622 50.1371 38.6974 50.4812 38.9653C50.5148 38.9893 50.5476 39.0149 50.5804 39.0452L50.6315 39.086L50.7187 39.1572C50.7315 39.1668 50.7427 39.1772 50.7547 39.1876C50.7939 39.2203 50.8346 39.2547 50.8714 39.2883C50.9082 39.3219 50.9514 39.3611 50.9937 39.3986L51.0809 39.4786C51.0969 39.4941 51.1121 39.5092 51.1265 39.5242L51.2064 39.5977L51.2384 39.6305C51.2488 39.6409 51.2592 39.6505 51.268 39.6609C51.2912 39.6833 51.3128 39.7057 51.3344 39.7297C51.3759 39.772 51.4143 39.8152 51.4559 39.8592L51.5518 39.9679C51.599 40.0215 51.6446 40.0751 51.6894 40.1278C51.7341 40.1806 51.7781 40.2374 51.8213 40.2878C51.8645 40.3381 51.906 40.3989 51.9468 40.4557C51.9876 40.5124 52.0268 40.5692 52.0652 40.6252C52.0819 40.6492 52.0979 40.6715 52.1123 40.6955C52.1267 40.7195 52.1427 40.7411 52.1579 40.7651L52.1915 40.8155C52.2251 40.8674 52.2578 40.9202 52.289 40.9754C52.3426 41.0641 52.3938 41.1529 52.4426 41.2424C52.4913 41.332 52.5385 41.4223 52.5825 41.5135C52.6177 41.5854 52.6512 41.6574 52.6848 41.7302C52.7024 41.7701 52.72 41.8101 52.736 41.8501C52.7968 41.9903 52.8522 42.1315 52.9023 42.2739C52.9175 42.3146 52.9311 42.3538 52.9447 42.397C52.9519 42.4178 52.9591 42.4378 52.9647 42.4578C52.9839 42.5169 53.003 42.5769 53.0206 42.6377C53.0398 42.7008 53.0574 42.7648 53.0742 42.8288C53.0817 42.8548 53.0936 42.8794 53.1094 42.9015C53.1164 42.9119 53.1251 42.9211 53.135 42.9287C53.1435 42.9366 53.1529 42.9436 53.163 42.9495V42.9495C53.1653 42.9515 53.168 42.9532 53.1709 42.9543C53.1723 42.9562 53.1743 42.9576 53.1765 42.9583C53.1836 42.9635 53.1914 42.9676 53.1997 42.9703C53.2088 42.9741 53.2181 42.977 53.2277 42.9791L53.398 43.0262L53.4364 43.0374C53.4948 43.0542 53.5523 43.0718 53.6107 43.091H53.6163L53.7834 43.147L53.8258 43.163C53.9609 43.2109 54.096 43.2637 54.2256 43.3229C54.2695 43.3413 54.3143 43.3613 54.3583 43.3813C54.4255 43.4124 54.4926 43.4428 54.5582 43.4764L54.6381 43.5164L54.7181 43.5588C54.8391 43.6217 54.9582 43.688 55.0755 43.7578C55.1339 43.793 55.1922 43.8298 55.2506 43.8666L55.2858 43.889L55.3066 43.9034C55.3266 43.9154 55.3458 43.9282 55.3649 43.9409L55.4233 43.9801C55.4809 44.0193 55.5376 44.0601 55.5936 44.0993C55.6496 44.1384 55.6968 44.1744 55.7471 44.2128L55.7839 44.2416C55.8319 44.2784 55.8791 44.3167 55.927 44.3551C55.975 44.3935 56.0358 44.4447 56.0869 44.491C56.1749 44.5662 56.2596 44.6438 56.342 44.7221C56.3764 44.7541 56.4092 44.7861 56.4419 44.8189C56.4747 44.8516 56.5139 44.8892 56.5483 44.926C56.5667 44.9428 56.5835 44.9612 56.5995 44.9788C56.6306 45.0108 56.6618 45.0443 56.6922 45.0771C56.8257 45.2218 56.9521 45.3722 57.0712 45.5265C57.1032 45.5672 57.1344 45.6064 57.1656 45.6496L57.2559 45.7727C57.2855 45.8151 57.3151 45.8575 57.3431 45.8999C57.371 45.9422 57.4006 45.9854 57.4294 46.0294C57.4582 46.0734 57.4846 46.1157 57.5094 46.1597C57.5342 46.2037 57.5613 46.2445 57.5893 46.2885C57.6173 46.3324 57.6357 46.3684 57.6573 46.4076C57.6789 46.4468 57.7021 46.4875 57.7236 46.5283C57.7452 46.5691 57.766 46.6083 57.7868 46.6499C57.8076 46.6914 57.8212 46.7162 57.8372 46.749C57.8532 46.7818 57.8684 46.8114 57.8828 46.8433C57.8971 46.8753 57.9163 46.9129 57.9315 46.9473C57.9467 46.9817 57.9715 47.0368 57.9907 47.0816C58.0179 47.144 58.0443 47.2071 58.0707 47.2695C58.0874 47.3119 58.1034 47.3551 58.1194 47.3974C58.1538 47.4894 58.1874 47.5829 58.217 47.6757C58.233 47.7237 58.2482 47.7724 58.2633 47.8204C58.2785 47.8684 58.2929 47.9164 58.3057 47.9651C58.3185 48.0139 58.3329 48.0619 58.3457 48.1107L58.3721 48.217C58.3825 48.2546 58.3905 48.2922 58.3985 48.3297C58.4177 48.4097 58.4353 48.4936 58.4496 48.576C58.4576 48.6168 58.4648 48.656 58.4728 48.6991L59.8369 58.5913C59.8369 58.5993 59.8369 58.6073 59.8417 58.6153C59.8489 58.6664 59.8585 58.7168 59.8681 58.768C59.8777 58.8192 59.8857 58.8623 59.896 58.9095C59.9016 58.9359 59.9072 58.9631 59.9144 58.9895C59.9232 59.0334 59.9336 59.0782 59.9448 59.1214C59.9592 59.18 59.9744 59.2384 59.9904 59.2965C59.9901 59.2984 59.9901 59.3002 59.9904 59.3021V59.3021C60.0136 59.39 60.0384 59.4772 60.0648 59.5628C60.0911 59.6483 60.1199 59.7355 60.1511 59.821L60.1695 59.8418Z" stroke="white" stroke-miterlimit="10"/>
<path d="M53.8149 42.2031C53.7738 41.835 53.7103 41.4697 53.6246 41.1093C53.6205 41.0923 53.6214 41.0745 53.6273 41.058C53.6331 41.0416 53.6437 41.0272 53.6576 41.0167C53.6716 41.0061 53.6883 40.9999 53.7057 40.9987C53.7231 40.9976 53.7405 41.0016 53.7557 41.0102C53.9082 41.1011 54.0487 41.2107 54.1739 41.3364L54.7336 41.8961C54.8486 42.01 54.9502 42.1366 55.0367 42.2735C55.0459 42.2887 55.0505 42.3063 55.0497 42.324C55.0489 42.3418 55.0429 42.359 55.0323 42.3733C55.0218 42.3876 55.0072 42.3985 54.9905 42.4045C54.9737 42.4105 54.9556 42.4114 54.9383 42.407C54.5694 42.3213 54.1955 42.2583 53.8189 42.2183L53.8149 42.2031Z" fill="#FFCD20"/>
<path d="M55.3134 43.9C55.2252 44.2971 55.0252 44.6605 54.7369 44.9475L49.4031 50.2797C49.3852 50.2978 49.3627 50.3108 49.3381 50.3173C49.3135 50.3238 49.2876 50.3235 49.2631 50.3166C49.2386 50.3097 49.2164 50.2963 49.1988 50.2778C49.1812 50.2594 49.1689 50.2366 49.1632 50.2118C49.016 49.625 48.712 49.0894 48.2837 48.6622L47.4098 47.7899C46.9831 47.361 46.4472 47.0569 45.8602 46.9104C45.8352 46.905 45.8121 46.8929 45.7934 46.8754C45.7747 46.8579 45.7611 46.8357 45.754 46.811C45.747 46.7864 45.7467 46.7603 45.7533 46.7356C45.7599 46.7108 45.7731 46.6884 45.7915 46.6705L51.1245 41.335C51.4065 41.0523 51.7622 40.8545 52.1512 40.7642L52.1847 40.8145C52.2183 40.8665 52.2511 40.9193 52.2823 40.9744C52.3359 41.0632 52.387 41.1519 52.4358 41.2415C52.4846 41.331 52.5318 41.4214 52.5757 41.5125C52.6109 41.5845 52.6445 41.6565 52.6781 41.7292C52.6957 41.7692 52.7132 41.8092 52.7292 41.8492C52.79 41.9894 52.8454 42.1306 52.8955 42.2729C52.9107 42.3137 52.9243 42.3529 52.9379 42.3961C52.9451 42.4169 52.9523 42.4368 52.9579 42.4568L52.9659 42.48C52.9827 42.532 52.9979 42.584 53.0139 42.6399C53.0331 42.7031 53.0507 42.7671 53.0675 42.831C53.075 42.8571 53.0869 42.8817 53.1026 42.9038C53.1097 42.9141 53.1183 42.9233 53.1282 42.931C53.1368 42.9389 53.1461 42.9459 53.1562 42.9518C53.1584 42.954 53.1612 42.9556 53.1642 42.9566C53.1656 42.9585 53.1675 42.9599 53.1698 42.9606C53.1768 42.9658 53.1847 42.9698 53.193 42.9725C53.2021 42.9758 53.2114 42.9782 53.221 42.9797C53.2777 42.9965 53.3345 43.0109 53.3913 43.0285L53.4297 43.0397C53.488 43.0565 53.5456 43.0741 53.604 43.0933H53.6096H53.6176C53.6711 43.1101 53.7247 43.1277 53.7775 43.1468L53.8198 43.1628C53.875 43.1812 53.9286 43.2012 53.9837 43.222C54.0389 43.2428 54.1077 43.2708 54.17 43.2972L54.2228 43.3204C54.2668 43.3387 54.3116 43.3587 54.3555 43.3787C54.4107 43.4019 54.4643 43.4283 54.5155 43.4539C54.5284 43.4597 54.541 43.4664 54.553 43.4739L54.633 43.5138L54.7129 43.5562L54.7617 43.581C54.8657 43.6354 54.9688 43.6929 55.0704 43.7553C55.1239 43.7857 55.1767 43.8185 55.2303 43.8529L55.2463 43.8641L55.2814 43.8864L55.3134 43.9Z" fill="#FFCD20"/>
<path d="M60.9188 36.5758L60.2847 37.2099C60.2743 37.2203 60.2614 37.2279 60.2472 37.232C60.233 37.2361 60.2181 37.2365 60.2037 37.2333C60.1893 37.23 60.176 37.2231 60.165 37.2133C60.154 37.2035 60.1457 37.191 60.1408 37.1771C60.0699 36.9777 59.9552 36.7968 59.805 36.6478L59.4324 36.2744C59.2832 36.1244 59.1023 36.0096 58.9031 35.9386C58.8892 35.9337 58.8767 35.9254 58.8669 35.9144C58.857 35.9034 58.8502 35.8901 58.8469 35.8757C58.8436 35.8613 58.8441 35.8463 58.8481 35.8322C58.8522 35.818 58.8599 35.8051 58.8703 35.7947L59.5035 35.1606C59.6507 35.0136 59.847 34.926 60.0548 34.9148C60.2626 34.9036 60.4672 34.9695 60.6293 35.0998C60.6534 35.1188 60.6763 35.1391 60.6981 35.1606L60.9188 35.3813C60.9405 35.4029 60.9608 35.4258 60.9795 35.4501C61.1099 35.6122 61.1758 35.8168 61.1646 36.0246C61.1534 36.2323 61.0658 36.4286 60.9188 36.5758Z" fill="#FFCD20"/>
<path d="M62.3401 34.0878L61.3359 35.0929C61.3279 35.0833 61.3183 35.0737 61.3103 35.0649L61.0137 34.7674L60.9849 34.7419L61.9859 33.7392C62.0254 33.7004 62.0785 33.6787 62.1338 33.6787C62.1892 33.6787 62.2423 33.7004 62.2818 33.7392L62.3369 33.7936C62.376 33.8324 62.3983 33.885 62.3989 33.94C62.3995 33.9951 62.3784 34.0482 62.3401 34.0878Z" fill="#FFCD20"/>
<path d="M59.6303 38.0801C59.603 38.3556 59.4806 38.6129 59.2841 38.8077L56.149 41.9468C56.1363 41.9598 56.1207 41.9696 56.1035 41.9753C56.0863 41.9811 56.0679 41.9826 56.05 41.9798C56.0321 41.977 56.0151 41.9699 56.0004 41.9591C55.9858 41.9484 55.9739 41.9343 55.9659 41.918C55.8436 41.6753 55.6833 41.4537 55.4909 41.2616L54.8273 40.5972C54.6339 40.4019 54.4097 40.2398 54.1637 40.1174C54.1475 40.1092 54.1334 40.0973 54.1227 40.0826C54.112 40.0679 54.1049 40.0509 54.102 40.033C54.0992 40.0151 54.1006 39.9967 54.1061 39.9794C54.1117 39.9621 54.1213 39.9464 54.1341 39.9335L57.2684 36.7944C57.4665 36.5956 57.7284 36.473 58.008 36.4482C58.0769 36.443 58.1461 36.443 58.2151 36.4482C58.4995 36.4715 58.7664 36.5951 58.9682 36.7968L59.2817 37.1111C59.4836 37.3124 59.6072 37.5792 59.6303 37.8635C59.6365 37.9355 59.6365 38.008 59.6303 38.0801Z" fill="#FFCD20"/>
<path d="M47.419 53.2773L44.5406 56.1557C44.4793 55.9422 44.3796 55.7417 44.2463 55.564C44.2328 55.5442 44.2182 55.5253 44.2024 55.5072C44.1595 55.4524 44.1133 55.4004 44.064 55.3513L40.7451 52.0323C40.6965 51.9831 40.6446 51.9372 40.59 51.8948C40.5724 51.8796 40.5532 51.8644 40.5332 51.85C40.3505 51.7145 40.1445 51.6134 39.9255 51.5518L39.9111 51.5478L42.7975 48.6614C43.233 48.224 43.8036 47.9467 44.4167 47.8746L44.4966 47.8658L44.6069 47.857C44.9918 47.8376 45.3765 47.8991 45.7361 48.0376C46.0958 48.1762 46.4223 48.3887 46.6946 48.6614L47.4142 49.381C47.6873 49.653 47.9002 49.9795 48.0389 50.3392C48.1776 50.6988 48.2391 51.0837 48.2194 51.4686C48.2194 51.5054 48.2194 51.5414 48.2122 51.5774C48.205 51.6134 48.2074 51.6302 48.2034 51.6573C48.1319 52.2703 47.8555 52.8411 47.419 53.2773Z" fill="#FFCD20"/>
<path d="M43.9783 57.479C43.9415 57.924 43.7477 58.3415 43.4314 58.6568C43.2341 58.8535 42.9684 58.9663 42.6898 58.9715C42.4113 58.9768 42.1415 58.874 41.937 58.6847C41.9314 58.6847 41.9066 58.7063 41.889 58.7175C41.7869 58.7807 41.6694 58.8148 41.5492 58.8159C41.4201 58.8145 41.2944 58.7741 41.1886 58.6999C41.158 58.6795 41.1296 58.6559 41.1039 58.6296L39.7374 57.2639L37.4635 54.99L37.4459 54.9716L37.4275 54.9524C37.3416 54.8491 37.2905 54.7213 37.2813 54.5873C37.2721 54.4532 37.3053 54.3197 37.3763 54.2056L37.4075 54.1528C37.218 53.9489 37.1151 53.6795 37.1203 53.4012C37.1255 53.1229 37.2385 52.8575 37.4355 52.6609C37.7545 52.3403 38.1783 52.1454 38.6292 52.1116C38.6772 52.1116 38.726 52.106 38.774 52.106C38.8593 52.1058 38.9445 52.1117 39.029 52.1236C39.1186 52.1351 39.2071 52.1538 39.2937 52.1795C39.4143 52.2132 39.5312 52.2592 39.6423 52.317C39.7326 52.3627 39.8188 52.4162 39.8997 52.477L39.9581 52.5217C40.0121 52.5646 40.0634 52.6108 40.1116 52.6601L43.4314 55.979C43.4805 56.0282 43.527 56.08 43.5705 56.1341C43.5849 56.1525 43.6001 56.1717 43.6129 56.1909C43.6813 56.2827 43.7415 56.3804 43.7928 56.4828C43.8429 56.5832 43.8841 56.6878 43.9159 56.7954C43.9405 56.8826 43.9584 56.9716 43.9695 57.0616C43.9878 57.2 43.9908 57.34 43.9783 57.479Z" fill="#FFCD20"/>
<path d="M64.1449 63.9993C64.077 63.9713 64.0042 63.9425 63.9282 63.9106C63.3207 63.6482 62.7549 63.2979 62.2492 62.8711C62.194 62.8248 62.1148 62.7568 62.0197 62.6688C61.5491 62.2258 61.14 61.7215 60.8036 61.1697C60.7236 61.0425 60.6524 60.9122 60.5829 60.7803C60.4243 60.4792 60.2883 60.1668 60.1759 59.8456L60.1711 59.8328C60.1399 59.7472 60.1111 59.6617 60.0848 59.5745C60.0584 59.4874 60.0336 59.4018 60.0104 59.3139C60.0101 59.312 60.0101 59.3101 60.0104 59.3083C59.9944 59.2507 59.9792 59.1924 59.9648 59.1332C59.9536 59.09 59.9432 59.0452 59.9344 59.0013C59.9272 58.9749 59.9216 58.9477 59.916 58.9213C59.9057 58.8741 59.8961 58.827 59.8881 58.7798C59.8801 58.7326 59.8689 58.6782 59.8617 58.6271C59.8617 58.6191 59.8617 58.6111 59.8569 58.6031L58.4976 48.7109C58.4904 48.6701 58.4824 48.631 58.4736 48.5878C58.4592 48.5078 58.4417 48.4239 58.4225 48.3415C58.4145 48.3039 58.4065 48.2664 58.3961 48.2288C58.3961 48.2136 58.3889 48.1984 58.3857 48.1832C58.3825 48.168 58.3753 48.1424 58.3697 48.1224C58.3569 48.0737 58.3441 48.0249 58.3297 47.9769C58.3249 47.9593 58.3201 47.9401 58.3145 47.9226C58.3057 47.8922 58.2961 47.8618 58.2873 47.8322L58.2761 47.793C58.265 47.7586 58.2538 47.7227 58.241 47.6875C58.2114 47.5947 58.1778 47.5012 58.1434 47.4092C58.1274 47.3669 58.1114 47.3237 58.0947 47.2813C58.0699 47.2189 58.0435 47.1558 58.0147 47.0934C57.9955 47.0486 57.9763 47.0039 57.9555 46.9591C57.9347 46.9143 57.9235 46.8895 57.9068 46.8551C57.89 46.8208 57.8772 46.792 57.8612 46.7608C57.8452 46.7296 57.8284 46.6944 57.8108 46.6616C57.7932 46.6289 57.7692 46.5817 57.7476 46.5401C57.7261 46.4985 57.7037 46.4602 57.6813 46.4194C57.6589 46.3786 57.6357 46.3394 57.6133 46.3002C57.5909 46.2611 57.5669 46.2203 57.5422 46.1811C57.5404 46.1777 57.5383 46.1745 57.5358 46.1715C57.5094 46.1275 57.4822 46.0844 57.4558 46.0412C57.4294 45.998 57.399 45.9548 57.3694 45.9117C57.3399 45.8685 57.3111 45.8269 57.2823 45.7845L57.1919 45.6614C57.1624 45.6198 57.1312 45.5814 57.0976 45.5383C56.9785 45.3839 56.8521 45.2336 56.7186 45.0889C56.6882 45.0561 56.657 45.0225 56.6259 44.9906C56.6099 44.973 56.5931 44.9546 56.5747 44.9378C56.5403 44.901 56.5043 44.8658 56.4683 44.8306C56.4324 44.7955 56.4028 44.7659 56.3684 44.7339C56.2884 44.6539 56.2013 44.574 56.1133 44.5028C56.0662 44.4621 56.0214 44.4229 55.9734 44.3837L55.951 44.3669C55.9031 44.3285 55.8559 44.287 55.8079 44.2534L55.7711 44.2246L55.7343 44.1966C55.7168 44.1822 55.696 44.167 55.676 44.1534C55.6572 44.1383 55.6378 44.1242 55.6176 44.111C55.5616 44.0703 55.5049 44.0311 55.4473 43.9919L55.4361 43.9839C55.421 43.9727 55.4052 43.9623 55.3889 43.9527C55.3697 43.9383 55.3506 43.9255 55.3314 43.9128L55.3106 43.9L55.2754 43.8776L55.2594 43.8664C55.2066 43.832 55.1539 43.7992 55.0995 43.7688C54.998 43.7065 54.8948 43.6489 54.7909 43.5945L54.7421 43.5697L54.6621 43.5274C54.6363 43.5126 54.6096 43.4992 54.5822 43.4874C54.5701 43.4799 54.5575 43.4732 54.5446 43.4674C54.491 43.4418 54.4375 43.4154 54.3847 43.3922C54.3407 43.3715 54.2959 43.3523 54.252 43.3339L54.1992 43.3107C54.1368 43.2843 54.0753 43.2603 54.0129 43.2355C53.9505 43.2107 53.9042 43.1948 53.849 43.1764L53.8066 43.1604C53.7546 43.1412 53.7011 43.1236 53.6467 43.1068H53.6387H53.6331C53.5747 43.0868 53.5172 43.07 53.4588 43.0532L53.4204 43.042C53.3637 43.0244 53.3069 43.0101 53.2501 42.9933C53.2406 42.9917 53.2312 42.9893 53.2221 42.9861C53.2138 42.9834 53.206 42.9793 53.1989 42.9741C53.1967 42.9734 53.1947 42.972 53.1933 42.9701C53.1904 42.969 53.1877 42.9673 53.1853 42.9653C53.1753 42.9594 53.1659 42.9524 53.1574 42.9445C53.1475 42.9368 53.1388 42.9277 53.1318 42.9173C53.116 42.8952 53.1041 42.8706 53.0966 42.8445C53.0798 42.7806 53.0622 42.7166 53.043 42.6534C53.027 42.6007 53.0118 42.5487 52.9951 42.4935L52.9871 42.4703C52.9815 42.4504 52.9743 42.4304 52.9671 42.4096C52.9535 42.368 52.9407 42.3296 52.9247 42.2865C52.8741 42.1441 52.8186 42.0029 52.7584 41.8627C52.7424 41.8219 52.7248 41.7827 52.7072 41.7427C52.6736 41.67 52.64 41.598 52.6049 41.5261C52.5609 41.4349 52.5137 41.3446 52.4649 41.255C52.4162 41.1655 52.365 41.0767 52.3114 40.988C52.2802 40.9352 52.2475 40.8824 52.2139 40.8281L52.1803 40.7777C52.1651 40.7545 52.1499 40.7313 52.1339 40.7089C52.1179 40.6865 52.1035 40.6625 52.0868 40.6386C52.0484 40.5826 52.0068 40.5258 51.9684 40.469C51.9276 40.4123 51.8885 40.3571 51.8429 40.3011C51.7973 40.2452 51.7565 40.1924 51.711 40.1412C51.6654 40.0901 51.6214 40.0333 51.5742 39.9813C51.5423 39.9445 51.5103 39.9086 51.4775 39.8726C51.4447 39.8366 51.3975 39.7854 51.356 39.7431L51.3192 39.7031C51.3096 39.6927 51.2992 39.6831 51.2896 39.6743C51.28 39.6655 51.2704 39.6543 51.26 39.6439L51.228 39.6111L51.1481 39.5376C51.1337 39.5226 51.1185 39.5074 51.1025 39.492L51.0153 39.412C50.9754 39.3747 50.9346 39.3379 50.893 39.3017C50.8546 39.2665 50.8131 39.2329 50.7763 39.2009C50.7643 39.1906 50.7531 39.1802 50.7403 39.1706C50.7115 39.1466 50.6819 39.1218 50.6531 39.0994L50.602 39.0586C50.5692 39.0322 50.5372 39.0067 50.5028 38.9787C50.1587 38.7151 49.7909 38.4838 49.4042 38.2878L49.3019 38.2367L49.2051 38.1911C49.1628 38.1711 49.1252 38.1511 49.0796 38.1335C49.034 38.1159 48.9996 38.0976 48.9573 38.08C48.9432 38.0753 48.9296 38.0694 48.9165 38.0624C48.8437 38.0328 48.7718 38.004 48.6982 37.9768L48.6047 37.9416L48.5143 37.9097C48.3704 37.8601 48.2249 37.8145 48.0786 37.7745C48.0306 37.7609 47.9834 37.7481 47.9354 37.737C47.8875 37.7258 47.8379 37.7122 47.7891 37.701C47.7403 37.6898 47.7092 37.6826 47.6732 37.6746C47.5644 37.6522 47.4549 37.6298 47.3462 37.6122L38.0313 36.3569L37.426 36.277L37.3461 36.2642H37.3317L37.2861 36.2562C37.2701 36.2562 37.2549 36.2506 37.2397 36.2466C37.1933 36.2378 37.147 36.2298 37.1014 36.2202C36.9623 36.193 36.8239 36.1602 36.6864 36.1218C36.5265 36.0795 36.3666 36.0299 36.2067 35.9739C36.1916 35.9707 36.1769 35.9662 36.1627 35.9603C35.8389 35.8459 35.5238 35.708 35.22 35.5478C35.0929 35.4822 34.9706 35.415 34.8498 35.3415C34.2941 35.0057 33.7858 34.597 33.3387 34.1261C33.2531 34.0342 33.1875 33.959 33.1412 33.9055C32.7105 33.3986 32.3565 32.8313 32.0906 32.2216C32.0586 32.1472 32.029 32.0769 32.0026 32.0097C31.9882 31.9737 32.1129 32.1112 32.2425 32.256C32.3552 32.3823 32.4703 32.5134 32.4943 32.5438C33.1524 33.2986 34.2206 33.943 35.352 34.3932C35.4535 34.4356 35.5574 34.4731 35.6614 34.5123L35.8261 34.5707C36.3468 34.7528 36.8817 34.8916 37.4252 34.9857L37.7858 35.0336L47.7331 36.3593H47.7499L47.8163 36.3729C48.9712 36.6191 50.0479 37.1458 50.9512 37.9064C51.8544 38.6671 52.5567 39.6383 52.9959 40.7345C53.0094 40.7665 53.0214 40.7985 53.0334 40.8297C53.2494 41.3922 53.3923 41.9802 53.4588 42.5791C53.4591 42.5841 53.4591 42.5892 53.4588 42.5943C54.0696 42.6586 54.6695 42.8019 55.2434 43.0204L55.3394 43.0564C56.4361 43.4936 57.4085 44.194 58.1706 45.0957C58.9328 45.9975 59.4614 47.0729 59.7098 48.2272C59.7098 48.244 59.7178 48.26 59.7218 48.2776C59.7218 48.2816 59.7218 48.2887 59.7218 48.2943L61.1418 58.5943C61.1881 58.8669 61.2529 59.154 61.3305 59.441C61.408 59.7281 61.5032 60.0311 61.6135 60.3253C61.6191 60.3413 61.6247 60.3557 61.6295 60.3709C61.6623 60.4605 61.6959 60.55 61.7318 60.6388C62.186 61.7757 62.8408 62.8495 63.6012 63.5092C63.6324 63.5348 63.7611 63.6451 63.8859 63.749C64.0362 63.8842 64.1785 64.0137 64.1449 63.9993Z" fill="#FAFBFC"/>
<path d="M38.0314 36.3567L37.4261 36.2768C37.3998 36.2728 37.3726 36.2688 37.3462 36.2632L37.4261 36.276L38.0314 36.3567Z" fill="#FFCD01"/>
<path d="M60.0779 59.5702C60.0507 59.4847 60.0251 59.3975 60.002 59.3096C60.0267 59.3975 60.0515 59.4847 60.0779 59.5702Z" fill="#FFCD01"/>
<path d="M36.8563 55.5059L38.3187 56.969C38.1596 57.0862 37.9639 57.1425 37.767 57.1279C37.57 57.1132 37.3848 57.0285 37.2449 56.8891L36.937 56.5813C36.7968 56.4415 36.7115 56.256 36.6967 56.0586C36.6818 55.8612 36.7385 55.665 36.8563 55.5059Z" fill="#FFCD20"/>
<path d="M38.8722 56.3955L37.4626 54.9875L37.4458 54.9683L37.4634 54.9867L38.8722 56.3955Z" fill="#FFCD20"/>
<path d="M40.6288 59.2795C40.4698 59.3968 40.2741 59.4532 40.0771 59.4385C39.8801 59.4239 39.6948 59.3391 39.555 59.1995L39.2472 58.8917C39.1076 58.7518 39.0228 58.5666 39.0081 58.3696C38.9935 58.1726 39.0499 57.9768 39.1672 57.8179L40.6288 59.2795Z" fill="#FFCD20"/>
<path d="M48.184 57.7704L47.6243 58.3301C47.5633 58.3912 47.4909 58.4396 47.4112 58.4727C47.3315 58.5057 47.246 58.5228 47.1597 58.5228C47.0734 58.5228 46.988 58.5057 46.9083 58.4727C46.8286 58.4396 46.7562 58.3912 46.6952 58.3301L45.3287 56.9549C45.3159 56.942 45.3056 56.9268 45.2987 56.91C45.2917 56.8932 45.2881 56.8751 45.2881 56.8569C45.2881 56.8387 45.2917 56.8207 45.2987 56.8039C45.3056 56.7871 45.3159 56.7718 45.3287 56.759L48.1328 53.9541C48.1519 53.9334 48.1769 53.919 48.2045 53.9129C48.232 53.9068 48.2608 53.9093 48.2869 53.92C48.313 53.9307 48.3352 53.9491 48.3505 53.9728C48.3659 53.9965 48.3736 54.0243 48.3727 54.0525L48.3791 57.3059C48.3788 57.3924 48.3615 57.4779 48.328 57.5577C48.2945 57.6374 48.2455 57.7097 48.184 57.7704Z" fill="#FFCD20"/>
<path d="M38.3189 47.9092L37.7592 48.4689C37.6361 48.5921 37.5669 48.7592 37.5669 48.9334C37.5669 49.1076 37.6361 49.2747 37.7592 49.398L39.1288 50.7676C39.1549 50.7937 39.1903 50.8083 39.2272 50.8083C39.2641 50.8083 39.2994 50.7937 39.3255 50.7676L42.1296 47.9628C42.1503 47.9437 42.1646 47.9187 42.1707 47.8913C42.1769 47.8638 42.1745 47.8351 42.1639 47.8091C42.1533 47.783 42.135 47.7608 42.1114 47.7454C42.0879 47.73 42.0602 47.7221 42.032 47.7229L38.7786 47.7173C38.6932 47.7175 38.6085 47.7345 38.5297 47.7674C38.4508 47.8004 38.3791 47.8485 38.3189 47.9092Z" fill="#FFCD20"/>
</g>
<rect x="72" y="46" width="64" height="4" rx="2" fill="white"/>
<rect x="32" y="80" width="24" height="4" rx="2" fill="#9B9BBA"/>
<rect x="58" y="124" width="24" height="4" rx="2" fill="#9B9BBA"/>
<path d="M32 126C32 121.029 36.0294 117 41 117C45.9706 117 50 121.029 50 126C50 130.971 45.9706 135 41 135C36.0294 135 32 130.971 32 126Z" fill="#FFCD20"/>
<rect x="58" y="158" width="49" height="4" rx="2" fill="#70708E"/>
<path d="M32 160C32 155.029 36.0294 151 41 151C45.9706 151 50 155.029 50 160C50 164.971 45.9706 169 41 169C36.0294 169 32 164.971 32 160Z" fill="#70708E"/>
<rect x="58" y="192" width="38" height="4" rx="2" fill="#70708E"/>
<path d="M32 194C32 189.029 36.0294 185 41 185C45.9706 185 50 189.029 50 194C50 198.971 45.9706 203 41 203C36.0294 203 32 198.971 32 194Z" fill="#70708E"/>
<rect x="58" y="226" width="78" height="4" rx="2" fill="#70708E"/>
<path d="M32 228C32 223.029 36.0294 219 41 219C45.9706 219 50 223.029 50 228C50 232.971 45.9706 237 41 237C36.0294 237 32 232.971 32 228Z" fill="#70708E"/>
<rect x="58" y="260" width="45" height="4" rx="2" fill="#70708E"/>
<path d="M32 262C32 257.029 36.0294 253 41 253C45.9706 253 50 257.029 50 262C50 266.971 45.9706 271 41 271C36.0294 271 32 266.971 32 262Z" fill="#70708E"/>
<rect x="58" y="294" width="74" height="4" rx="2" fill="#70708E"/>
<path d="M32 296C32 291.029 36.0294 287 41 287C45.9706 287 50 291.029 50 296C50 300.971 45.9706 305 41 305C36.0294 305 32 300.971 32 296Z" fill="#70708E"/>
<rect x="58" y="328" width="71" height="4" rx="2" fill="#70708E"/>
<path d="M32 330C32 325.029 36.0294 321 41 321C45.9706 321 50 325.029 50 330C50 334.971 45.9706 339 41 339C36.0294 339 32 334.971 32 330Z" fill="#70708E"/>
<rect x="58" y="362" width="24" height="4" rx="2" fill="#70708E"/>
<path d="M32 364C32 359.029 36.0294 355 41 355C45.9706 355 50 359.029 50 364C50 368.971 45.9706 373 41 373C36.0294 373 32 368.971 32 364Z" fill="#70708E"/>
<rect x="58" y="396" width="35" height="4" rx="2" fill="#70708E"/>
<path d="M32 398C32 393.029 36.0294 389 41 389C45.9706 389 50 393.029 50 398C50 402.971 45.9706 407 41 407C36.0294 407 32 402.971 32 398Z" fill="#70708E"/>
<rect x="58" y="430" width="31" height="4" rx="2" fill="#70708E"/>
<path d="M32 432C32 427.029 36.0294 423 41 423C45.9706 423 50 427.029 50 432C50 436.971 45.9706 441 41 441C36.0294 441 32 436.971 32 432Z" fill="#70708E"/>
<rect x="58" y="464" width="53" height="4" rx="2" fill="#70708E"/>
<path d="M32 466C32 461.029 36.0294 457 41 457C45.9706 457 50 461.029 50 466C50 470.971 45.9706 475 41 475C36.0294 475 32 470.971 32 466Z" fill="#70708E"/>
<rect x="58" y="515" width="17" height="4" rx="2" fill="#70708E"/>
<path d="M32 517C32 512.029 36.0294 508 41 508C45.9706 508 50 512.029 50 517C50 521.971 45.9706 526 41 526C36.0294 526 32 521.971 32 517Z" fill="#70708E"/>
<rect x="58" y="549" width="66" height="4" rx="2" fill="#70708E"/>
<path d="M32 551C32 546.029 36.0294 542 41 542C45.9706 542 50 546.029 50 551C50 555.971 45.9706 560 41 560C36.0294 560 32 555.971 32 551Z" fill="#70708E"/>
<rect x="58" y="583" width="53" height="4" rx="2" fill="#70708E"/>
<path d="M32 585C32 580.029 36.0294 576 41 576C45.9706 576 50 580.029 50 585C50 589.971 45.9706 594 41 594C36.0294 594 32 589.971 32 585Z" fill="#70708E"/>
<rect x="58" y="617" width="78" height="4" rx="2" fill="#70708E"/>
<path d="M32 619C32 614.029 36.0294 610 41 610C45.9706 610 50 614.029 50 619C50 623.971 45.9706 628 41 628C36.0294 628 32 623.971 32 619Z" fill="#70708E"/>
<rect x="58" y="651" width="53" height="4" rx="2" fill="#70708E"/>
<path d="M32 653C32 648.029 36.0294 644 41 644C45.9706 644 50 648.029 50 653C50 657.971 45.9706 662 41 662C36.0294 662 32 657.971 32 653Z" fill="#70708E"/>
<rect y="100" width="200" height="1" rx="0.5" fill="#21212C"/>
<rect y="491" width="200" height="1" rx="0.5" fill="#21212C"/>
<rect x="32" y="99" width="24" height="1" rx="0.5" fill="#9B9BBA"/>
<rect x="72" y="80" width="24" height="4" rx="2" fill="#70708E"/>
<rect x="232" y="32" width="969" height="72" rx="8" fill="#0F0F14"/>
<rect x="232" y="120" width="969" height="336" rx="4" fill="#21212C"/>
<rect x="248" y="64" width="76" height="24" rx="3" fill="#9B9BBA"/>
<rect x="248" y="64" width="76" height="24" rx="3" fill="#9B9BBA"/>
<rect x="340" y="32" width="1" height="72" rx="0.5" fill="#21212C"/>
<rect x="997" y="32" width="1" height="72" rx="0.5" fill="#21212C"/>
<rect x="264" y="50" width="37" height="4" rx="2" fill="#70708E"/>
<rect x="248" y="48" width="8" height="8" rx="4" fill="#189A1C"/>
<rect x="357" y="67" width="46" height="18" rx="3" fill="#70708E"/>
<rect x="411" y="67" width="46" height="18" rx="3" fill="#9B9BBA"/>
<rect x="465" y="67" width="46" height="18" rx="3" fill="#BD2E37"/>
<rect x="373" y="53" width="61" height="4" rx="2" fill="#70708E"/>
<rect x="357" y="51" width="8" height="8" rx="4" fill="#70708E"/>
<rect x="466" y="53" width="20" height="4" rx="2" fill="#70708E"/>
<rect x="450" y="51" width="8" height="8" rx="4" fill="#70708E"/>
<rect x="518" y="53" width="55" height="4" rx="2" fill="#70708E"/>
<rect x="502" y="51" width="8" height="8" rx="4" fill="#70708E"/>
<rect x="605" y="53" width="47" height="4" rx="2" fill="#70708E"/>
<rect x="589" y="51" width="8" height="8" rx="4" fill="#70708E"/>
<rect x="248" y="136" width="184" height="4" rx="2" fill="#3AA2A2"/>
<rect x="248" y="148" width="312" height="4" rx="2" fill="#70708E"/>
<rect x="248" y="160" width="132" height="4" rx="2" fill="#BD2E37"/>
<rect x="248" y="172" width="339" height="4" rx="2" fill="#BD2E37"/>
<rect x="248" y="184" width="180" height="4" rx="2" fill="#70708E"/>
<rect x="248" y="196" width="139" height="4" rx="2" fill="#70708E"/>
<rect x="248" y="208" width="351" height="4" rx="2" fill="#70708E"/>
<rect x="248" y="220" width="90" height="4" rx="2" fill="#70708E"/>
<rect x="248" y="232" width="550" height="4" rx="2" fill="#189A1C"/>
<rect x="248" y="244" width="460" height="4" rx="2" fill="#189A1C"/>
<rect x="248" y="256" width="147" height="4" rx="2" fill="#70708E"/>
<rect x="248" y="268" width="210" height="4" rx="2" fill="#70708E"/>
<rect x="248" y="280" width="33" height="4" rx="2" fill="#70708E"/>
<rect x="248" y="292" width="343" height="4" rx="2" fill="#70708E"/>
<rect x="248" y="304" width="526" height="4" rx="2" fill="#70708E"/>
<rect x="248" y="316" width="193" height="4" rx="2" fill="#70708E"/>
<rect x="248" y="328" width="92" height="4" rx="2" fill="#70708E"/>
<rect x="248" y="340" width="61" height="4" rx="2" fill="#70708E"/>
<rect x="248" y="352" width="270" height="4" rx="2" fill="#BD2E37"/>
<rect x="248" y="364" width="18" height="4" rx="2" fill="#BD2E37"/>
<rect x="248" y="376" width="419" height="4" rx="2" fill="#6F3294"/>
<rect x="248" y="388" width="463" height="4" rx="2" fill="#6F3294"/>
<rect x="248" y="400" width="167" height="4" rx="2" fill="#70708E"/>
<rect x="248" y="412" width="427" height="4" rx="2" fill="#70708E"/>
<rect x="248" y="424" width="225" height="4" rx="2" fill="#70708E"/>
<rect x="248" y="436" width="100" height="4" rx="2" fill="#70708E"/>
<rect x="1139" y="59" width="46" height="18" rx="3" fill="#9B9BBA"/>
<rect x="1014" y="66" width="117" height="4" rx="2" fill="#70708E"/>
<rect x="883" y="472" width="317.667" height="336" rx="8" fill="#21212C"/>
<rect x="925" y="531" width="38" height="4" rx="2" fill="#70708E"/>
<path d="M899 533C899 528.029 903.029 524 908 524C912.971 524 917 528.029 917 533C917 537.971 912.971 542 908 542C903.029 542 899 537.971 899 533Z" fill="#70708E"/>
<rect x="925" y="565" width="78" height="4" rx="2" fill="#70708E"/>
<path d="M899 567C899 562.029 903.029 558 908 558C912.971 558 917 562.029 917 567C917 571.971 912.971 576 908 576C903.029 576 899 571.971 899 567Z" fill="#70708E"/>
<rect x="925" y="599" width="45" height="4" rx="2" fill="#70708E"/>
<path d="M899 601C899 596.029 903.029 592 908 592C912.971 592 917 596.029 917 601C917 605.971 912.971 610 908 610C903.029 610 899 605.971 899 601Z" fill="#70708E"/>
<rect x="925" y="633" width="74" height="4" rx="2" fill="#70708E"/>
<path d="M899 635C899 630.029 903.029 626 908 626C912.971 626 917 630.029 917 635C917 639.971 912.971 644 908 644C903.029 644 899 639.971 899 635Z" fill="#70708E"/>
<rect x="899" y="488" width="65" height="20" rx="3" fill="#9B9BBA"/>
<rect x="232" y="472" width="635" height="237" rx="8" fill="#21212C"/>
<mask id="mask0" mask-type="alpha" maskUnits="userSpaceOnUse" x="232" y="472" width="635" height="237">
<rect x="232" y="472" width="635" height="237" rx="8" fill="#21212C"/>
</mask>
<g mask="url(#mask0)">
<path d="M397 600.5C321.4 618.1 251.5 565.167 226 536.5V707L871.5 718.5V600.5C839.5 608.333 757.5 612.8 685.5 568C595.5 512 491.5 578.5 397 600.5Z" fill="#FFCD20" fill-opacity="0.25"/>
<path d="M397 600.5C321.4 618.1 251.5 565.167 226 536.5V707L871.5 718.5V600.5C839.5 608.333 757.5 612.8 685.5 568C595.5 512 491.5 578.5 397 600.5Z" stroke="#FFCD20" stroke-width="3"/>
<rect x="248" y="488" width="48" height="24" rx="3" fill="#9B9BBA"/>
<rect x="815" y="491" width="36" height="36" rx="3" fill="#70708E"/>
</g>
</g>
<defs>
<clipPath id="clip0">
<rect width="1233" height="694" fill="white"/>
</clipPath>
<clipPath id="clip1">
<rect width="32.1471" height="32" fill="white" transform="translate(32 32)"/>
</clipPath>
</defs>
</svg>
