<?xml version="1.0" encoding="UTF-8" standalone="no"?>
<svg
   xmlns:dc="http://purl.org/dc/elements/1.1/"
   xmlns:cc="http://creativecommons.org/ns#"
   xmlns:rdf="http://www.w3.org/1999/02/22-rdf-syntax-ns#"
   xmlns:svg="http://www.w3.org/2000/svg"
   xmlns="http://www.w3.org/2000/svg"
   xmlns:sodipodi="http://sodipodi.sourceforge.net/DTD/sodipodi-0.dtd"
   xmlns:inkscape="http://www.inkscape.org/namespaces/inkscape"
   version="1.1"
   id="svg2"
   xml:space="preserve"
   width="571.53333"
   height="574.20001"
   viewBox="0 0 571.53333 574.20001"
   sodipodi:docname="2717.eps"><metadata
     id="metadata8"><rdf:RDF><cc:Work
         rdf:about=""><dc:format>image/svg+xml</dc:format><dc:type
           rdf:resource="http://purl.org/dc/dcmitype/StillImage" /></cc:Work></rdf:RDF></metadata><defs
     id="defs6" /><sodipodi:namedview
     pagecolor="#ffffff"
     bordercolor="#666666"
     borderopacity="1"
     objecttolerance="10"
     gridtolerance="10"
     guidetolerance="10"
     inkscape:pageopacity="0"
     inkscape:pageshadow="2"
     inkscape:window-width="640"
     inkscape:window-height="480"
     id="namedview4" /><g
     id="g10"
     inkscape:groupmode="layer"
     inkscape:label="ink_ext_XXXXXX"
     transform="matrix(1.3333333,0,0,-1.3333333,0,574.2)"><g
       id="g12"
       transform="scale(0.1)"><path
         d="m 3774.41,1291.63 c 0,0 -21.37,-148.29 -40.44,-306.958 -16.18,-134.742 -28.12,-277.371 -51.25,-338.75 -50.34,-133.672 -188.85,-126.25 -188.85,-126.25 0,0 3.21,-98.93 65.1,-105 61.9,-6.07 97.03,18.137 112.5,-10 15.48,-28.141 21.29,-94.973 102.94,-93.75 83.31,1.25 105.81,93.75 165.81,65 22.82,-10.93 107.59,-58.152 128.75,-38.75 45,41.25 16.25,92 41.25,86.25 25,-5.75 50.07,-33.731 101.25,-10 51.19,23.726 75,110 75,110 0,0 -115.04,-32.09 -161.27,42.699 -46.23,74.801 -42.34,239.77 -44.98,279.801 -15,227.478 -46.22,451.248 -46.22,451.248 l -259.59,-5.54"
         style="fill:#ee243d;fill-opacity:1;fill-rule:nonzero;stroke:none"
         id="path14" /><path
         d="m 4144.45,1180.1 c -0.06,0.12 -0.16,0.17 -0.22,0.27 -7.53,21.04 -20.26,54.52 -24.83,62.39 -12.59,21.67 -54.14,69.12 -58.34,81.12 -5.63,16.09 -21.67,31.53 -48.47,30.95 -10.67,-0.23 -38.89,6.11 -51.13,11.68 -12.24,5.57 -22.54,5.57 -23.53,20.42 -0.37,5.45 -0.46,10.9 -0.44,15.62 1.83,2.12 3.32,4.11 4.16,5.62 4.57,8.13 8.72,16.27 11.76,25.05 2.46,-0.73 6.17,-1.05 8.21,2.63 3.24,5.83 11.66,18.79 6.48,25.91 -1.92,2.65 -4.02,3.36 -5.97,3.21 1.73,12.09 3.78,30.58 1.37,37.96 10.45,0.7 14.16,7.18 14.16,7.18 0,0 -7.91,-0.21 -11.84,0.95 3.93,1.16 12.07,5.8 12.07,5.8 0,0 -19.03,3.02 -44.09,18.8 -25.07,15.78 -65.33,2.06 -70.79,-1.16 -5.5,-3.25 -7.89,-10.45 -7.89,-10.45 0,0 -3.27,3.46 -7.19,5.34 2.09,-8.35 3.9,-18.56 3.9,-38.29 0,-13.09 0,-22.07 0,-26.5 -2.4,0.78 -5.23,0.64 -7.76,-2.84 -5.19,-7.12 3.24,-20.08 6.48,-25.91 2.04,-3.68 5.74,-3.36 8.21,-2.63 3,-8.68 7.1,-16.74 11.61,-24.78 0.15,-5.67 0.19,-13.55 -0.34,-21.51 -1,-14.85 -11.3,-14.85 -23.54,-20.42 -12.24,-5.57 -40.45,-11.96 -51.13,-11.68 -21.8,0.58 -40.14,-10.95 -49.75,-34.34 -4.84,-11.76 -44.47,-56.06 -57.05,-77.73 -6.34,-10.9 -16.64,-38.24 -24.63,-62.66 -33.29,-69.18 -6.04,-161.99 -2.64,-191.991 3.4,-30 37.68,-87.187 51.02,-103.859 13.33,-16.66 26.66,-5 36.66,11.672 10,16.668 2.15,52.719 0,58.328 -3.75,9.801 -44.64,14.379 -40,26.051 4.65,11.66 17.3,101.369 15.63,121.369 -0.93,11.17 -3.62,27.26 -5.81,39.29 10.94,14.22 27.31,37.83 42.76,60.32 9.51,13.85 24.29,28.63 24.29,28.63 0,0 1.05,-41.03 27.3,-90.57 11.23,-21.17 4.9,-39.93 6.25,-61.9 l 84.59,-1.86 82.76,-2.18 c 1.36,21.98 -7.77,54.83 4.39,75.48 21.59,36.67 30.98,81.03 30.98,81.03 0,0 14.78,-14.78 24.29,-28.63 14.1,-20.52 33.82,-42.66 44.23,-54.7 -2.29,-12.16 -5.76,-31.87 -6.85,-44.91 -1.67,-20 10.98,-109.709 15.62,-121.369 4.65,-11.672 -36.25,-16.25 -40,-26.051 -2.14,-5.609 -10,-41.66 0,-58.328 10,-16.672 23.34,-28.332 36.67,-11.672 13.33,16.672 47.62,73.859 51.02,103.859 3.4,30.001 30.65,122.811 -2.64,191.991"
         style="fill:#1e1c1b;fill-opacity:1;fill-rule:nonzero;stroke:none"
         id="path16" /><path
         d="m 3905.33,607.59 c -0.41,-3.07 -0.73,-6.391 -1,-9.84 -0.27,3.449 -0.59,6.77 -1.01,9.84 -4.76,35.152 -20.22,55.832 -17.57,87.101 2.21,26.141 17.69,238.731 17.69,238.731 0,0 18.04,-221.863 19.46,-238.731 2.65,-31.269 -12.8,-51.949 -17.57,-87.101 z m 81.14,460 -168.99,-7.81 c -6.32,-6.65 -47.33,-94.26 -42.71,-183.62 4.62,-89.359 31.79,-148.699 37.79,-177.98 6,-29.27 5.42,-48.66 3.88,-96.43 -1.54,-47.758 20.38,-153.75 30.62,-190.828 6.53,-23.66 -21.78,-57.012 -30.45,-81.672 -8.66,-24.648 -0.26,-65.5 22.2,-71.66 22.46,-6.168 36.72,13.922 47.63,45 12.87,36.66 -1.88,59.082 3.33,101.66 0.83,6.832 11.46,77.531 14.56,138.879 3.09,-61.348 13.72,-132.047 14.55,-138.879 5.21,-42.578 -9.53,-65 3.34,-101.66 10.9,-31.078 25.16,-51.168 47.62,-45 22.47,6.16 30.86,47.012 22.2,71.66 -8.66,24.66 -36.98,58.012 -30.44,81.672 10.23,37.078 32.16,143.07 30.62,190.828 -1.54,47.77 -2.13,67.16 3.87,96.43 6,29.281 33.17,88.621 37.79,177.98 1.59,30.641 -13.14,111.211 -14.2,114.699 -9.91,32.601 -30.53,73.911 -33.21,76.731"
         style="fill:#1e1c1b;fill-opacity:1;fill-rule:nonzero;stroke:none"
         id="path18" /><path
         d="m 3907.76,1083.09 c -45.35,0.33 -88.16,14.07 -88.16,14.07 l -2.12,-37.38 c 0,0 38.61,-14.42 90.28,-14.64 51.67,0.22 83.37,15.08 83.37,15.08 l -5.62,41.44 c 0,0 -32.4,-18.24 -77.75,-18.57"
         style="fill:#4abbd2;fill-opacity:1;fill-rule:nonzero;stroke:none"
         id="path20" /><path
         d="m 3947.26,1374.81 c -2.62,-5.99 -4.54,-32.49 15.61,-39.3 12.49,-4.22 33.99,3.69 38.69,21.28 1.52,5.72 -13.4,7.31 -27.89,13.24 -12.79,5.23 -24.76,8.54 -26.41,4.78"
         style="fill:#ee243d;fill-opacity:1;fill-rule:nonzero;stroke:none"
         id="path22" /><path
         d="m 3866.08,1374.81 c 2.62,-5.99 4.54,-32.49 -15.6,-39.3 -12.5,-4.22 -33.99,3.69 -38.69,21.28 -1.53,5.72 13.39,7.31 27.88,13.24 12.79,5.23 24.76,8.54 26.41,4.78"
         style="fill:#ee243d;fill-opacity:1;fill-rule:nonzero;stroke:none"
         id="path24" /><path
         d="m 2980.81,759.859 c 0,0 -78.18,-116.058 -119.48,-211.23 -41.29,-95.16 -146.61,-221.41 -146.42,-297.481 0.13,-49.207 54.34,-83.867 54.34,-83.867 0,0 -8.15,100.27 46.18,89.489 54.34,-10.778 52.19,-97.36 121.37,-79.399 69.19,17.969 95.64,87.969 125.63,47.969 30,-40 44.85,-34.719 71.73,-57.258 36.99,-31.031 103.03,2.41 126.82,38.25 49.13,73.988 27.17,513.117 27.17,513.117 l -307.34,40.41"
         style="fill:#4abbd2;fill-opacity:1;fill-rule:nonzero;stroke:none"
         id="path26" /><path
         d="m 3458.16,832.531 c -1.04,6.578 -6.88,10.969 -10.32,16.981 -2.13,3.707 -1.89,14.109 -5.23,17.289 -7.04,6.691 -16.59,4.519 -24.66,16.258 -6.79,9.89 -25.81,4.511 -37.98,-0.207 -29.82,-11.551 -62.58,-38.633 -57.11,-59.25 1.43,-5.383 9.51,-11.95 9.51,-11.95 0,0 -2.03,-10.023 2.42,-18.812 0.69,-1.371 2.25,-2.348 4.05,-3.078 -14.42,-9.293 -34.59,-21.93 -49.62,-29.942 -52.69,2.039 -92.6,4.942 -99.75,3.86 -13.19,-2 -99.65,10.039 -99.65,10.039 0,0 -78.43,-4.52 -118.88,-0.66 0.41,0.39 0.71,0.66 0.71,0.66 v 14.051 c 0,0 11.56,0.48 13.88,5.07 4.45,8.789 2.42,18.812 2.42,18.812 0,0 8.08,6.567 9.5,11.95 5.48,20.617 -27.28,47.699 -57.1,59.25 -12.17,4.718 -31.19,10.097 -37.98,0.207 -8.07,-11.739 -17.62,-9.567 -24.66,-16.258 -3.34,-3.18 -3.1,-13.582 -5.23,-17.289 -3.44,-6.012 -9.28,-10.403 -10.32,-16.981 -2.16,-13.679 0.36,-24.832 2.45,-32.551 3.81,-37.628 6.17,-56.371 37.95,-102.589 14.49,-21.071 47.8,-42.082 78.59,-56.25 4.05,-44.93 16.64,-99.879 23.28,-133.039 -7.79,-15.243 -21.12,-42.86 -35.05,-78.911 -21.73,-56.242 7.25,-103.339 0,-135.941 -7.24,-32.59 -29.37,-53.719 -27.17,-95.07 1.05,-19.508 4.67,-55.719 5.44,-86.032 0.67,-26.6675 -10.13,-39.3863 -16.3,-64.2964 -3.98,-16.043 3.51,-38.57035 14.49,-43.47269 10.98,-4.898441 25.46,7.83199 26.71,31.55079 0.95,18.0312 8.56,60.9414 12.45,81.4683 6.35,33.473 9.74,41.891 9.74,41.891 0,0 1.81,-35.367 -2.72,-70.6874 -4.14,-32.3321 2.72,-49.961 16.73,-62.4805 7.35,-6.582 23.12,0.8984 28.25,16.3203 5.13,15.418 -3.41,45.3086 0.22,76.5586 5.32,45.879 28.47,106.34 64.38,148.91 23.31,27.629 69.38,132 89.63,210.449 16.56,17.52 24.81,38.231 31.49,53.973 8,18.879 34.27,76.75 34.27,76.75 0,0 67.38,21.348 96.36,53.809 26.8,30.011 59.73,80.98 64.54,88.488 16.68,13.953 34.05,32.902 35.97,41.641 1.52,6.91 7.23,20.91 4.3,39.511"
         style="fill:#1e1c1b;fill-opacity:1;fill-rule:nonzero;stroke:none"
         id="path28" /><path
         d="m 3085.07,725.559 c -11.6,21.023 -9.31,46.933 -34.3,57.023 -20.69,8.348 -50.82,5.957 -65.56,-10.512 10.89,-1.34 22.16,-2.019 30.92,-7.449 2,-1.242 17.35,-11.961 22.15,-20.402 9.54,-16.778 53.04,-29.969 46.79,-18.66"
         style="fill:#4abbd2;fill-opacity:1;fill-rule:nonzero;stroke:none"
         id="path30" /><path
         d="m 3283.03,760.07 c -25.79,21.68 -60.97,16.84 -87.25,6.239 -2.38,-16.637 -18.02,-37.68 -22.27,-41.047 -9.85,-7.813 13.71,-8.34 22.69,-2.532 15.08,9.77 27.5,25 39.74,30.059 13.44,5.551 35.91,-0.738 47.09,7.281"
         style="fill:#4abbd2;fill-opacity:1;fill-rule:nonzero;stroke:none"
         id="path32" /><path
         d="m 3207.83,858.43 c 4.84,1.429 14.89,7.16 14.89,7.16 0,0 -23.47,3.719 -54.39,23.18 -30.91,19.46 -80.56,2.539 -87.29,-1.43 -6.79,-4.008 -9.73,-12.879 -9.73,-12.879 0,0 -4.03,4.269 -8.88,6.578 2.58,-10.297 4.81,-22.898 4.81,-47.219 0,-16.14 0,-27.218 0,-32.691 -2.95,0.973 -6.44,0.801 -9.57,-3.488 -6.39,-8.789 4,-24.77 7.99,-31.969 2.52,-4.531 7.09,-4.141 10.13,-3.231 3.75,-10.832 8.87,-20.882 14.5,-30.902 4.86,-8.648 24.36,-29 43.87,-29.008 19.5,0 39,20.36 43.86,29.008 5.64,10.02 10.76,20.07 14.5,30.902 3.04,-0.91 7.61,-1.3 10.13,3.231 4,7.199 14.38,23.18 7.99,31.969 -2.37,3.257 -4.96,4.14 -7.37,3.961 2.14,14.898 4.68,37.699 1.7,46.808 12.88,0.86 17.46,8.852 17.46,8.852 0,0 -9.76,-0.262 -14.6,1.168"
         style="fill:#1e1c1b;fill-opacity:1;fill-rule:nonzero;stroke:none"
         id="path34" /><path
         d="m 2998.06,495.309 c 0,0 25.09,-38.739 87.69,-47.188 67.24,-9.082 102.1,17.719 102.1,17.719 l 13.27,24.59 c 0,0 -67.16,-25.18 -108.14,-16.891 -55.95,11.32 -88.55,34.57 -88.55,34.57 l -6.37,-12.8"
         style="fill:#f68213;fill-opacity:1;fill-rule:nonzero;stroke:none"
         id="path36" /><path
         d="m 2013.87,931.898 c 0,0 -62.5,-255.007 -105,-308.757 -42.5,-53.743 -120,-220.75 -122.5,-303.493 -2.5,-82.75 62.5,-111.359 62.5,-111.359 0,0 13.71,111.031 42.16,121.961 28.45,10.93 96.85,9.148 185.73,-10.602 65.88,-14.648 57.83,124.872 104.59,132.372 46.75,7.5 63.49,-115.008 177.52,-115.008 77.5,0 120,69.886 120,69.886 0,0 -149.93,-25 -125,120.383 5.82,33.969 -31.85,235.149 -48.43,284.879 -16.57,49.738 -26.57,137.238 -36.57,137.238 -10,0 -255,-17.5 -255,-17.5"
         style="fill:#ee243d;fill-opacity:1;fill-rule:nonzero;stroke:none"
         id="path38" /><path
         d="m 2589.78,656.898 c -20.06,10.493 -49.13,28.844 -77.47,49.454 -23.49,17.097 -70.5,81.488 -113.15,114.296 -48.75,37.5 -54.46,55.383 -67.5,85 -10.1,22.934 -38.63,55.481 -43.46,67.243 -8.62,20.961 -31.2,35.679 -52.64,34.339 -10.66,-0.66 -38.89,6.1 -51.13,11.67 -12.24,5.57 -22.54,5.57 -23.53,20.43 -0.37,5.45 -0.46,10.89 -0.44,15.61 1.83,2.13 3.31,4.12 4.16,5.63 4.57,8.13 8.72,16.27 11.76,25.05 2.46,-0.73 6.17,-1.05 8.21,2.63 3.24,5.83 11.66,18.78 6.48,25.91 -1.92,2.65 -4.03,3.36 -5.98,3.21 1.74,12.09 3.79,30.58 1.38,37.96 10.45,0.7 14.16,7.18 14.16,7.18 0,0 -7.91,-0.22 -11.84,0.95 3.93,1.16 12.07,5.8 12.07,5.8 0,0 -19.03,3.01 -44.09,18.8 -25.07,15.78 -65.33,2.06 -70.79,-1.16 -5.51,-3.25 -7.89,-10.45 -7.89,-10.45 0,0 -3.27,3.46 -7.19,5.34 2.08,-8.36 3.9,-18.57 3.9,-38.29 0,-13.09 0,-22.07 0,-26.51 -2.4,0.79 -5.23,0.65 -7.76,-2.83 -5.19,-7.13 3.24,-20.08 6.48,-25.91 2.04,-3.68 5.74,-3.36 8.21,-2.63 3,-8.68 7.1,-16.74 11.61,-24.78 0.15,-5.67 0.19,-13.55 -0.35,-21.51 -0.99,-14.86 -11.29,-14.86 -23.53,-20.43 -12.24,-5.57 -40.46,-11.95 -51.13,-11.67 -21.8,0.58 -40.14,-10.949 -49.75,-34.339 -4.84,-11.762 -33.37,-44.309 -43.46,-67.243 -13.05,-29.617 -18.75,-47.5 -67.5,-85 -42.66,-32.808 -89.67,-97.199 -113.16,-114.296 -28.33,-20.61 -57.41,-38.961 -77.47,-49.454 -27.5,-14.378 -8.47,-33.128 23.13,-33.75 16.48,-0.328 39.43,12.672 55.08,25.051 1.42,-4.82 3.26,-10.117 5.54,-14.429 5.63,-10.622 17.64,-6.278 17.64,-6.278 0,0 -2.01,5.028 -3.89,13.469 -1.87,8.437 -3.12,23.437 -3.12,23.437 7.5,12.5 26.47,25.051 55.62,39.372 28.89,14.199 75.63,41.878 98.13,66.878 22.5,25 93.69,111.653 93.69,111.653 0,0 1.05,-41.02 27.3,-90.559 11.23,-21.183 4.89,-39.933 6.25,-61.91 l 4,-0.082 c -6.71,-21.781 -19.11,-59.102 -37.27,-102.41 -28.91,-68.918 -41.6,-106.281 -48.24,-146.828 -4.13,-25.172 -6.1,-57.86 -17.14,-93.114 -6.74,-21.507 -21.95,-37.808 -33.82,-65.589 -20.01,-46.848 -33.57,-148.567 -35.97,-185.68 -2.01,-31.129 -18.58,-48.9571 -27.8,-61.0782 -11.36,-14.9219 -13.62,-52.9922 -5.37,-60.3594 13,-11.62109 24.38,-22.03124 46.66,-7.78906 22.28,14.23826 24.22,73.31646 24.92,79.52736 1.45,12.8398 -1.66,29.7693 5,41.8593 10.4,18.859 62.8,101.07 80.96,174.141 10.55,42.449 18.44,70.871 26.89,83.422 24.12,35.839 82.97,126.199 101.77,166.046 0.37,0.801 0.61,1.524 0.97,2.313 12.44,-5.969 26.7,-12.879 40.71,-19.813 v 0 c -22.83,-5.089 -24.95,-24.046 -12.26,-75 2.73,-10.976 -6.91,-53.519 12.26,-90 10.08,-19.187 37.32,-16.277 56,12.5 12.99,20 -14.23,46.723 0,62.5 14.24,15.774 79.38,1.704 109.24,-2.238 66.25,-8.75 88.33,36.41 88.33,36.41 6.67,13.328 -11.97,83.328 -45.99,113.328 -34.01,30 -162.11,120.723 -162.11,120.723 0,0 -50.93,-4.48 -87.42,-8.012 0.21,7.801 0.17,15.59 0.07,23.371 l 0.2,-0.011 82.76,-2.168 c 1.36,21.969 -7.77,54.82 4.39,75.48 21.59,36.66 30.98,81.02 30.98,81.02 0,0 78.82,-91.922 96.58,-111.653 22.5,-25 69.23,-52.679 98.12,-66.878 29.16,-14.321 48.13,-26.872 55.63,-39.372 0,0 -1.25,-15 -3.13,-23.437 -1.87,-8.441 -3.88,-13.469 -3.88,-13.469 0,0 12.01,-4.344 17.63,6.278 2.28,4.312 4.13,9.609 5.55,14.429 15.64,-12.379 38.6,-25.379 55.08,-25.051 31.6,0.622 50.62,19.372 23.12,33.75"
         style="fill:#1e1c1b;fill-opacity:1;fill-rule:nonzero;stroke:none"
         id="path40" /><path
         d="m 2130.73,735.492 c -45.35,0.328 -88.16,14.067 -88.16,14.067 l -2.12,-37.379 c 0,0 38.61,-14.418 90.28,-14.649 51.67,0.231 83.37,15.09 83.37,15.09 l -5.62,41.438 c 0,0 -32.4,-18.239 -77.75,-18.567"
         style="fill:#f68213;fill-opacity:1;fill-rule:nonzero;stroke:none"
         id="path42" /><path
         d="m 2170.23,1027.21 c -2.62,-5.99 -4.54,-32.491 15.61,-39.3 12.49,-4.219 33.99,3.692 38.69,21.28 1.52,5.71 -13.4,7.31 -27.89,13.24 -12.79,5.23 -24.76,8.54 -26.41,4.78"
         style="fill:#ee243d;fill-opacity:1;fill-rule:nonzero;stroke:none"
         id="path44" /><path
         d="m 2089.05,1027.21 c 2.62,-5.99 4.54,-32.491 -15.61,-39.3 -12.49,-4.219 -33.99,3.692 -38.69,21.28 -1.52,5.71 13.4,7.31 27.89,13.24 12.79,5.23 24.76,8.54 26.41,4.78"
         style="fill:#ee243d;fill-opacity:1;fill-rule:nonzero;stroke:none"
         id="path46" /><path
         d="m 591.184,614.02 c 0,0 77.379,25.101 150,-11.899 72.621,-36.992 140.234,-145.699 188.027,-185.98 78.749,-66.36 124.299,47.289 124.299,47.289 0,0 42.56,-61.418 17.09,-101.828 -32.09,-50.883 -65.18,-29.223 -70.14,-89.34 -3.894,-47.192 -10.28,-68.832 -36.948,-87.121 -25.949,-17.789 -67.328,-17.27 -127.328,0 -60,17.281 -102.012,-49.379 -136.25,-65.352 -37.5,-17.5 -96.25,-38.6171 -157.696,17.141 -62.683,56.879 -102.289,18.472 -129.086,0.492 -54.468,-36.551 -108.218,22.5 -108.218,22.5 0,0 56.879,-14.762 86.875,77.5 29.996,92.258 0,212.5 0,212.5 l 191.043,72.73 8.332,91.368"
         style="fill:#f68213;fill-opacity:1;fill-rule:nonzero;stroke:none"
         id="path48" /><path
         d="m 1124.93,77.4219 c -18.26,31.6681 -84.85,51.8981 -114.13,62.5581 -29.28,10.672 -64.616,49.942 -108.366,61.821 -33.536,9.097 -58.692,3.73 -107.5,46.25 -17.934,15.621 -51.899,44.14 -59.649,49.808 -27.797,22.153 -54.305,38.52 -59.101,46.231 -17.329,27.851 -10.832,103.332 -27.5,153.332 4.843,1.168 64.64,-8.43 102.5,-10.832 37.859,-2.399 115,20.832 115,20.832 0,0 15.519,-11.75 29.168,-30 30.757,-41.121 60.687,20.508 55.832,32.5 -4.856,12 -49.332,23.289 -68.75,29.988 -19.418,6.711 -87.832,22.172 -132.5,12.961 -13.996,-2.879 -71.532,18.57 -120.418,24.551 -40.832,5 -66.11,-10.363 -91.618,-16.133 v 0 c -5.453,18.609 -1.8,40.93 -1.8,40.93 0,0 -76.95,-17.809 -75.7,-21.559 0.786,-2.359 2.993,-22.23 3.008,-38.691 -7.625,-2.59 -17.746,-6.68 -29.074,-13.137 -22.16,-12.621 -59.809,-37.703 -79.477,-73.383 C 326.082,403.262 324.617,381.031 304.141,349.77 287.34,324.121 258.078,290.262 244.414,247.91 230.746,205.559 216.801,160.18 205.313,144.281 198.887,135.391 147.324,88.9609 117.59,67.3711 99.3633,54.1289 124.699,51.0195 135.793,48.1719 c 16.035,-4.1133 51.48,18.4883 68.57,22.1992 24.879,5.3984 39.95,-29.7422 60.629,-23.75 20.676,6 -4.597,6 -16.082,30.9805 -6.461,14.0507 -10.469,38.4684 -0.855,52.7504 18.691,27.769 85.558,83.968 95.828,148.949 4.687,29.66 32.89,49.441 59.515,75.379 20.829,20.3 33.004,60.511 36.411,63.582 2.425,-32.992 39.859,-57.364 57.039,-71.981 21.304,-18.121 31.691,-34.89 33.367,-38.019 0,0 -86.555,-116.153 -108.199,-143.34 -21.641,-27.192 -34.012,-62.352 -29.539,-85.7618 6.324,-33.0977 23.601,-21.9493 47.875,-23.3985 4.738,-0.2929 10.933,1.0781 17.945,3.5274 9.371,0.5898 21.527,2.3398 37.465,6.1914 55.281,13.3398 150.593,58.6095 150.593,58.6095 0,0 -2.382,-31.4494 -13.828,-43.84 -4.476,-4.8398 -6.187,-24.9883 12.875,-25.7305 19.063,-0.75 41.461,2.8594 43.368,25.7305 1.906,22.879 6.847,54.102 9.531,65.289 5.719,23.832 -3.278,45.391 -31.93,38.203 -9.027,-2.273 -28.238,-11.64 -49.086,-14.851 -9.933,-1.532 -19.711,-2.512 -28.375,-3.141 13.492,18.121 27.219,36.781 36.668,48.969 33.793,-9.727 140.363,-40.617 171.231,-57.918 19.933,-11.18 100.625,-37.5 138.75,-45 12.32,-2.43 79.231,-27.1604 86.251,-31.2502 15,-8.75 34.33,-34.1797 61.87,-36.8789 27.55,-2.6914 59.52,2.0781 41.25,33.75"
         style="fill:#1e1c1b;fill-opacity:1;fill-rule:nonzero;stroke:none"
         id="path50" /><path
         d="m 465.008,542.531 c 0,0 3.051,-16.98 8.676,-30.73 5.625,-13.75 12.5,-27.672 0,-30.711 -12.5,-3.039 -33.039,6.879 -44.164,22.441 -11.129,15.559 -16.461,17.641 -12.086,32.641 4.375,15 39.765,30.629 41.132,30.629 1.368,0 6.442,-24.27 6.442,-24.27"
         style="fill:#f68213;fill-opacity:1;fill-rule:nonzero;stroke:none"
         id="path52" /><path
         d="m 530.215,559.48 c 3.144,18.469 5.969,54.821 75.078,58.059 60.516,2.852 -6.879,-45.23 -14.109,-56.25 -10.403,-15.867 -23.825,-58.828 -40,-64.488 -14.371,-5.031 -28.657,17.558 -20.969,62.679"
         style="fill:#f68213;fill-opacity:1;fill-rule:nonzero;stroke:none"
         id="path54" /><path
         d="m 541.121,654.781 c 0,0 -2.879,-54.511 -8.676,-74.883 -3.332,-11.718 -25.57,-35.617 -52.511,-39.726 -22.848,-3.481 -47.442,29.297 -51.141,40.82 -6.051,18.84 -5.949,61.84 -9.93,75.508 -19.636,1.82 -27.054,21.23 -27.054,21.23 0,0 22.449,-4.66 28.082,0 -10.981,5.149 -16.782,19.18 -16.782,19.18 0,0 19.176,-4.109 35.309,1.86 5.055,2.851 11.875,5.761 21.426,8.66 34.199,10.41 81.359,-15.2 81.359,-15.2 l -0.082,-37.449"
         style="fill:#1e1c1b;fill-opacity:1;fill-rule:nonzero;stroke:none"
         id="path56" /><path
         d="m 536.098,638.75 c 0,0 11.031,9.59 16.511,-1.828 5.477,-11.41 -3.269,-32.422 -16.511,-34.703 -13.243,-2.278 0,36.531 0,36.531"
         style="fill:#1e1c1b;fill-opacity:1;fill-rule:nonzero;stroke:none"
         id="path58" /><path
         d="m 525.059,316.172 -3.844,-19.981 c 0,0 43.965,-29.421 89.797,-16.089 45.836,13.328 80.816,50.187 80.816,50.187 l -17.644,17.652 c 0,0 -35.489,-36.171 -67.664,-42.011 -32.172,-5.828 -81.461,10.242 -81.461,10.242"
         style="fill:#4abbd2;fill-opacity:1;fill-rule:nonzero;stroke:none"
         id="path60" /><path
         d="m 3835.11,2479.88 c 0,0 -72.5,-90.4 -261.25,-140.4 -74.13,-19.63 -340,-30 -340,-30 0,0 -36.25,-95 -11.54,-96.68 64.29,-4.38 110.05,-50.2 60.29,-80.82 -49.76,-30.62 -45.92,-71.41 -5,-80 40.92,-8.59 51.77,-13.91 56.25,-47.5 4.48,-33.59 -14.48,-81.25 30,-101.25 44.48,-20 81.25,1.25 81.25,1.25 0,0 -64.84,47.5 -7.5,90 63.13,46.8 178.31,5.59 219.77,45.29 41.46,39.71 345.97,214.72 361.22,261.59 15.26,46.87 28.68,140.49 28.68,140.49 l -212.17,38.03"
         style="fill:#f68213;fill-opacity:1;fill-rule:nonzero;stroke:none"
         id="path62" /><path
         d="m 4225.11,2333.23 c -33.18,55.12 -56.04,122.75 -75,138.75 -18.75,51.25 -47.21,49.91 -69.17,55.85 -12.09,3.27 -31.42,4.95 -52.99,5.68 -3.84,6.02 -9.67,16.16 -12.65,26.34 -3.27,11.15 -3.25,23.54 -2.73,31.75 0.48,2.96 0.93,6.09 1.36,9.34 12.99,2.67 21.5,23.26 16.08,34.55 -3.32,6.91 -8.64,6.1 -12.35,4.41 0.58,8.04 0.86,13.45 0.86,13.45 l 0.08,37.44 c 0,0 -47.16,25.61 -81.36,15.21 -9.55,-2.91 -16.37,-5.82 -21.42,-8.66 -16.13,-5.98 -35.31,-1.87 -35.31,-1.87 0,0 5.8,-14.03 16.78,-19.18 -5.63,-4.65 -28.08,0 -28.08,0 0,0 7.42,-19.4 27.05,-21.23 3.98,-13.66 3.88,-56.66 9.93,-75.51 2.81,-8.73 17.64,-29.67 34.6,-37.77 0.03,-3.15 -0.03,-6.18 -0.19,-8.99 -23.02,-0.86 -39.24,-1.89 -39.24,-1.89 -18.89,6.14 -50,7.58 -80,-28.81 -25.52,-30.95 -35.76,-86.36 -69.13,-101.36 -33.37,-15 -52.72,-30.73 -94.85,-72.5 -21.95,-21.76 -29.77,-48.68 -43.52,-75 -12.65,-24.2 -23.29,-51.98 -25,-63.75 -3.57,-24.57 -1.35,-49.86 16.82,-53.75 9.55,-2.04 35.64,4.93 45.31,23.75 8.75,17.03 1.67,56.67 0,68.75 -3.52,25.43 79.78,76.88 117.87,96.25 60,30.52 111.25,102.5 111.25,102.5 0,0 38.75,-50.06 33.75,-86.9 -3.57,-26.33 -39.56,-63.52 -59.82,-82.61 -8.1,-7.63 -60.14,-29.69 -101.81,-87 -30.78,-42.31 -71.7,-109.3 -68.37,-159.1 3.33,-49.8 26.74,-53.14 68.37,-49.8 26.04,2.08 65.27,35.67 91,60.54 -2.91,-44.6 3.62,-80.81 0.63,-97.6 -6.67,-37.4 -24.17,-98.31 -37.5,-118.78 -13.33,-20.47 -62.5,-114.52 -75.83,-146.01 -13.34,-31.49 -90.61,-104.72 -94.82,-125.36 -5.6,-27.38 2.54,-51.31 29.4,-36.13 13.36,7.55 36.3,23.98 53.75,41.25 17.63,17.46 38.75,13.75 55,32.66 11.17,13 0,44.59 16.67,68.68 16.66,24.08 64.44,69.96 97.22,118.68 14.41,21.44 6.58,74.01 71.11,165.01 70,98.72 88.47,204.35 88.42,243.62 0,0 36.33,103.75 55.31,172.07 17.01,-19.79 57.83,-38.38 75.02,-61.97 27.14,-62.17 24.99,-148.08 31.65,-169.13 6.67,-21.04 -13.43,-33.68 -20.4,-70.87 -7.5,-40 38.1,-50.34 61.43,-33.87 13.23,9.34 13.23,37.4 11.07,73.87 -1.65,27.86 4.95,68.17 7.16,92.24 2.7,29.3 -3.89,97.11 -43.41,162.76"
         style="fill:#1e1c1b;fill-opacity:1;fill-rule:nonzero;stroke:none"
         id="path64" /><path
         d="m 3880.11,2534.27 c 0,0 19.37,-32.18 42.5,-32.18 16.29,0 18,18.58 18,36.39 -12.37,8.56 -35.5,21.04 -60.5,-4.21"
         style="fill:#f68213;fill-opacity:1;fill-rule:nonzero;stroke:none"
         id="path66" /><path
         d="m 4020.31,2547.15 c 0,0 -23.14,-34.94 -6.45,-48.29 17.96,-14.38 54.37,13.12 64.43,29.61 -5.06,10.01 -17.17,32.01 -57.98,18.68"
         style="fill:#f68213;fill-opacity:1;fill-rule:nonzero;stroke:none"
         id="path68" /><path
         d="m 2816.61,1811.93 c 0,0 -196.3,-135.83 -271.26,-160.23 -74.95,-24.4 -195.85,-5.89 -255.39,1.63 -40.35,5.09 -119.57,13.7 -161.05,-22.91 -41.48,-36.6 -49.61,-55.99 -49.61,-55.99 0,0 85.4,15.45 121.19,-18.71 26.47,-25.27 5.69,-81.34 34.97,-86.22 29.28,-4.88 80.53,34.17 90.29,21.97 9.76,-12.2 4.88,-42.55 34.16,-36.61 12.19,2.48 64.38,7.66 100.04,-0.15 103.3,-22.62 228.1,22.11 316.58,114.84 88.48,92.72 132.4,212.84 132.4,212.84 l -92.32,29.54"
         style="fill:#4abbd2;fill-opacity:1;fill-rule:nonzero;stroke:none"
         id="path70" /><path
         d="m 2879.55,1264.59 c -33.21,-3.64 -78.82,-13.24 -94.98,-13.24 -8.99,0 -17.58,7.88 -26.46,14.01 16.83,38.95 40.31,92.43 59.92,127.35 29.4,-56.59 105.26,-129.85 105.26,-129.85 0,0 -21.34,4.19 -43.74,1.73 z m 268.73,296.83 c -1.27,29.36 -7.94,55.1 -9.98,62.62 -4.91,18.06 -69.11,122.63 -103.02,149.75 -5.26,4.21 -17.45,9.96 -28.31,14.65 -4.21,26.53 4.68,48.49 8.34,53.98 5.18,7.81 26.13,0.6 35.41,0.02 20,-1.25 9.9,20.62 17.06,24.2 4.67,2.34 1.13,4.42 -0.47,6.76 0.58,1.82 4.21,3.25 4.78,4.85 1.39,3.91 -3.02,4.68 -2.7,6.65 0.81,4.94 14.23,7.05 12.28,11.96 -3.38,8.51 -21.26,23.47 -19.92,29.54 2.73,12.26 1.63,21.06 -2.77,31.58 -0.48,1.17 -0.96,2.23 -1.44,3.28 v -0.01 c 14.43,33.69 -22.32,41.95 -49.06,40.23 -47.48,-3.05 -59.19,-25.53 -59.19,-25.53 0,0 -19.58,-15.84 -11.4,-59.21 4.1,-21.74 2.83,-21.71 10.33,-50.55 -0.58,-12.98 -6.19,-27.56 -15.41,-44.99 -9.73,8.7 -22.76,17.71 -49.1,19.54 -46.72,3.26 -80.24,-9.72 -94.74,-13.74 -19.13,-5.31 -91.42,-20.72 -111.42,-29.21 -16.23,-6.89 -16.9,-20.01 -32.53,-43.11 -19.45,-28.73 -37.48,-129.76 -46.22,-147.1 -8.74,-17.34 -20.26,-48.5 -1.25,-63.54 21.25,-16.81 49.32,2.13 62.04,27.76 5.46,10.99 2.15,30.04 1.71,40.99 -0.74,18.73 -4.35,33.38 3.5,45.02 25.7,38.14 44.61,72.48 44.61,72.48 l 109.52,12.63 c 0,0 -6.38,-68.88 -2.78,-109.44 0.92,-10.43 6.04,-42.68 -14.51,-56.81 -14.05,-10.6 -52.99,-39.28 -79.5,-87.21 -48.31,-87.31 -47.23,-195.51 -55.37,-226.21 -8.14,-30.7 -32.74,-34.19 -46.05,-82.45 -15.35,-55.69 -3.49,-141.81 -36.36,-189.39 -11.45,-16.57 -28.1,-29.769 14.87,-69.68 3.56,-3.3 9.52,-32.218 26.87,-51.421 7.82,-8.657 20.13,-7.008 31.46,-7.668 12.08,-0.7 27.83,0.55 35.3,6.91 15.35,13.039 -14.56,21.39 -26.86,46.039 -11.17,22.41 -16.08,58.851 -15.35,76.75 1.51,36.8 35.93,110.91 60.38,167.84 6.79,15.82 15.07,33.77 21.27,47.08 55.14,-4.51 136.76,-14.58 155.3,-16.34 36.42,-3.46 108.38,-4.61 119.31,23.6 10.08,25.98 -2.89,60.43 -24.33,124.9 -15.89,47.76 -46.62,131.8 -58.94,167.49 0,0 43.98,58.61 57.34,79.04 12.31,18.83 45.54,77.62 45.54,77.62 0,0 12.32,-15.32 28.92,-39.47 11.66,-16.99 29.99,-23.64 30.8,-45.6 0.71,-19.09 12.75,-56.29 20.34,-104.93 1.65,-10.58 -26.91,-20.09 -32.54,-28.47 -5.62,-8.38 -2.44,-56.12 26.03,-55.3 19.04,0.54 51.24,39.07 48.04,66.4 -1.86,15.94 1.95,64.15 0.17,105.22"
         style="fill:#1e1c1b;fill-opacity:1;fill-rule:nonzero;stroke:none"
         id="path72" /><path
         d="m 2910.96,1831.86 c 11.74,-6.69 24.81,-17.71 29.69,-49.12 4.88,-31.4 21.06,-14.61 22.77,10.48 1.17,17.08 -4.99,40.67 -21.55,51.65 -16.56,10.98 -58.16,-4.13 -58.16,-4.13 0,0 19.56,-4.5 27.25,-8.88"
         style="fill:#4abbd2;fill-opacity:1;fill-rule:nonzero;stroke:none"
         id="path74" /><path
         d="m 3005.43,1791.15 c 0.88,-6.92 0.24,-19.73 -2.06,-28.49 -2.67,-10.12 3.66,-15.22 12.84,-4.07 9.18,11.15 16.59,13.58 13.44,28.86 -2.93,14.25 -23.75,24.48 -23.75,24.48 0,0 -1.77,-10.64 -0.47,-20.78"
         style="fill:#4abbd2;fill-opacity:1;fill-rule:nonzero;stroke:none"
         id="path76" /><path
         d="m 2801.64,1576.67 c 0,0 42.82,-53.98 82.07,-69.76 39.26,-15.79 44.63,-13.45 44.63,-13.45 l 4.25,25.44 c 0,0 -25.45,1.65 -44.62,16.1 -19.17,14.46 -74.62,56.64 -74.62,56.64 l -11.71,-14.97"
         style="fill:#ee243d;fill-opacity:1;fill-rule:nonzero;stroke:none"
         id="path78" /><path
         d="m 1468.7,1443.54 c -20.97,7.43 -75.15,18.44 -140.28,-10.39 -65.13,-28.82 -269.47,-99.83 -295.88,-90.98 -50.403,16.9 -72.63,61.46 -72.63,61.46 0,0 -19.984,-78.36 33.02,-107.8 50.3,-27.93 71.95,-37.22 71.32,-92.38 -0.21,-18.5 -27.36,-72.24 39.78,-79.94 57.17,-6.57 53.8,-41.08 115.21,-47.67 61.41,-6.59 106.19,89.61 155.65,107.85 49.45,18.23 106.1,-16.47 106.1,-16.47 l 130.07,116.84 c 0,0 -33.45,120.85 -142.36,159.48"
         style="fill:#4abbd2;fill-opacity:1;fill-rule:nonzero;stroke:none"
         id="path80" /><path
         d="m 2010.21,1409.27 c -15.78,1.01 -37.68,-9.65 -49.4,-21.98 -26.29,-0.7 -61.6,-2.23 -94.11,-5.64 -45.02,-4.72 -101.93,-28.06 -148.61,-26.68 -44.7,1.33 -78.35,-0.98 -96.74,-3.67 0.48,14.41 2.17,29.13 2.83,31.13 1.24,3.7 -74.78,21.3 -74.78,21.3 0,0 3.61,-22.06 -1.78,-40.44 -25.2,5.7 -59.21,25.92 -99.7,22.44 -67.47,-5.81 -118.65,-33.58 -151.7,-43.56 -12.78,-3.86 -28.2,-11.65 -48.57,-35.95 -24.92,-29.7 -55.38,-83 -58.46,-101.13 -4.21,-24.83 -18.75,-58.77 -10.29,-72.44 8.45,-13.67 30.05,-30.47 61.34,-15.7 22.54,10.63 -11.53,68.39 -11.53,68.39 0,0 25.18,39.14 46.93,63.39 8.34,9.3 18.53,25.32 28.64,26.87 29.91,4.56 91.27,2.77 134.37,12.65 -15.66,-49.39 -10.75,-112.39 -27.65,-139.54 -2.22,-3.58 -9.29,-9.11 -18.88,-16.16 0.03,-0.03 0.06,-0.05 0.09,-0.08 -25.96,-21.47 -53.18,-99.19 -36.25,-181.118 2.76,-13.372 7.11,-27.051 12.49,-40.633 -10.61,-18.879 -36.26,-41.207 -49.18,-50.52 -5.47,-3.937 -10.67,-9.199 -15.64,-15.301 -0.01,0 -0.05,0 -0.06,0.012 -7.76,3.699 -48.51,19.762 -63.33,0 0,0 20.26,-10.629 47.11,-24.449 -22.23,-39.691 -38.01,-94.039 -47.11,-123.742 -12.98,-42.367 -35.64,-27.938 -56.14,-65.16 -10.76,-19.508 -0.92,-42.207 -4.37,-87.969 -3.86,-51.059 33.72,-43.231 40.75,-20.309 7.02,22.93 26.92,78.66 53.2,121.301 17.7,28.707 59.4,84.27 98.82,133.008 13.34,-6.469 25,-11.942 33.22,-15.418 31.33,-13.293 58.58,-22.34 77.81,-29.41 4.98,-2.942 10.1,-4.821 15.14,-5.922 1.2,-0.508 2.25,-0.68 3.21,-0.598 15.62,-2.39 29.93,2.567 35.56,7.938 19.37,18.422 17.06,60.261 6.59,107.019 -10.65,47.551 -28.16,96.352 -31.92,113.051 29.51,51.16 47.36,101.34 51.99,147.14 1.39,13.69 3.03,31.58 24.08,49.49 12.66,10.77 54.73,66.81 87.37,105.26 42,15.32 123.17,42.64 151.15,47.1 30.92,4.93 104.26,20.66 145.67,29.7 6.47,-7.42 13.27,-13.38 18.3,-15.7 23.86,-11.02 53.5,21.85 53.5,37.73 0,24.3 -17.4,53.24 -33.96,54.3"
         style="fill:#1e1c1b;fill-opacity:1;fill-rule:nonzero;stroke:none"
         id="path82" /><path
         d="m 1619.63,1344.75 c 0,0 -3.01,-16.77 -8.57,-30.36 -5.56,-13.58 -12.35,-27.33 0,-30.33 12.35,-3.01 35.73,14.03 44.11,30.96 19.76,39.95 0.16,62.79 -11.52,64.61 -15.26,2.38 -16.3,-10.9 -17.66,-10.9 -1.35,0 -6.36,-23.98 -6.36,-23.98"
         style="fill:#4abbd2;fill-opacity:1;fill-rule:nonzero;stroke:none"
         id="path84" /><path
         d="m 1555.21,1361.5 c -3.11,18.25 -5.9,54.16 -74.17,57.36 -59.79,2.81 -28.4,-9.53 13.94,-55.57 12.68,-13.8 23.53,-58.13 39.51,-63.72 14.2,-4.96 28.32,17.36 20.72,61.93"
         style="fill:#4abbd2;fill-opacity:1;fill-rule:nonzero;stroke:none"
         id="path86" /><path
         d="m 1664.2,1478.32 c 10.85,5.09 16.58,18.95 16.58,18.95 0,0 -18.94,-4.06 -34.88,1.85 -4.99,2.8 -11.73,5.68 -21.17,8.55 -33.78,10.28 -80.38,-15.02 -80.38,-15.02 l 0.09,-37 c 0,0 0.28,-5.34 0.84,-13.28 -3.66,1.67 -8.92,2.46 -12.19,-4.36 -5.35,-11.15 3.05,-31.5 15.89,-34.13 1.13,-8.72 2.47,-16.73 4.03,-22.21 3.29,-11.57 25.26,-35.18 51.87,-39.24 22.58,-3.45 46.87,28.94 50.53,40.32 5.98,18.61 5.88,61.1 9.81,74.6 19.4,1.8 26.73,20.97 26.73,20.97 0,0 -22.18,-4.6 -27.75,0"
         style="fill:#1e1c1b;fill-opacity:1;fill-rule:nonzero;stroke:none"
         id="path88" /><path
         d="m 1566.43,1116.94 -2.33,-21.96 c 0,0 -43.43,-22.66 -88.71,-9.49 -45.28,13.17 -79.84,49.59 -79.84,49.59 l 17.43,17.44 c 0,0 35.06,-35.75 66.84,-41.51 31.79,-5.76 86.61,5.93 86.61,5.93"
         style="fill:#4abbd2;fill-opacity:1;fill-rule:nonzero;stroke:none"
         id="path90" /><path
         d="M 438.301,1836.88 C 422.613,1799.92 271.383,1346.59 257.129,1256.09 235.781,1120.54 26.9883,1094.94 26.9883,1094.94 c 0,0 34.6328,-127.749 78.5237,-113.061 43.89,14.691 76.789,65.121 106.859,30.111 30.067,-35.01 15.637,-113.349 54.68,-113.349 39.043,0 56.308,59.769 96.941,39.82 43.707,-21.461 62.571,-22.34 98.149,-14.121 37.949,8.769 47.312,29.379 83.293,79.57 12.25,17.09 22.957,381.39 38.707,441.65 15.75,60.25 27.332,391.32 27.332,391.32 H 438.301"
         style="fill:#ee243d;fill-opacity:1;fill-rule:nonzero;stroke:none"
         id="path92" /><path
         d="m 628.723,1313.32 c -8.086,-1.02 -18.758,-5.06 -29.715,-9.65 l 10.902,110.9 c 34.133,-43.26 89.137,-102.17 89.137,-102.17 0,0 -48.024,3.73 -70.324,0.92 z m -125.039,291.53 c -17.282,21.85 -56.36,81.57 -71.094,96.83 19.512,11.56 39.723,30 56.965,49.74 7.152,-19.72 15.117,-39.16 20.562,-53.72 7.352,-19.65 6.848,-50.8 4.285,-78.33 -2.515,-4.11 -5.804,-9.54 -9.554,-15.92 -0.407,0.48 -0.828,0.97 -1.164,1.4 z m 230.171,-130.87 c -24.546,39.98 -66.21,88.6 -89.011,114.19 0.226,12.29 0.754,24.87 1.863,34.09 0.297,2.45 0.777,5.5 1.34,8.79 26.156,-13.82 64.652,-35 75.074,-45.26 16.184,-15.93 18.77,-39.97 50.598,-29.38 21.101,7.03 40.398,25.42 26.277,39.99 -13.848,14.28 -23.414,22.26 -43.32,26.5 -28.004,5.96 -74.981,52.26 -94.668,72.74 3.812,16.04 6.832,28.08 6.832,28.08 0,0 27.215,75.86 2.746,121.03 -21.492,39.68 -49.199,66.74 -55.621,72.73 2.055,12.09 5.926,21.03 8.058,24.24 5.192,7.81 26.141,0.6 35.418,0.02 20,-1.25 9.899,20.62 17.059,24.2 4.668,2.34 1.133,4.42 -0.469,6.76 0.578,1.82 4.207,3.25 4.778,4.85 1.394,3.91 -3.02,4.68 -2.7,6.65 0.817,4.94 14.235,7.05 12.282,11.96 -3.383,8.51 -21.266,23.47 -19.918,29.54 2.726,12.26 1.625,21.06 -2.77,31.58 -0.484,1.17 -0.965,2.23 -1.445,3.28 l 0.004,-0.01 c 14.429,33.69 -22.324,41.95 -49.059,40.23 -47.484,-3.05 -59.191,-25.53 -59.191,-25.53 0,0 -19.578,-15.84 -11.403,-59.21 4.098,-21.74 2.832,-21.71 10.332,-50.55 -0.605,-13.51 -6.679,-28.77 -16.589,-47.16 -3.164,-2.39 -6.305,-4.91 -9.399,-7.63 -22.359,-5.28 -73.301,-19.91 -95.851,-47.73 -16.454,-20.3 -24.075,-52.06 -35.973,-80.5 -12.996,-31.07 -25.277,-60.95 -33.168,-80.24 -5.496,-13.44 1.293,-22.93 9.5,-32.38 20.879,-24.05 62.965,-55.31 79.242,-92.22 5.754,-13.06 12.086,-24.71 18.582,-34.09 -2.472,-5.77 -4.5,-11.11 -5.722,-15.59 -7.649,-28.05 -12.59,-92.34 24.726,-218.24 -7.793,-5.95 -17.641,-14.04 -30.148,-21.79 -19.528,-12.11 -39.754,-13.47 -59.34,-24.49 -21.453,-12.07 -8.082,-25.7 21.797,-26.36 19.023,-0.42 47.507,-0.12 76.242,0.32 -7.184,-32.46 -21.125,-75.7 -14.356,-104.04 9.985,-41.77 32.536,-130.64 42.032,-152.909 9.496,-22.281 6.007,-131.421 29.14,-136.992 23.137,-5.57 43.657,9.18 56.285,28.672 12.625,19.488 -44.336,85.129 -44.351,115.758 -0.012,25.351 17.027,193.341 22.91,250.561 43.734,-0.35 140.758,-2.93 177.867,0.04 39.699,3.19 36.762,31.86 25.789,66.91 -10.968,35.04 -27.258,111.5 -62.301,168.59"
         style="fill:#1e1c1b;fill-opacity:1;fill-rule:nonzero;stroke:none"
         id="path94" /><path
         d="m 503.684,1604.85 c 0,0 58.718,-35.38 94.097,-37.3 35.379,-1.91 54.547,12.15 54.547,12.15 l -7.258,17.59 c 0,0 -18.996,-7.9 -55.761,-2.28 -19.375,2.97 -74.219,32.2 -74.219,32.2 l -11.406,-22.36"
         style="fill:#f68213;fill-opacity:1;fill-rule:nonzero;stroke:none"
         id="path96" /><path
         d="m 552.043,1883.2 c -30.5,29.87 -89.902,2.89 -89.902,2.89 0,0 37.968,49.17 71.855,44.91 33.887,-4.27 61.813,-25.3 53.988,-53.87 -2.972,-10.86 -30.207,0.45 -35.941,6.07"
         style="fill:#ee243d;fill-opacity:1;fill-rule:nonzero;stroke:none"
         id="path98" /><path
         d="m 614.578,1918.76 c 0,0 15.914,-13.47 23.668,-30.09 5.172,-11.09 13.414,-28.22 18.133,-19.06 4.719,9.16 3.086,23.03 -8.34,36.09 -11.426,13.06 -28.894,25.56 -28.894,25.56 l -4.567,-12.5"
         style="fill:#ee243d;fill-opacity:1;fill-rule:nonzero;stroke:none"
         id="path100" /><path
         d="m 3781.93,3112.84 c -14.49,16.95 -48.81,1.32 -69.61,-5.12 -20.8,-6.44 -100.54,-70.91 -136.02,-101.22 -29.69,-25.36 -96.85,-55.16 -133.6,-71.62 -0.75,4.29 -1.02,7.74 -0.9,9.66 0.57,9.35 22.31,13.63 30.63,17.78 17.93,8.95 -1.78,22.8 2.61,29.49 2.87,4.37 -1.23,4.39 -3.79,5.61 -0.41,1.87 2.01,4.92 1.7,6.6 -0.76,4.08 -4.96,2.53 -5.67,4.39 -1.78,4.69 8.78,13.24 4.62,16.51 -7.19,5.67 -30.17,9.64 -32.04,15.56 -3.8,11.98 -9.16,19.04 -18.24,25.94 -1.01,0.76 -1.96,1.44 -2.9,2.1 h 0.01 c -4.41,36.38 -40.35,25.1 -62.62,10.2 -39.55,-26.46 -38.4,-51.78 -38.4,-51.78 0,0 -8.99,-23.53 19.84,-56.95 14.45,-16.75 13.34,-17.36 34.29,-38.54 0.67,-1.28 1.23,-2.67 1.81,-4.04 -48.13,-16.91 -71.02,-84.64 -71.1,-141.94 -0.06,-48.55 -30.46,-109.42 -55.62,-151.51 -24.28,-7.96 -58.13,-20.54 -80.39,-35.04 -45.7,-29.79 -64.5,-90.88 -89.51,-128.97 -20.73,-31.58 -44.4,-95.98 -60.54,-101.84 -16.13,-5.85 -68.02,-22.14 -109.32,-79.13 -45.37,-62.61 -102.77,-99.81 -128.5,-101.33 -24.09,-1.42 -33.32,-4.86 -41.45,-35.4 -8.12,-30.54 -24.77,-51.65 -38.52,-81.97 -13.75,-30.32 -1.74,-38.36 40.42,-4.17 16.42,13.31 49.57,44.24 108.95,88.5 93.12,69.39 214.21,144.63 240.04,171.5 75.48,78.47 266.03,252.2 266.03,252.2 h -0.01 c 40.04,36.61 86.01,85.4 114.89,137.86 26.23,47.63 26.62,91.34 18.72,125.52 20.55,20.55 41.25,40.65 56.89,54.46 32.96,29.11 81.28,49.71 116.24,88.34 34.95,38.63 60.35,68.55 60.35,68.55 0,0 44.13,-9.56 58.17,2.23 14.04,11.78 17.02,40.62 2.54,57.57"
         style="fill:#1e1c1b;fill-opacity:1;fill-rule:nonzero;stroke:none"
         id="path102" /><path
         d="m 3237.04,2630.64 76.51,-89.57 40.59,37.24 -97.73,72.03 -19.37,-19.7"
         style="fill:#ee243d;fill-opacity:1;fill-rule:nonzero;stroke:none"
         id="path104" /><path
         d="m 3425.07,2926.86 c 0,0 -75.34,-41.77 -104.51,-91.01 -55.57,-93.83 -157.15,-192.79 -215.32,-232.91 -187.7,-129.42 -245.46,-113.17 -335.6,-222.32 -46.14,-55.86 -50.31,-152.17 -50.31,-152.17 0,0 -171.28,44.11 -128.34,165.42 42.94,121.3 210.13,213.5 286.19,234.84 76.06,21.33 208.29,105.59 293.4,213.36 72.01,91.2 167.95,117.18 254.49,84.79"
         style="fill:#4abbd2;fill-opacity:1;fill-rule:nonzero;stroke:none"
         id="path106" /><path
         d="m 2137.16,2808.05 c -10.26,0.67 -150.46,-55.56 -205.18,-83.87 -54.71,-28.31 -129.95,-114.02 -129.95,-114.02 0,0 102.59,8.77 109.43,-15.66 14.02,-50.06 34.2,-118.61 66.69,-97.53 32.48,21.08 40.12,38.68 65.9,39.32 25.77,0.64 53.66,-31.53 73.49,-26.22 55.31,14.82 24.75,62.69 63.23,75.23 48.25,15.72 35.29,-103.16 95.94,-92.21 28.64,5.17 127.19,-9.24 155.16,42.36 17.96,33.15 9.35,72.16 34.35,69.82 36.85,-3.44 68.56,-54.02 96.7,-46.19 47.87,13.32 35.75,76.27 72.52,79.45 53.78,4.65 45.46,56.13 45.46,56.13 0,0 -85.49,-10.76 -126.53,42.25 -33.03,42.66 -147.05,92.33 -147.05,92.33 l -270.16,-21.19"
         style="fill:#4abbd2;fill-opacity:1;fill-rule:nonzero;stroke:none"
         id="path108" /><path
         d="m 2497.65,2873.57 c 10.92,6.76 19.04,7.74 18.81,13.72 -0.19,4.73 -7,7.45 -20.95,0.86 -16.15,-7.64 -33.34,-14.58 -33.34,-14.58 0,0 14.56,18.28 25.42,30.32 7.83,8.68 13.31,14.47 7.79,20.2 -5.21,5.41 -11.06,-3.55 -19.76,-9.94 -13.32,-9.79 -32.26,-25.15 -32.26,-25.15 0,0 9.4,17.53 16.24,32.06 3.69,7.84 7.19,15.42 6.42,20.52 -0.83,5.48 -7.7,6.32 -15.04,-6.64 -7.72,-13.61 -26,-34.82 -26,-34.82 0,0 3.68,24.01 6.84,40.6 2.56,13.48 -10.26,14.97 -15.31,-1.48 -4.07,-13.24 -10.02,-31.06 -14.61,-47.25 0,0 -18.38,39.37 -32.06,30.35 -7.94,-5.23 4.27,-7.52 9.4,-33.77 1.67,-8.54 2.06,-13.87 1.66,-18.7 -0.64,-0.01 -1.27,0.03 -1.92,0.02 -10.96,-0.24 -39.9,6.26 -52.46,11.97 -12.56,5.72 -23.13,5.72 -24.15,20.95 -0.37,5.6 -0.47,11.18 -0.44,16.03 1.87,2.18 3.4,4.22 4.27,5.76 4.68,8.34 8.94,16.7 12.05,25.71 2.54,-0.76 6.34,-1.08 8.43,2.69 3.33,5.98 11.97,19.28 6.65,26.59 -1.98,2.71 -4.13,3.45 -6.13,3.29 1.78,12.4 3.89,31.37 1.41,38.95 10.72,0.71 14.53,7.36 14.53,7.36 0,0 -8.12,-0.22 -12.15,0.97 4.03,1.19 12.38,5.95 12.38,5.95 0,0 -19.52,3.1 -45.23,19.29 -25.72,16.19 -67.02,2.11 -72.62,-1.19 -5.65,-3.34 -8.1,-10.72 -8.1,-10.72 0,0 -3.35,3.55 -7.38,5.48 2.14,-8.57 4,-19.05 4,-39.29 0,-13.42 0,-22.64 0,-27.19 -2.45,0.81 -5.36,0.67 -7.96,-2.9 -5.32,-7.31 3.32,-20.61 6.65,-26.59 2.09,-3.77 5.89,-3.45 8.43,-2.69 3.08,-8.91 7.28,-17.18 11.9,-25.42 0.16,-5.82 0.2,-13.91 -0.35,-22.08 -1.02,-15.23 -11.58,-15.23 -24.14,-20.95 -12.56,-5.71 -41.51,-12.26 -52.46,-11.97 -22.37,0.59 -41.17,-11.24 -51.04,-35.24 -1.69,-4.12 -23.29,-31.29 -27.46,-36.26 -12.5,-14.94 -39.11,-48.14 -56.31,-79.86 -20.24,-37.31 -27.76,-39.49 -22.63,-57.6 5.12,-18.12 4.23,-103.89 22.63,-118.71 18.4,-14.82 31.47,-81.9 42.76,-84.87 34.63,-9.13 67.21,31.54 67.21,39.62 0,8.07 -52.57,36.48 -52.57,36.48 l -8.59,132.9 c 0,0 41.73,28.23 53.38,40.21 14.53,14.96 22.86,35.16 22.86,35.16 0,0 1.07,-42.09 28.01,-92.91 11.51,-21.72 5.01,-40.97 6.41,-63.51 l 2.93,-0.07 c -5.94,-22.66 -14.64,-52.92 -26.44,-86.89 -25.16,-72.42 -35.75,-111.49 -39.95,-153.43 -2.6,-26.04 -2.52,-59.64 -11.55,-96.44 -5.52,-22.47 -20.05,-40.13 -30.41,-69.34 -17.48,-49.25 -24.82,-154.28 -24.88,-192.42 -0.06,-32.01 -15.89,-51.34 -24.55,-64.34 -10.67,-16.01 -0.72,-28.04 8.2,-35.05 14.07,-11.06 26.38,-20.99 48.28,-4.98 21.9,16.02 10.26,49.54 10.58,55.94 0.67,13.25 -3.6,30.38 2.44,43.18 9.43,19.99 57.79,107.53 71.69,183.52 8.07,44.14 14.32,73.74 22.16,87.14 25.74,43.95 65.35,134.49 78.27,170.26 12.92,-35.77 52.54,-126.31 78.27,-170.26 7.85,-13.4 14.09,-43 22.17,-87.14 13.89,-75.99 62.26,-163.53 71.69,-183.52 6.04,-12.8 1.77,-29.93 2.43,-43.18 0.32,-6.4 -11.31,-39.92 10.58,-55.94 21.9,-16.01 34.22,-6.08 48.28,4.98 8.93,7.01 18.87,19.04 8.2,35.05 -8.66,13 -24.48,32.33 -24.54,64.34 -0.07,38.14 -7.4,143.17 -24.88,192.42 -10.36,29.21 -24.89,46.87 -30.41,69.34 -9.04,36.8 -8.95,70.4 -11.56,96.44 -4.19,41.94 -14.78,81.01 -39.94,153.43 -11.1,31.94 -19.47,60.67 -25.38,82.83 1.4,22.54 -7.97,56.24 4.51,77.42 22.15,37.62 31.78,83.13 31.78,83.13 0,0 37.83,15.44 47.65,28.53 15.17,20.23 17.2,41.29 11.97,59.96 6.48,8.2 12.29,16.85 15.95,21.8 5.89,7.99 15.76,10.69 33.34,21.56"
         style="fill:#1e1c1b;fill-opacity:1;fill-rule:nonzero;stroke:none"
         id="path110" /><path
         d="m 2271.43,2591.1 c -46.53,0.34 -90.45,14.44 -90.45,14.44 l -2.17,-38.36 c 0,0 39.6,-14.79 92.62,-15.02 53.01,0.23 85.53,15.48 85.53,15.48 l -5.77,42.52 c 0,0 -33.24,-18.72 -79.76,-19.06"
         style="fill:#f68213;fill-opacity:1;fill-rule:nonzero;stroke:none"
         id="path112" /><path
         d="m 2311.95,2890.38 c -2.69,-6.14 -4.66,-33.33 16.01,-40.31 12.82,-4.34 34.87,3.78 39.69,21.82 1.57,5.87 -13.74,7.5 -28.61,13.59 -13.12,5.36 -25.4,8.76 -27.09,4.9"
         style="fill:#4abbd2;fill-opacity:1;fill-rule:nonzero;stroke:none"
         id="path114" /><path
         d="m 2228.66,2890.38 c 2.69,-6.14 4.66,-33.33 -16,-40.31 -12.82,-4.34 -34.88,3.78 -39.7,21.82 -1.56,5.87 13.75,7.5 28.61,13.59 13.12,5.36 25.41,8.76 27.09,4.9"
         style="fill:#4abbd2;fill-opacity:1;fill-rule:nonzero;stroke:none"
         id="path116" /><path
         d="m 1719.68,1919.75 c -31.73,79.65 -80.09,326.98 -99.63,408.75 -10.82,45.33 1.5,188.74 -22.87,278.75 -1.17,4.34 -249.75,12.49 -247.92,-58.33 -36.71,-138.61 -30.4,-271.56 -23.12,-415 3.85,-75.65 22.81,-139.78 36.36,-214.29 8.4,-46.16 -10.12,-119.97 32.18,-148.63 46.64,-31.6 93.75,16.25 163.9,2.62 29.6,-5.75 49.54,-39.5 76.32,-49.25 19.57,-7.12 37.27,-1.2 55.54,6.5 11.49,4.83 22.63,14.67 35.29,14.52 12.75,-0.16 27.16,-27.25 56.87,-31.49 81.66,-11.65 92.94,71.01 102.08,120.85 -106.61,-53.68 -148.87,44.51 -165,85"
         style="fill:#ee243d;fill-opacity:1;fill-rule:nonzero;stroke:none"
         id="path118" /><path
         d="m 1385.66,2522.25 c 0,0 -26.47,-119.72 -53.48,-180 -12.73,-28.4 -23.02,-149.36 -27.73,-233.29 -2.47,-44.05 12.42,-99.98 3.42,-156.61 -11.53,-72.49 21.11,-159.68 0,-227.22 -3.27,-10.46 -18.6,-27.88 -48.61,-41.21 -25.77,-11.45 -56.94,-20.15 -58.33,-33.34 -3,-28.55 73.15,-6.6 104.71,-5.76 27.08,0.72 51.91,-13.86 60.29,4.1 11.67,25 -3.82,47.63 -1.67,76.66 1.99,26.79 48.8,125 41.14,218.34 -0.78,9.54 -15.32,67.87 -13.19,75.47 9.32,33.24 23.31,66.45 29.97,99.11 10.51,51.52 20.42,123.75 20.42,123.75 0,0 9.37,-130.9 20.72,-155 11.36,-24.1 34.02,-69.81 36.01,-92.18 3.58,-40.32 9.05,-100.5 21.71,-140.32 25.1,-78.99 53.64,-110 51.42,-139.28 -1.86,-24.52 -10.7,-52.27 -6.53,-65.72 7.85,-25.34 34.53,-22.42 49.12,-22.73 23.38,-0.5 44.89,4.36 25.1,62.73 -27.97,82.5 -35.33,150.62 -41.72,227.5 -5.18,62.4 -25.57,114.53 -24.55,123.48 3,26.54 3.44,187.35 -5.45,238.31 -15.39,88.22 -45.74,164.88 -45.74,164.88 0,0 -19.98,129.35 -137.03,78.33"
         style="fill:#1e1c1b;fill-opacity:1;fill-rule:nonzero;stroke:none"
         id="path120" /><path
         d="m 1352.66,2398.1 c 0,0 29.04,-22.77 80.35,-27.1 64.17,-5.42 109.65,14.9 109.65,14.9 l -8,28.43 c 0,0 -56.23,-15.89 -96.23,-10.83 -42.03,5.32 -77.14,23.29 -77.14,23.29 l -8.63,-28.69"
         style="fill:#4abbd2;fill-opacity:1;fill-rule:nonzero;stroke:none"
         id="path122" /><path
         d="m 1619.81,2619.02 c -4.76,30.72 -33.75,41.04 -50.45,46.04 -28.56,8.55 -46.37,11.42 -57.86,23.85 -3.71,4.01 -7.93,21.33 -10.75,34.65 0.08,0.12 0.21,0.28 0.27,0.39 5.27,8.84 10.08,17.7 13.68,27.3 2.7,-0.88 6.78,-1.33 9.14,2.67 3.73,6.34 13.39,20.39 7.87,28.4 -2.69,3.91 -5.81,4.14 -8.48,3.34 0.13,4.89 0.38,14.8 0.75,29.24 0.56,21.76 2.85,32.97 5.39,42.13 -4.39,-1.96 -8.09,-5.69 -8.09,-5.69 0,0 -2.42,8 -8.41,11.74 -5.93,3.71 -49.95,19.98 -78.04,3.29 -28.1,-16.7 -49.17,-19.49 -49.17,-19.49 0,0 8.85,-5.35 13.14,-6.74 -4.36,-1.17 -13.08,-0.71 -13.08,-0.71 0,0 3.91,-7.26 15.41,-8.32 -2.86,-8.08 -1.12,-28.53 0.45,-41.91 -2.15,0.22 -4.48,-0.51 -6.68,-3.38 -5.92,-7.71 3,-22.24 6.41,-28.76 2.15,-4.12 6.25,-3.87 8.99,-3.13 3.1,-9.77 7.45,-18.87 12.26,-27.97 0.25,-0.47 0.69,-1.09 1.03,-1.64 -1.84,-8.41 -4.87,-20.79 -7.66,-25.32 -10.32,-16.76 -24.13,-22.85 -52.79,-27.73 -22.1,-3.77 -38.7,-12.49 -57.93,-43.61 -16.4,-26.54 -17.74,-72.61 -21.78,-83.75 -17.5,-48.27 -5.83,-112.36 14.17,-112.3 5.84,0.02 60.42,12.92 109.57,24.03 31.06,-20.16 86.39,-49.97 99.86,-56.9 19.43,-10 84.95,100.93 94.95,128.43 10,27.5 19.75,79.49 17.83,91.85"
         style="fill:#1e1c1b;fill-opacity:1;fill-rule:nonzero;stroke:none"
         id="path124" /><path
         d="m 1506.94,2699.01 c 0,0 -30.81,-44.26 -4.03,-49.26 26.77,-5 66.45,15.31 66.45,15.31 0,0 -17.18,17.19 -25.93,20.94 -8.75,3.75 -20.74,2.5 -20.74,2.5 0,0 -3.5,11.01 -15.75,10.51"
         style="fill:#ee243d;fill-opacity:1;fill-rule:nonzero;stroke:none"
         id="path126" /><path
         d="m 1418.79,2705.88 c 0,0 2.88,-22.38 -2.86,-36.13 -3.37,-8.08 -11.02,-16.25 -23.01,-8.12 -11.99,8.12 -25.8,10.34 -25.8,10.34 0,0 -3.79,7.19 5.06,16.53 11.25,11.88 25,7.5 25,7.5 0,0 11.35,9.76 21.61,9.88"
         style="fill:#ee243d;fill-opacity:1;fill-rule:nonzero;stroke:none"
         id="path128" /><path
         d="m 1027.42,2376.23 c -120.053,-21.7 -153.025,99.87 -203.045,155.21 -37.266,41.22 -89.691,75.09 -77.328,135.1 10.805,52.46 9.617,104.83 10.172,161.25 0.265,26.94 -27.371,56.47 -51.942,51.39 -38.504,-7.96 -77.207,-13.32 -116.554,-14.31 -26.407,-0.66 -54.809,3.82 -80.168,-5.15 -31.18,-11.04 -34.235,-98.18 -95.485,-163.18 -33.832,-35.9 -101.281,-60.53 -140.125,-90.83 -69.906,-54.52 -134.875,-119.17 -179.8747,-205.42 64.3317,-7.61 110.0507,-9.35 146.2737,-67.48 17.769,-28.53 52.058,-51.15 83.824,-62.24 42.586,-14.86 79.027,-7.09 122.016,0.81 38.605,7.09 57.675,0.78 88.886,-21.68 15.618,-11.25 33.434,-21.82 51.524,-28.39 37.758,-13.71 74.926,-6.18 111.566,7.59 57.824,21.73 101.988,35.73 165.031,30.33 83.063,-7.12 154.629,61.06 165.229,117"
         style="fill:#f68213;fill-opacity:1;fill-rule:nonzero;stroke:none"
         id="path130" /><path
         d="m 993.297,2871.86 c -14.356,19.24 -49.832,22.79 -59.703,7.82 -3.594,-5.45 7.722,-53.78 -10.848,-56.89 -59.676,-10 -86.34,-32.72 -86.34,-32.72 0,0 -8.336,62.72 -42.086,80.22 -8.75,38.4 -24.265,43.2 -32.601,50.39 -10.442,9.01 -45.196,19.22 -75.633,26.84 -0.352,3.67 -0.488,7.92 -0.453,12.44 16.965,8.1 31.797,29.04 34.601,37.77 6.051,18.84 5.95,61.84 9.93,75.51 19.637,1.82 27.055,21.23 27.055,21.23 0,0 -22.449,-4.66 -28.082,0 10.98,5.15 16.781,19.18 16.781,19.18 0,0 -19.18,-4.11 -35.309,1.86 -5.054,2.85 -11.875,5.76 -21.425,8.66 -34.2,10.41 -81.36,-15.2 -81.36,-15.2 l 0.082,-37.45 c 0,0 0.285,-5.41 0.86,-13.45 -3.707,1.7 -9.032,2.5 -12.344,-4.41 -5.418,-11.28 3.09,-31.88 16.082,-34.55 0.422,-3.25 0.871,-6.38 1.351,-9.33 0.528,-8.22 0.54,-20.61 -2.726,-31.75 -2.063,-7.04 -5.484,-14 -8.676,-19.67 -0.531,-0.05 -1.023,-0.07 -1.562,-0.13 -22.754,-2.2 -49.524,-11.9 -71.926,-25.07 -45.895,-26.97 -43.258,-50.66 -64.11,-67.47 -40.093,-32.33 -50.042,-67.55 -50.042,-67.55 0,0 -77.625,51.14 -82.559,68.22 -4.938,17.07 23.746,51.75 2.066,64.72 -23.75,14.21 -61.703,-5.78 -61.058,-35.91 0.519,-24.3 20.261,-49.19 30.176,-68.77 12.105,-23.93 52.433,-59.83 78.941,-87.88 21.941,-23.23 31.793,-17.73 42.476,-13.44 21.266,8.53 83.215,42.71 112.34,92.71 -1.023,-24.01 14.211,-46.66 12.543,-75 -1.425,-24.24 -4.855,-48.38 -8.175,-67.59 l -3.899,0.13 c 0,0 -35.09,-51.35 -46.738,-108.35 -13.625,-66.66 18.812,-104.19 3.812,-122.52 -16.644,-20.34 -69.922,-82.57 -83.609,-165.81 -3.066,-18.64 -27.816,-95.78 -28.75,-122.5 -0.789,-22.5 47.191,-15.67 67.492,-16.11 38.758,-0.84 -15.687,91.63 6.258,118.61 26.844,33 93.766,116.19 113.922,152.11 20.156,35.93 64.871,127.44 64.871,127.44 0,0 96.422,-69.57 171.484,-97.07 9.149,-3.36 -16.683,-67.39 14.164,-165.84 19.43,-61.99 -28.609,-78.31 -6.941,-99.97 7.773,-7.78 22.949,-3.11 43.332,-12.5 50.832,-23.43 65.465,-22.7 90,-16.67 20.348,5 31.844,23.27 13.332,33.61 -44.371,24.78 -85.313,31.92 -82.797,50.14 6.711,48.58 29.231,154.67 13.91,212.89 -8.336,31.67 11.926,46.23 -28.547,79.71 -53.136,43.97 -144.367,137.92 -152.476,146.29 3.109,24.36 8.484,43.19 15.719,55.78 21.968,38.22 23.152,82.31 23.152,82.31 0,0 8.941,-28.87 27.266,-50.81 15.753,-18.87 23.218,-33.28 41.55,-33.28 16.41,0 43.508,1.45 76.668,26.67 38.727,29.45 58.516,51.21 78.973,66.94 23.742,18.27 26.479,46.23 19.586,55.46"
         style="fill:#1e1c1b;fill-opacity:1;fill-rule:nonzero;stroke:none"
         id="path132" /><path
         d="m 686.066,2947.52 c 0.02,0 -0.355,-30.38 20.895,-36.37 21.25,-5.99 39.125,7.24 40.066,17.65 0.364,4.03 -3.816,16.37 -26.316,21.87 -22.5,5.51 -34.645,-3.15 -34.645,-3.15"
         style="fill:#f68213;fill-opacity:1;fill-rule:nonzero;stroke:none"
         id="path134" /><path
         d="m 537.195,2939.12 c 0,0 16.434,2.03 30.184,-15.05 13.75,-17.09 31.25,-22.5 42.914,-13.75 11.668,8.75 15.48,36.75 -6.367,46.33 -21.848,9.59 -57.383,2.7 -66.731,-17.53"
         style="fill:#f68213;fill-opacity:1;fill-rule:nonzero;stroke:none"
         id="path136" /><path
         d="m 530.238,2663.48 c 0,0 59.403,-16.52 108.825,-16.52 49.421,0 81.449,11.48 81.449,11.48 l -5.426,32.45 c 0,0 -29.203,-3.1 -72.414,-3.1 -37.445,0 -96.598,19.14 -96.598,19.14 l -15.836,-43.45"
         style="fill:#ee243d;fill-opacity:1;fill-rule:nonzero;stroke:none"
         id="path138" /><path
         d="m 3764.18,4031.73 c 0,0 -63.07,-107.67 -132.45,-162.76 -69.37,-55.08 -122.98,-140.22 -154.52,-225.37 -31.53,-85.14 -31.53,-153.32 -31.53,-153.32 0,0 76.43,120.79 126.51,85.02 50.08,-35.76 2.78,-96.77 46.93,-126.18 44.15,-29.41 80.67,25.17 105.13,0 24.47,-25.17 61.65,-20.18 87.42,30.94 29.37,58.3 77.75,30.46 57.76,-10.29 -30.75,-62.68 67.49,-107.61 117.92,-81.6 28.54,14.72 76.41,17.35 92.18,-3.94 15.76,-21.28 22.46,-59.55 22.46,-59.55 0,0 34.3,38.38 31.14,119.07 -3.15,80.7 -120.59,258.36 -106.8,412.89 4.37,48.86 5.89,155.11 15.35,155.51 9.46,0.41 -277.5,19.58 -277.5,19.58"
         style="fill:#f68213;fill-opacity:1;fill-rule:nonzero;stroke:none"
         id="path140" /><path
         d="m 4152.06,3758.64 c 9.46,37.84 54.51,84.42 56.76,112.01 2.14,26.28 -14.15,57.27 -35.48,99.34 -15.33,30.23 -44.18,54.26 -54.4,61.13 -43.36,29.17 -33.68,74.36 -75.68,94.96 -34.27,16.81 -104.87,51.39 -182.51,34.74 l -77.65,-16.66 c -38.63,-5.46 -66.22,-40.15 -85.14,-59.07 -18.93,-18.92 -66.23,-15.77 -104.07,-34.69 -37.84,-18.92 -48.09,-55.97 -81.99,-78.84 -25.88,-17.45 -17.34,-36.2 -13.4,-44.93 10.62,-23.51 32.32,9.13 41.78,0.23 9.46,-8.91 14.08,-9.21 20.5,8.44 3.15,8.67 3.75,28.97 9.46,34.69 20.81,20.81 44.15,10.24 78.84,13.4 34.68,3.15 42.57,24.44 60.7,19.71 12.76,-3.33 37.94,-5.82 58.36,-7.41 7.29,-22.42 22.3,-35.02 31.12,-48.2 7.28,-10.87 17.07,-36.48 19.33,-59.49 2.27,-23.02 -54.78,-78.3 -54.6,-96.7 0.19,-18.41 -37.65,-134.52 -31.35,-167.91 2.41,-12.72 7.28,-39.36 14.27,-67.98 -7.2,-10.11 -13.9,-22.09 -18.41,-35.98 -12.01,-36.91 4.22,-49.27 14.39,-68.19 10.17,-18.92 -2.36,-39.08 28.53,-83.83 16.21,-23.47 45.55,0.73 42.43,44.41 -1.02,14.22 -1.6,27.84 -1.91,40.86 28.1,11.95 52.54,72.86 54.27,122.62 2.03,58.84 14.86,104.71 14.86,104.71 l 11.86,-1.83 c 0,0 3.59,-72.68 9.21,-129.18 5.63,-56.51 0.79,-169 -11.82,-218.52 -12.62,-49.53 10.57,-166.17 -12.62,-196.16 -23.19,-30 -7.97,-69.37 0,-89.88 11.04,-28.38 42.58,-12.75 58.76,11.55 11.72,17.59 -8.3,60.98 -5.15,89.36 3.16,28.39 17.73,75.75 34.09,115.11 30.81,74.1 6.08,141.09 10.97,160.29 10.98,43.11 55.08,117.87 54.28,164.51 -1.58,91.45 -40.87,183.44 -43.3,206.04 -1.25,11.62 -1.79,55.1 8.61,91.18 9.81,34.04 26.97,61.56 37.84,83.96 17.74,-21.01 49.67,-48.5 82.78,-76.87 13.96,-11.96 -10.25,-93.38 -26.02,-106.43 -15.77,-13.05 -37.18,-56.56 -30.74,-70.95 6.54,-14.62 29.57,-36.49 29.57,-36.49 0,0 43.74,-8.45 65.82,25.81 9.43,14.64 -12.62,19.29 -3.15,57.13"
         style="fill:#1e1c1b;fill-opacity:1;fill-rule:nonzero;stroke:none"
         id="path142" /><path
         d="m 3805.3,4148.93 c 0,0 18.23,-39.4 33.49,-60.69 15.26,-21.28 32.85,-28.83 27.42,0 -5.11,27.11 -9.55,75.07 -9.55,75.07 0,0 -30.99,23.08 -51.36,-14.38"
         style="fill:#f68213;fill-opacity:1;fill-rule:nonzero;stroke:none"
         id="path144" /><path
         d="m 3955.86,4159.1 c 0,0 11.72,-40.11 -9.57,-69.08 -12.68,-17.27 -13.98,-35.48 5.43,-28.39 19.4,7.1 57.84,80 57.84,80 0,0 -22.26,35.71 -53.7,17.47"
         style="fill:#f68213;fill-opacity:1;fill-rule:nonzero;stroke:none"
         id="path146" /><path
         d="m 3805.3,3856.64 c 0,0 43.01,-43.12 88.96,-55.1 43.36,-11.3 93.09,-10.24 93.09,-10.24 l 6.3,-24.71 c 0,0 -22.73,-14.2 -94.17,0 -71.44,14.19 -113.77,62.69 -113.77,62.69 l 13.55,18.6 6.04,8.76"
         style="fill:#ee243d;fill-opacity:1;fill-rule:nonzero;stroke:none"
         id="path148" /><path
         d="m 3985.43,4192.94 c -2.95,4.06 -6.26,4.23 -9.06,3.31 0,5.17 0,15.65 0,30.92 0,23.02 2.12,34.93 4.56,44.68 -4.58,-2.19 -8.4,-6.23 -8.4,-6.23 0,0 -2.78,8.4 -9.2,12.18 -6.38,3.77 -53.35,19.77 -82.59,1.36 -29.25,-18.41 -51.45,-21.93 -51.45,-21.93 0,0 9.5,-5.42 14.08,-6.77 -4.58,-1.36 -13.81,-1.11 -13.81,-1.11 0,0 4.33,-7.56 16.52,-8.37 -2.81,-8.62 -0.42,-30.19 1.61,-44.29 -2.28,0.18 -4.73,-0.66 -6.98,-3.75 -6.04,-8.31 3.78,-23.43 7.56,-30.23 2.38,-4.29 6.71,-3.92 9.59,-3.07 3.54,-10.24 8.38,-19.74 13.71,-29.23 4.6,-8.18 23.05,-27.44 41.5,-27.44 18.45,0 36.9,19.26 41.5,27.44 5.33,9.49 10.17,18.99 13.72,29.23 2.88,-0.85 7.2,-1.22 9.58,3.07 3.78,6.8 13.61,21.92 7.56,30.23"
         style="fill:#1e1c1b;fill-opacity:1;fill-rule:nonzero;stroke:none"
         id="path150" /><path
         d="m 2846.55,4125.96 c 77.44,67.43 147.3,55.33 175.19,31.24 27.88,-24.11 118.92,-236.64 171.39,-276.1 52.47,-39.46 125.95,34.27 125.95,34.27 0,0 18.68,-21.68 22.16,-48.98 4.83,-37.84 -14.25,-81.73 -48.12,-92.5 -58.31,-18.55 -77.67,-56.07 -122.9,-92.15 -45.22,-36.08 -115.57,10.08 -115.57,10.08 0,0 -6.87,7.22 -76.3,-7.95 -69.43,-15.17 -131.65,48.77 -131.65,48.77 0,0 -32.82,84.77 -95.85,74.27 -63.04,-10.5 -61.92,6.2 -75.04,45.59 -13.12,39.39 -52.15,184.83 -52.15,184.83 0,0 24.74,122.67 61.08,131.44 36.33,8.77 88.75,-61.66 88.75,-61.66 l 73.06,18.85"
         style="fill:#f68213;fill-opacity:1;fill-rule:nonzero;stroke:none"
         id="path152" /><path
         d="m 3084.99,3945.14 c -30.78,49.32 -70.15,108.4 -100.78,138.63 -25.47,25.12 -59,30.97 -65.77,32.77 -22.46,5.93 -64.86,17.67 -79.67,21.78 -3.17,5.64 -6.55,12.54 -8.59,19.52 -3.27,11.14 -3.25,23.53 -2.73,31.75 0.48,2.95 0.93,6.09 1.35,9.33 13,2.67 21.51,23.27 16.09,34.55 -3.32,6.91 -8.64,6.11 -12.35,4.41 0.57,8.04 0.86,13.45 0.86,13.45 l 0.08,37.45 c 0,0 -47.16,25.61 -81.36,15.2 -9.55,-2.9 -16.37,-5.81 -21.42,-8.65 -16.13,-5.98 -35.31,-1.87 -35.31,-1.87 0,0 5.8,-14.03 16.78,-19.18 -5.63,-4.65 -28.08,0 -28.08,0 0,0 7.42,-19.41 27.05,-21.23 3.98,-13.67 3.88,-56.67 9.93,-75.51 2.81,-8.74 17.64,-29.67 34.6,-37.77 0.02,-1.67 0.01,-3.3 -0.03,-4.89 l -4.79,-0.3 c 0,0 -40.48,12.23 -75.04,-6.1 -34.57,-18.34 -61.23,-62.09 -61.23,-62.09 0,0 -37.92,-1.24 -58.75,-18.75 -14.46,-12.15 -47.09,-40 -47.09,-40 0,0 -37.63,38.12 -50.5,58.33 -12.5,19.62 -28.25,14.17 -22.46,-2.24 3.21,-9.09 20.99,-38.14 23.9,-41.09 -2.59,1.13 -34.56,24.18 -40.94,29.06 -13.72,10.51 -24.37,3.13 -12.81,-10.93 9.36,-11.38 37.5,-29.07 37.5,-29.07 0,0 -31.05,1.37 -45.63,4.43 -13.12,2.76 -23.13,-5.31 -7.5,-13.18 14.49,-7.28 45.48,-10.13 45.48,-10.13 0,0 -24.61,-9.33 -41.05,-13.97 -11.38,-3.21 -7.86,-13.4 6.51,-11.17 11.03,1.71 34.06,4.02 34.06,4.02 0,0 30.94,-36.56 55.94,-39.06 25,-2.5 47.09,37.5 47.09,37.5 17.5,7.46 62.04,7.97 85.33,17.08 38.33,15 60.43,37.92 60.43,37.92 0,0 -12.58,-32.3 19.65,-107.5 18.75,-43.75 8.74,-87.35 10,-133.75 -3.76,-48.26 -29.79,-111.41 -46.25,-178.75 -10.28,-42.07 -16.62,-99.14 8.32,-122.5 26.68,-25 82.98,5 105.43,51.67 6.04,-24.15 -0.89,-79.53 7.5,-121.67 18.94,-95.09 42.27,-195.6 45.78,-208.33 13.54,-49.09 -0.92,-85.16 -0.71,-114.17 0.21,-29 -48.89,-57.25 -11.32,-60.83 37.57,-3.58 53.33,32.13 65.3,52.13 11.98,20 40.69,43.54 45.95,62.87 5.67,20.83 -32.76,46.09 -37.17,78.33 -6.66,48.75 12.59,194.59 -14.49,245 15,56.67 29.12,149.79 26.66,232.5 33.79,24.88 66.14,39.88 27.5,55.45 -11.03,4.45 -23.05,4.41 -34.61,2.19 -6.63,31.79 -16.21,57.52 -21.64,69.44 7.88,25.12 36.58,102.97 53.19,147.04 16.23,-20.4 65.15,-60.37 107.23,-67.19 -7.29,-24.43 2.08,-80.05 -1.67,-112.55 -0.9,-7.78 -41.46,-33.19 -42.5,-41.88 -1.87,-15.62 14.06,-43.84 27.5,-49.37 10.63,-4.38 46.56,2.89 53.13,20.62 12.5,33.75 12.45,82.58 19.37,106.25 6.56,22.43 27.04,53.65 -11.25,115"
         style="fill:#1e1c1b;fill-opacity:1;fill-rule:nonzero;stroke:none"
         id="path154" /><path
         d="m 2855.77,4133.61 c -0.02,-0.01 -17.17,-10.65 -33.28,-20.97 -17.21,-11.02 -26.25,-22.5 -11.25,-26.25 15,-3.75 65.31,17.08 86.25,23.61 20.95,6.54 45,23.61 45,23.61 0,0 -67.19,9.72 -86.72,0"
         style="fill:#f68213;fill-opacity:1;fill-rule:nonzero;stroke:none"
         id="path156" /><path
         d="m 2712.49,4139.79 c 0,0 15.42,-21.32 26.67,-36.32 7.65,-10.19 13.42,-5.09 19.63,1.22 6.2,6.31 -6.71,27.96 -14.55,35.1 -7.85,7.14 -31.75,0 -31.75,0"
         style="fill:#f68213;fill-opacity:1;fill-rule:nonzero;stroke:none"
         id="path158" /><path
         d="m 2714.92,3834.16 c 0,0 68.8,-9.06 101.4,-8.75 42.92,0.42 66.09,9.23 66.09,9.23 l 4.43,-24.5 c 0,0 -21.77,-18.48 -74.27,-21.81 -66.13,-4.2 -98.91,13.33 -98.91,13.33 l 1.26,32.5"
         style="fill:#ee243d;fill-opacity:1;fill-rule:nonzero;stroke:none"
         id="path160" /><path
         d="m 2334.7,3332.48 c 10.74,30.65 2.97,63.61 8.39,95.08 5.49,31.89 25.47,57.3 42.73,83.66 21.42,32.71 41,79.18 18.38,114.05 -45.3,-34.48 -112.81,-49.93 -170.71,-39.78 -62.57,10.97 -115.54,48.57 -157.3,95.1 -42.78,47.66 -70.57,103.59 -103.65,157.73 -14.88,24.36 -31.79,46.86 -53.37,65.69 -23.02,20.08 -313.49,55.16 -313.69,54.49 -40.79,-131.78 -85.89,-266.16 -157.2,-384.31 -128.34,-191.53 -227.65,-185.76 -258.48,-188.92 -0.81,-42.69 58.72,-47.16 74.45,-73.29 10.13,-16.83 -16.25,-41.49 -11.22,-65.84 8.09,-39.1 115,-21.4 115,-21.4 0,0 16.33,-53.64 43.17,-59.62 39.55,-8.81 75.55,19.38 107.37,38.19 44.18,26.11 97.04,44.72 148.05,28.22 26.45,-8.55 43.41,-24.74 59.44,-46.74 9.26,-12.71 19.57,-25.71 36.04,-28.56 9.95,-1.71 22.92,4.05 34.82,22.82 10.38,16.37 21.71,26.26 41.37,26.01 23.88,-0.3 45.24,-14.48 66.91,-22.81 20.39,-7.85 41.78,-12.86 63.49,-15.3 37.32,-4.19 106.92,3.85 150.27,27.7 29.09,16 38.49,53.42 85.8,71.25 49.13,18.52 103.55,-8.69 129.94,66.58"
         style="fill:#ee243d;fill-opacity:1;fill-rule:nonzero;stroke:none"
         id="path162" /><path
         d="m 1599.51,3789.2 c -12.35,19.26 -48.54,46.5 -48.55,46.51 12.66,17.04 19.44,19.14 37.88,45.99 9.51,13.84 24.3,28.62 24.3,28.62 0,0 1.04,-41.02 27.3,-90.56 11.22,-21.18 4.89,-39.93 6.25,-61.91 l 2.86,-0.06 c -2.48,-9.45 -5.45,-20.24 -8.95,-32.11 -2.8,7.15 -6.63,15.27 -11.44,21.62 -8.31,10.98 -16.21,20.95 -29.65,41.9 z m 218.91,40.1 c 21.6,36.66 30.98,81.02 30.98,81.02 0,0 14.79,-14.78 24.3,-28.62 18.44,-26.85 25.22,-28.95 37.88,-45.99 -0.01,-0.01 -36.2,-27.25 -48.55,-46.51 -13.44,-20.95 -21.34,-30.92 -29.65,-41.9 -4.81,-6.35 -8.64,-14.47 -11.44,-21.62 -3.01,10.21 -5.65,19.69 -7.91,28.14 1.36,21.98 -7.77,54.82 4.39,75.48 z m 124.44,-654.92 c -0.06,37.18 -7.21,139.55 -24.25,187.57 -10.1,28.47 -24.26,45.68 -29.64,67.58 -8.81,35.87 -8.73,68.62 -11.27,94.01 -3.98,39.85 -13.93,77.13 -37.15,144.39 7.08,0.71 14.31,4.96 19.71,13.37 9.78,15.2 12.54,47.7 25.96,60.21 19.59,18.26 49.47,27.57 62.55,42.81 22.88,26.69 35.75,29.54 31.57,45.92 -6.55,25.64 -24.36,76.95 -33.65,92.94 -12.59,21.66 -54.14,69.11 -58.34,81.12 -5.63,16.09 -21.67,31.53 -48.46,30.95 -10.68,-0.23 -38.9,6.1 -51.14,11.67 -12.24,5.57 -22.54,5.57 -23.53,20.43 -0.37,5.45 -0.46,10.89 -0.44,15.61 1.83,2.13 3.32,4.12 4.17,5.63 4.56,8.12 8.71,16.27 11.75,25.05 2.47,-0.73 6.17,-1.05 8.22,2.63 3.23,5.82 11.66,18.78 6.47,25.91 -1.92,2.64 -4.02,3.36 -5.97,3.21 1.73,12.09 3.79,30.57 1.38,37.96 10.44,0.7 14.15,7.18 14.15,7.18 0,0 -7.91,-0.21 -11.83,0.94 3.92,1.17 12.06,5.81 12.06,5.81 0,0 -19.03,3.01 -44.09,18.79 -25.07,15.79 -65.32,2.07 -70.78,-1.16 -5.51,-3.25 -7.9,-10.44 -7.9,-10.44 0,0 -3.26,3.46 -7.19,5.34 2.09,-8.36 3.9,-18.57 3.9,-38.29 0,-13.09 0,-22.07 0,-26.51 -2.39,0.79 -5.23,0.65 -7.76,-2.83 -5.18,-7.13 3.24,-20.09 6.48,-25.91 2.04,-3.68 5.75,-3.36 8.21,-2.63 3.01,-8.68 7.1,-16.74 11.61,-24.78 0.15,-5.67 0.19,-13.56 -0.34,-21.51 -1,-14.86 -11.29,-14.86 -23.54,-20.43 -12.24,-5.57 -40.45,-11.95 -51.13,-11.67 -21.8,0.58 -40.13,-10.95 -49.75,-34.34 -4.83,-11.76 -44.46,-56.07 -57.05,-77.73 -9.29,-15.99 -27.1,-67.3 -33.65,-92.94 -4.19,-16.38 8.69,-19.23 31.57,-45.92 13.08,-15.24 42.95,-24.55 62.55,-42.81 13.41,-12.51 16.18,-45.01 25.96,-60.21 5.4,-8.41 12.63,-12.66 19.71,-13.37 -23.22,-67.26 -33.17,-104.54 -37.16,-144.39 -2.53,-25.39 -2.45,-58.14 -11.26,-94.01 -5.38,-21.9 -19.54,-39.11 -29.64,-67.58 -17.04,-48.02 -24.19,-150.39 -24.25,-187.57 -0.06,-31.2 -15.48,-50.04 -23.93,-62.71 -10.4,-15.6 -0.7,-27.33 7.99,-34.17 13.72,-10.78 25.72,-20.45 47.06,-4.85 21.35,15.61 10.01,48.29 10.32,54.53 0.65,12.91 -3.52,29.61 2.37,42.09 9.19,19.48 56.34,104.81 69.88,178.88 7.87,43.03 13.96,71.88 21.6,84.94 25.09,42.84 63.7,131.09 76.3,165.95 12.59,-34.86 51.21,-123.11 76.29,-165.95 7.65,-13.06 13.74,-41.91 21.61,-84.94 13.54,-74.07 60.69,-159.4 69.88,-178.88 5.89,-12.48 1.72,-29.18 2.37,-42.09 0.31,-6.24 -11.03,-38.92 10.31,-54.53 21.35,-15.6 33.35,-5.93 47.06,4.85 8.7,6.84 18.4,18.57 8,34.17 -8.45,12.67 -23.87,31.51 -23.93,62.71"
         style="fill:#1e1c1b;fill-opacity:1;fill-rule:nonzero;stroke:none"
         id="path164" /><path
         d="m 1735.05,3763.51 c -45.35,0.33 -88.16,14.07 -88.16,14.07 l -2.11,-37.38 c 0,0 38.6,-14.42 90.27,-14.65 51.68,0.23 83.37,15.09 83.37,15.09 l -5.62,41.44 c 0,0 -32.39,-18.24 -77.75,-18.57"
         style="fill:#f68213;fill-opacity:1;fill-rule:nonzero;stroke:none"
         id="path166" /><path
         d="m 1774.56,4055.23 c -2.63,-5.99 -4.54,-32.49 15.6,-39.3 12.49,-4.22 33.99,3.69 38.69,21.28 1.53,5.71 -13.4,7.31 -27.89,13.24 -12.79,5.23 -24.76,8.54 -26.4,4.78"
         style="fill:#ee243d;fill-opacity:1;fill-rule:nonzero;stroke:none"
         id="path168" /><path
         d="m 1693.37,4055.23 c 2.62,-5.99 4.54,-32.49 -15.6,-39.3 -12.5,-4.22 -33.99,3.69 -38.69,21.28 -1.53,5.71 13.39,7.31 27.89,13.24 12.79,5.23 24.76,8.54 26.4,4.78"
         style="fill:#ee243d;fill-opacity:1;fill-rule:nonzero;stroke:none"
         id="path170" /><path
         d="m 717.352,4125.09 c 0,0 -144.524,-163.16 -243.106,-210.21 -98.578,-47.04 -319.316,-168.81 -379.703,-135.51 -45.125,24.88 -61.211,64.76 -61.211,64.76 0,0 -81.9922,-99.2 11.211,-163.72 93.207,-64.53 83.773,-142.37 89.148,-194.35 5.379,-51.98 10.754,-161.31 96.789,-168.49 86.036,-7.16 218.672,8.97 243.766,-10.75 25.094,-19.72 146.965,-109 163.109,-62.83 10.278,29.4 20.34,107.15 105.762,49.61 79.27,-53.4 178.094,180.88 213.281,308.97 18.52,67.4 69.292,415.83 69.292,415.83 l -308.338,106.69"
         style="fill:#4abbd2;fill-opacity:1;fill-rule:nonzero;stroke:none"
         id="path172" /><path
         d="m 1029.84,4068.77 c -11.4,9.39 -58.692,56.32 -58.692,56.32 3.891,9.11 7.641,18.31 11.133,27.1 13.188,8.94 21.779,23.15 27.689,39.09 6.93,18.69 16.91,42.6 15.6,66.92 0,0 1.64,55.6 -70.218,47.1 -48.141,-5.69 -62.45,-50.44 -64.664,-72.21 -4.465,-43.86 -34.149,-48.76 -34.149,-48.76 0,0 5.129,-6.83 25.649,-5.42 l -12.161,-20.95 c 0,0 -62.961,-3.92 -77.968,-3.48 -64.371,1.91 -99.493,-49.88 -118.934,-103.62 -10.445,-28.86 -10.555,-53.64 -25.652,-64.82 -13.008,-9.63 -34.524,-23 -42.703,-43.27 -8.844,-21.91 -18.465,-63.45 -26.942,-90.01 -8.476,-26.56 -27.203,-58.8 -39.965,-69.56 -12.761,-10.75 -27.293,-70.38 -5.265,-74.3 22.023,-3.91 51,25.65 58.945,39.23 7.945,13.57 18.777,66.89 18.777,66.89 0,0 48.45,70.8 75.493,101.25 35.785,40.29 66.937,92.96 66.937,92.96 0,0 -0.406,-96.2 -36.242,-128.84 -35.836,-32.62 -54.731,-72.93 -65.649,-98.91 -10.918,-25.97 -73.671,-174.88 -100,-216.23 -26.332,-41.34 -58.941,-176.32 -76.539,-184.7 -17.593,-8.38 -44.312,1.3 -52.238,-11.77 -7.93,-13.07 0.559,-46.83 -3.379,-82.97 -3.937,-36.13 1.094,-70.48 9.231,-76.04 14.05,-9.6 25.351,-4.28 41.902,12.96 6.82,7.1 54.543,82.59 66.129,97.79 86.914,113.96 116.23,111.32 197.082,202.3 43.344,48.77 80.398,109.27 94.043,129.27 11.656,17.08 20.601,33.14 27.836,48.07 5.078,-16.39 12.836,-38.25 20.871,-48.82 13.75,-18.11 35,-1.25 32.5,34.7 -2.5,35.94 -24.969,69.47 -18.734,75.83 6.234,6.36 36.152,41.77 56.234,75.11 10.152,16.87 26.137,48.26 37,70.34 16.351,21.53 30.413,40.62 39.643,52.68 21.07,27.51 43.12,79.34 7.4,108.77"
         style="fill:#1e1c1b;fill-opacity:1;fill-rule:nonzero;stroke:none"
         id="path174" /><path
         d="m 759.563,4151.29 c 0,0 46.976,-27.94 71.234,-26.2 24.254,1.73 39.226,32.87 39.226,32.87 0,0 -13.316,9.43 -32.144,9.44 -15.832,0.01 -18.332,-11.67 -32.918,-7.5 -30.309,8.66 -45.398,-8.61 -45.398,-8.61"
         style="fill:#4abbd2;fill-opacity:1;fill-rule:nonzero;stroke:none"
         id="path176" /><path
         d="m 709.074,3873.27 c 0,0 22.973,-48.79 80.473,-78.79 57.5,-30 91.391,-26.26 91.391,-26.26 l 16.125,35.67 c 0,0 -58.614,5.77 -95.852,28.09 -37.238,22.33 -68.164,72.2 -68.164,72.2 l -23.973,-30.91"
         style="fill:#f68213;fill-opacity:1;fill-rule:nonzero;stroke:none"
         id="path178" /><path
         d="m 971.27,4125.09 c 0,0 -5.114,-30.22 4.109,-45.61 14.168,-23.62 58.691,-14.6 58.691,-14.6 0,0 1.72,12.73 -17.65,23.98 -4.46,2.59 0.62,14.37 -14.19,21.87 -17.742,8.99 -30.96,14.36 -30.96,14.36"
         style="fill:#4abbd2;fill-opacity:1;fill-rule:nonzero;stroke:none"
         id="path180" /></g></g></svg>
