<?xml version="1.0" encoding="UTF-8" standalone="no"?>
<svg
   xmlns:dc="http://purl.org/dc/elements/1.1/"
   xmlns:cc="http://creativecommons.org/ns#"
   xmlns:rdf="http://www.w3.org/1999/02/22-rdf-syntax-ns#"
   xmlns:svg="http://www.w3.org/2000/svg"
   xmlns="http://www.w3.org/2000/svg"
   xmlns:sodipodi="http://sodipodi.sourceforge.net/DTD/sodipodi-0.dtd"
   xmlns:inkscape="http://www.inkscape.org/namespaces/inkscape"
   inkscape:version="1.0 (4035a4fb49, 2020-05-01)"
   sodipodi:docname="tos.svg"
   viewBox="0 0 4666.6665 3333.3333"
   height="3333.3333"
   width="4666.6665"
   xml:space="preserve"
   id="svg2"
   version="1.1"><metadata
     id="metadata8"><rdf:RDF><cc:Work
         rdf:about=""><dc:format>image/svg+xml</dc:format><dc:type
           rdf:resource="http://purl.org/dc/dcmitype/StillImage" /></cc:Work></rdf:RDF></metadata><defs
     id="defs6" /><sodipodi:namedview
     inkscape:current-layer="g12"
     inkscape:window-maximized="1"
     inkscape:window-y="-9"
     inkscape:window-x="69"
     inkscape:cy="3049.7501"
     inkscape:cx="4362.2433"
     inkscape:zoom="0.066000002"
     showgrid="false"
     inkscape:document-rotation="0"
     id="namedview4"
     inkscape:window-height="1051"
     inkscape:window-width="1842"
     inkscape:pageshadow="2"
     inkscape:pageopacity="0"
     guidetolerance="10"
     gridtolerance="10"
     objecttolerance="10"
     borderopacity="1"
     bordercolor="#666666"
     pagecolor="#ffffff" /><g
     transform="matrix(1.3333333,0,0,-1.3333333,0,3333.3333)"
     inkscape:label="ink_ext_XXXXXX"
     inkscape:groupmode="layer"
     id="g10"><g
       transform="scale(0.1)"
       id="g12"><path
         id="path16"
         style="fill:#2e5b99;fill-opacity:1;fill-rule:nonzero;stroke:none"
         d="M 30138.8,3198.8 H 4000.11 c -46.23,0 -83.7,37.4 -83.7,83.7 0,46.2 37.47,83.7 83.7,83.7 H 30138.8 c 46.2,0 83.7,-37.5 83.7,-83.7 0,-46.3 -37.5,-83.7 -83.7,-83.7" /><path
         id="path18"
         style="fill:#e6f6ff;fill-opacity:1;fill-rule:nonzero;stroke:none"
         d="m 21985.3,12218.6 h 8399.6 v 7854.6 h -8399.6 v -7854.6" /><path
         id="path20"
         style="fill:#e6f6ff;fill-opacity:1;fill-rule:nonzero;stroke:none"
         d="m 8062.01,6114.2 h 5655.69 v 5082.4 H 8062.01 Z" /><path
         id="path22"
         style="fill:#ffffff;fill-opacity:1;fill-rule:nonzero;stroke:none"
         d="m 20898.4,15172.3 v 705.5 c 0,320.3 259.6,580 579.9,580 H 27653 c 320.3,0 580.1,-259.7 580.1,-580 V 3407.5 H 12261 v 11764.8 h 8637.4" /><path
         id="path24"
         style="fill:#0f4599;fill-opacity:1;fill-rule:nonzero;stroke:none"
         d="m 20847.1,15172.3 v 705.5 c 0,320.3 259.5,580 579.9,580 h 6174.7 c 320.3,0 580.1,-259.7 580.1,-580 V 3407.5 H 12209.7 v 11764.8 h 8637.4" /><path
         id="path26"
         style="fill:#bae2ff;fill-opacity:1;fill-rule:nonzero;stroke:none"
         d="M 27646.7,14684.9 V 3407.5 H 12850.9 v 11332.8 l 14795.8,-55.4" /><path
         id="path28"
         style="fill:#1480cc;fill-opacity:1;fill-rule:nonzero;stroke:none"
         d="M 26834.4,14684.9 V 3407.5 H 12038.6 v 11332.8 l 14795.8,-55.4" /><path
         id="path30"
         style="fill:#ffffff;fill-opacity:1;fill-rule:nonzero;stroke:none"
         d="m 11442.1,15172.2 h 14617.2 c 300,0 521,-203 564.1,-483.7 V 3407.5 H 10670.2 v 10994.8 c -3.6,405.1 362,769.9 771.9,769.9" /><path
         id="path32"
         style="fill:#ebf3ff;fill-opacity:1;fill-rule:nonzero;stroke:none"
         d="m 16803.8,10984.5 8543.2,-24 18.2,6492.7 -8543.2,23.9 -18.2,-6492.6" /><path
         id="path34"
         style="fill:#3397ff;fill-opacity:1;fill-rule:nonzero;stroke:none"
         d="m 17027.6,11295.8 8106.2,-22.7 16.7,5968.8 -8106.2,22.7 -16.7,-5968.8" /><path
         id="path36"
         style="fill:#e3eeff;fill-opacity:1;fill-rule:nonzero;stroke:none"
         d="m 24450.5,11754.2 -5209.3,14.5 2848.3,2732.6 z" /><path
         id="path38"
         style="fill:#e3eeff;fill-opacity:1;fill-rule:nonzero;stroke:none"
         d="m 22081.8,11760.8 -4377,12.2 2375.1,2258.4 z" /><path
         id="path40"
         style="fill:#e3eeff;fill-opacity:1;fill-rule:nonzero;stroke:none"
         d="m 19859.2,15110.8 c -0.9,-333.2 268.4,-604.1 601.6,-605 333.2,-0.9 604,268.4 605,601.6 0.9,333.2 -268.4,604 -601.6,605 -333.2,0.9 -604.1,-268.4 -605,-601.6" /><path
         id="path42"
         style="fill:#ebf3ff;fill-opacity:1;fill-rule:nonzero;stroke:none"
         d="m 15667.6,11762.2 7920.2,-25.4 18.7,6887.8 -7920.2,25.4 -18.7,-6887.8" /><path
         id="path44"
         style="fill:#3397ff;fill-opacity:1;fill-rule:nonzero;stroke:none"
         d="m 15897.8,12092.5 7470.5,-24.1 17.2,6332 -7470.5,24.1 -17.2,-6332" /><path
         id="path46"
         style="fill:#cce5ff;fill-opacity:1;fill-rule:nonzero;stroke:none"
         d="m 19678.1,17526.3 h 2975.2 v -261.4 h -2975.2 v 261.4" /><path
         id="path48"
         style="fill:#cce5ff;fill-opacity:1;fill-rule:nonzero;stroke:none"
         d="m 16600.2,16559.1 h 6053.1 v 261.3 h -6053.1 v -261.3" /><path
         id="path50"
         style="fill:#cce5ff;fill-opacity:1;fill-rule:nonzero;stroke:none"
         d="m 16600.2,15840.4 h 6053.1 v 261.4 h -6053.1 v -261.4" /><path
         id="path52"
         style="fill:#66b8ff;fill-opacity:1;fill-rule:nonzero;stroke:none"
         d="m 11371.8,15172.2 h 14617.1 c 300.1,0 521,-203 564.1,-483.7 V 3367 H 10599.8 v 11035.3 c -3.6,405.1 362.1,769.9 772,769.9" /><path
         id="path54"
         style="fill:#ffffff;fill-opacity:1;fill-rule:nonzero;stroke:none"
         d="m 26623.4,3472.3 h 1609.7 v -64.8 h -1609.7 v 64.8" /><path
         id="path56"
         style="fill:#7f7f7f;fill-opacity:1;fill-rule:nonzero;stroke:none"
         d="m 28181.8,10367.3 v 33.5 h 51.3 l -51.3,-33.5" /><path
         id="path58"
         style="fill:#07224c;fill-opacity:1;fill-rule:nonzero;stroke:none"
         d="m 27646.7,10018.2 v 0 382.6 h 535.1 v -33.5 l -535.1,-349.1" /><path
         id="path60"
         style="fill:#5d717f;fill-opacity:1;fill-rule:nonzero;stroke:none"
         d="m 26834.4,9989.2 v 411.6 h 812.3 v -382.6 H 26872 l -37.6,-29" /><path
         id="path62"
         style="fill:#0a4066;fill-opacity:1;fill-rule:nonzero;stroke:none"
         d="m 26623.4,9826.9 v 573.9 h 211 v -411.6 l -211,-162.3" /><path
         id="path64"
         style="fill:#7f7f7f;fill-opacity:1;fill-rule:nonzero;stroke:none"
         d="m 26553,10008.6 h 70.402 v 392.199 H 26553 Z" /><path
         id="path66"
         style="fill:#335c7f;fill-opacity:1;fill-rule:nonzero;stroke:none"
         d="M 10670.2,10008.6 H 26553 v 392.199 H 10670.2 Z" /><path
         id="path68"
         style="fill:#61b3f2;fill-opacity:1;fill-rule:nonzero;stroke:none"
         d="m 10345.2,10225.7 h 18114.5 v 2046.8 H 10345.2 v -2046.8" /><path
         id="path70"
         style="fill:#2e97e6;fill-opacity:1;fill-rule:nonzero;stroke:none"
         d="M 10345.2,10225.7 H 26829 v 2046.8 H 10345.2 v -2046.8" /><path
         id="path72"
         style="fill:#0e0e0e;fill-opacity:1;fill-rule:nonzero;stroke:none"
         d="m 22272,12272.5 v -2046.1 h -1432.3 l 1004.2,2046.1 h 428.1" /><path
         id="path74"
         style="fill:#2475b3;fill-opacity:1;fill-rule:nonzero;stroke:none"
         d="m 22137.2,10914.2 c -71.2,22.5 -126.7,161.8 -126.7,337.2 0,170.7 55.5,310.1 126.7,332.6 71.3,-22.5 126.7,-161.9 126.7,-332.6 0,-175.4 -55.4,-314.7 -126.7,-337.2 z m -360.2,337.2 c 0,-283.2 49.4,-539.4 132.6,-723.8 81.1,-188.8 194,-301.2 318.6,-301.2 h 380.4 v 2045.4 h -380.4 c -249.4,0 -451.2,-458.5 -451.2,-1020.4" /><path
         id="path76"
         style="fill:#3f9ee6;fill-opacity:1;fill-rule:nonzero;stroke:none"
         d="m 22153,11251.4 c 0,170.7 107.7,310.1 182.2,332.6 74.6,-22.5 132.5,-161.9 132.5,-332.6 0,-175.4 -57.9,-314.7 -132.5,-337.2 -74.5,22.5 -182.2,161.8 -182.2,337.2 z m -182.3,0 c 0,-283.2 51.8,-539.4 138.8,-723.8 84.9,-188.8 202.9,-301.2 333.4,-301.2 h 165.7 v 2045.4 h -165.7 c -260.9,0 -472.2,-458.5 -472.2,-1020.4" /><path
         id="path78"
         style="fill:#2475b3;fill-opacity:1;fill-rule:nonzero;stroke:none"
         d="m 22319.4,10914.2 c -71.2,22.5 -126.6,161.8 -126.6,337.2 0,170.7 55.4,310.1 126.6,332.6 71.3,-22.5 126.7,-161.9 126.7,-332.6 0,-175.4 -55.4,-314.7 -126.7,-337.2 z m -360.2,337.2 c 0,-283.2 49.5,-539.4 132.6,-723.8 81.1,-188.8 194,-301.2 318.6,-301.2 h 380.4 v 2045.4 h -380.4 c -249.3,0 -451.2,-458.5 -451.2,-1020.4" /><path
         id="path80"
         style="fill:#61b3f2;fill-opacity:1;fill-rule:nonzero;stroke:none"
         d="m 22335.2,11251.4 c 0,170.7 58,310.1 132.5,332.6 74.6,-22.5 132.6,-161.9 132.6,-332.6 0,-175.4 -58,-314.7 -132.6,-337.2 -74.5,22.5 -132.5,161.8 -132.5,337.2 z m -182.3,0 c 0,-283.2 51.8,-539.4 138.8,-723.8 84.9,-188.8 202.9,-301.2 333.4,-301.2 h 165.7 v 2045.4 h -165.7 c -260.9,0 -472.2,-458.5 -472.2,-1020.4" /><path
         id="path82"
         style="fill:#1a5380;fill-opacity:1;fill-rule:nonzero;stroke:none"
         d="m 22408.6,10213.1 c -16.1,0 -108.8,4.3 -206.8,98.4 -111.3,106.8 -243.8,348 -243.8,890.8 0,517.1 120.9,783.2 222.3,915.5 111.7,145.6 223.2,166.3 227.9,167.1 7.3,1.2 14.1,-3.6 15.4,-10.9 1.2,-7.2 -3.6,-14.1 -10.8,-15.3 -1.1,-0.2 -107.7,-20.7 -213.2,-159.5 -98.1,-129.1 -215,-389.6 -215,-896.9 0,-532.1 127.6,-767.2 234.6,-870.6 97.3,-94 190,-92.1 190.8,-91.9 7.4,0.2 13.5,-5.5 13.7,-12.9 0.3,-7.3 -5.4,-13.5 -12.7,-13.8 -0.3,0 -1.1,0 -2.4,0" /><path
         id="path84"
         style="fill:#e6e6e6;fill-opacity:1;fill-rule:nonzero;stroke:none"
         d="m 22467.6,10941.6 c 18,-4.5 31.4,-9 49.4,-13.5 -4.5,-4.5 -4.5,-4.5 0,-4.5 723.7,-215.7 1258.6,-881 1258.6,-1676.6 V 7538.3 H 24351 V 9247 c 0,1105.7 -777.6,2031.8 -1816,2265.5 -22.5,9 -45,13.5 -67.4,17.9 -166.4,36 -179.9,-561.9 0,-588.8" /><path
         id="path86"
         style="fill:#e6e6e6;fill-opacity:1;fill-rule:nonzero;stroke:none"
         d="m 21786.5,11561 v -572.2 c -741.7,-95.5 -1340.6,-645.7 -1499.8,-1364.8 -4.6,-17.9 -9,-31.4 -9,-44.8 -9,-40.5 -13.5,-76.4 -18,-116.9 -9,-71.9 -13.5,-143.9 -13.5,-215.8 V 7537.9 h -570.9 v 1708.6 c 0,1208.4 928.7,2198.5 2111.2,2314.5" /><path
         id="path88"
         style="fill:#999999;fill-opacity:1;fill-rule:nonzero;stroke:none"
         d="m 22454.3,11110.4 c 1349.2,-236.6 1522.9,-1705.5 1522.9,-1705.5 v -1867 h -202.4 v 1708.6 c 0,812.5 -557,1491.6 -1306.8,1693.9 -57.3,18.6 -93,186.4 -93,186.4 0,0 35.4,-8 79.3,-16.4" /><path
         id="path90"
         style="fill:#808080;fill-opacity:1;fill-rule:nonzero;stroke:none"
         d="m 21786.5,11110.4 v -121.6 c -741.7,-95.5 -1340.6,-645.7 -1499.8,-1364.8 32.3,419.7 380.3,1336.9 1499.8,1486.4" /><path
         id="path92"
         style="fill:#666666;fill-opacity:1;fill-rule:nonzero;stroke:none"
         d="m 22467.6,10941.6 c 18,-4.5 31.4,-9 49.4,-13.5 -13.6,36 -86.7,117.7 -95.7,288.5 -9,175.3 50.6,293.9 113.7,295.9 -22.5,9 -45,13.5 -67.4,17.9 -166.4,36 -179.9,-561.9 0,-588.8" /><path
         id="path94"
         style="fill:#f7af0c;fill-opacity:1;fill-rule:nonzero;stroke:none"
         d="m 19176.3,3370.6 v 4633.5 h 5668.4 V 3370.6 h -5668.4" /><path
         id="path96"
         style="fill:#cc840a;fill-opacity:1;fill-rule:nonzero;stroke:none"
         d="m 22095.8,6859.5 c -18,4.6 -36,4.6 -54,4.6 -386.5,0 -701.2,-313.1 -701.2,-703.4 0,-285.8 170.8,-530.9 413.6,-644.4 V 4322.9 c 0,-158.8 130.3,-290.4 287.6,-290.4 13.5,0 31.5,0 45,4.5 h 13.4 c 130.4,27.3 229.4,145.2 229.4,285.9 v 1193.4 c 242.6,109 413.5,358.6 413.5,644.4 0,372.1 -283.2,671.6 -647.3,698.8" /><path
         id="path98"
         style="fill:#803d00;fill-opacity:1;fill-rule:nonzero;stroke:none"
         d="m 22095.8,6859.5 c -364.1,-22.6 -651.9,-326.7 -651.9,-698.8 0,-285.8 170.9,-530.9 413.7,-644.4 V 4322.9 c 0,-140.7 98.9,-258.6 229.2,-285.9 h 13.4 c 130.4,27.3 229.4,145.2 229.4,285.9 v 1193.4 c 242.6,109 413.5,358.6 413.5,644.4 0,372.1 -283.2,671.6 -647.3,698.8" /><path
         id="path100"
         style="fill:#e6950b;fill-opacity:1;fill-rule:nonzero;stroke:none"
         d="m 20975,3370.6 h -1798.7 v 4633.5 h 499 c 0,0 -132.5,-3418.8 1299.7,-4633.5" /><path
         id="path102"
         style="fill:#f7e4ad;fill-opacity:1;fill-rule:nonzero;stroke:none"
         d="m 23627.7,3370.6 c 429.6,919.2 349.5,3390.5 349.5,4633.5 h 570.9 V 3370.6 h -920.4" /><path
         id="path104"
         style="fill:#4582e6;fill-opacity:1;fill-rule:nonzero;stroke:none"
         d="m 17781.2,7666.8 c 0,0 -581.6,18.9 -1154.6,-8.5 -595.3,-29.1 -1182.1,-107.8 -1098.2,-313.1 18.8,-46.2 22.2,-90.6 11.9,-135.1 -119.7,-549.1 -2290.5,-959.7 -2769.4,-622.7 -357.5,251.5 -1342.9,-71.8 -1746.5,-246.3 -768.9,5146.4 -790.3,10407.3 -109.5,10773.4 680.8,364.3 2567.6,-97.6 2567.6,-97.6 0,0 956.2,-253.1 1346.2,-2868.6 391.7,-2613.8 2952.5,-6481.5 2952.5,-6481.5" /><path
         id="path106"
         style="fill:#3d73cc;fill-opacity:1;fill-rule:nonzero;stroke:none"
         d="m 15528.4,7345.2 c 18.8,-46.2 22.2,-90.6 11.9,-135.1 -588.4,1794.4 -1974,6921.1 -1471.1,5523.5 482.4,-1347.9 1996.3,-4078 2557.4,-5075.3 -595.3,-29.1 -1182.1,-107.8 -1098.2,-313.1" /><path
         id="path108"
         style="fill:#002e73;fill-opacity:1;fill-rule:nonzero;stroke:none"
         d="m 10843.8,15753.7 c -559.4,-684.2 -662,-850.1 -1185.47,-886.1 176.2,-111.1 280.55,-261.7 352.37,-424.2 h 1.7 c 154,-337 176.2,-730.4 444.8,-951.1 l -321.6,-316.4 -82.1,-82.2 c 0,0 -12,10.3 -32.5,29.1 -140.29,130 -697.95,655.2 -1029.79,1137.6 -195.01,280.5 -313.05,545.7 -230.94,711.6 133.43,482.4 475.55,1472.8 1346.23,1768.8 571.4,620.9 1130.7,287.3 1329.1,29 265.2,-345.5 -1.7,-1084.5 -591.8,-1016.1" /><path
         id="path110"
         style="fill:#231f20;fill-opacity:1;fill-rule:nonzero;stroke:none"
         d="m 10457.2,13492.3 -321.6,-316.4 -114.6,-53.1 c -131.73,123.2 -634.64,595.3 -969.93,1053.8 -20.52,27.3 -41.05,56.4 -59.86,83.8 165.92,1.7 699.62,15.4 1019.49,183 h 1.7 c 13.7,-29.1 25.7,-58.1 36,-87.2 123.1,-314.8 162.5,-662 408.8,-863.9" /><path
         id="path112"
         style="fill:#66b8ff;fill-opacity:1;fill-rule:nonzero;stroke:none"
         d="m 10048.4,14356.2 c -354.14,-215.6 -759.55,-208.7 -997.33,-179.6 -20.52,27.3 -41.05,56.4 -59.86,83.8 165.92,1.7 699.62,15.4 1019.49,183 h 1.7 c 13.7,-29.1 25.7,-58.1 36,-87.2" /><path
         id="path114"
         style="fill:#231f20;fill-opacity:1;fill-rule:nonzero;stroke:none"
         d="m 10216.2,13784.4 c 0,0 366.4,-34.1 477.3,-130.5 92.6,-80.6 36,-181.2 36,-181.2 197.2,-110.9 0.1,-541 -344.2,-647.1 -344.3,-106.2 -569.92,542.3 -569.92,542.3 0,0 52.45,393.4 400.82,416.5" /><path
         id="path116"
         style="fill:#231f20;fill-opacity:1;fill-rule:nonzero;stroke:none"
         d="m 14838.9,3347.7 h -1243 c -25.6,14.6 -44.5,31.1 -55.7,49.9 -64,924.5 -156.2,1369.6 -156.2,1369.6 l 865.7,35.2 196,-687.7 c 290,-198.2 635.7,-623.5 393.2,-767" /><path
         id="path118"
         style="fill:#231f20;fill-opacity:1;fill-rule:nonzero;stroke:none"
         d="m 13501.7,3331 h 1473.7 c 37.3,0 24.8,205 -12.6,205 l -1464.8,-8.3 c -38.5,0 -34.7,-196.7 3.7,-196.7" /><path
         id="path120"
         style="fill:#002e73;fill-opacity:1;fill-rule:nonzero;stroke:none"
         d="m 12988.2,13193.6 c 201.1,-541.1 1057,-3020.5 812.7,-4805.6 336.1,-1187 230.5,-2192.5 533.6,-3926.2 l -882.2,-46.4 c -358.6,2115.2 -753.2,1711.6 -867.4,3806.3 -726.9,1642.5 -1103.9,3198.6 -1297.4,4800.5 -188.1,1207.7 1294.6,1841.9 1700.7,171.4" /><path
         id="path122"
         style="fill:#231f20;fill-opacity:1;fill-rule:nonzero;stroke:none"
         d="m 13461.4,4325.2 c 0,0 -66,629.5 -481.1,1832.1 -128.8,369.5 -198.7,614.1 -235,764.6 -36.3,152.3 -40.8,210.4 -40.8,210.4 218.8,253.2 496.5,634.7 743.1,1093.1 270,-422.5 591.2,-845.1 591.2,-845.1 0,0 8.2,-99.2 22.8,-261.7 65.1,-680.8 240.2,-2480.3 345.7,-2861.8 130.3,-472.1 -689.9,-740.7 -945.9,68.4" /><path
         id="path124"
         style="fill:#66b8ff;fill-opacity:1;fill-rule:nonzero;stroke:none"
         d="m 14061.6,7118.6 c -140.9,157.4 -394.6,453.3 -606.8,776.7 -96.2,-349 -500.2,-771.6 -709.5,-973.4 -36.3,152.3 -40.8,210.4 -40.8,210.4 218.8,253.2 496.5,634.7 743.1,1093.1 270,-422.5 591.2,-845.1 591.2,-845.1 0,0 8.2,-99.2 22.8,-261.7" /><path
         id="path126"
         style="fill:#002e73;fill-opacity:1;fill-rule:nonzero;stroke:none"
         d="M 11944.9,12964.2 C 11882.6,10607.1 11462.4,8605 11462.4,8605 11640.3,6996.9 11235.7,6697.2 11053,4396.5 l -797.4,10.6 c -2,933.8 -56.2,2090.2 -112.9,3962.5 -501.98,1956.8 -260.19,3398 -73,4567.8 199.7,1328.6 2002.6,1768.3 1875.2,26.8" /><path
         id="path128"
         style="fill:#231f20;fill-opacity:1;fill-rule:nonzero;stroke:none"
         d="m 11053,4396.5 c 71.1,-380.9 122.1,-678.1 92.3,-1022.8 l -1931.17,-37.6 c 0,0 -191.15,186.2 49.18,465.4 240.33,279.3 696.73,117.7 992.29,605.6 l 797.4,-10.6" /><path
         id="path130"
         style="fill:#231f20;fill-opacity:1;fill-rule:nonzero;stroke:none"
         d="m 9126.43,3331 h 2051.67 c 37.4,0 27.6,205 -9.8,205 l -2042.99,-8.3 c -38.45,0 -37.33,-196.7 1.12,-196.7" /><path
         id="path132"
         style="fill:#231f20;fill-opacity:1;fill-rule:nonzero;stroke:none"
         d="m 11436.5,6997.2 c 0,0 -13.8,-68.5 -37.3,-184.8 -97.1,-508 -357.7,-1926.1 -327.2,-2564.1 -362.5,-432.8 -833.7,47.9 -833.7,47.9 l -189.9,3505 -13,236 c 511.3,-567.9 1042.4,-870.7 1401.1,-1040" /><path
         id="path134"
         style="fill:#66b8ff;fill-opacity:1;fill-rule:nonzero;stroke:none"
         d="m 11436.5,6997.2 c 0,0 -13.8,-68.5 -37.3,-184.8 -704.3,205.3 -1138,687.7 -1350.8,988.8 l -13,236 c 511.3,-567.9 1042.4,-870.7 1401.1,-1040" /><path
         id="path136"
         style="fill:#002e73;fill-opacity:1;fill-rule:nonzero;stroke:none"
         d="m 10129.1,13075.6 c 0,-407.6 2894.7,-289.6 2894.7,118 -9.7,672.5 83,1225.9 209.5,1683.5 867.9,850.2 816.1,1510.2 596.2,1868.2 -379.2,617.4 -2294.9,582.4 -2984.6,317 -273.9,-105.4 -641.6,-534.7 -759.3,-1219.1 -60.5,-351.9 198.6,-761.6 239.6,-1046.1 94.7,-658.3 -176.8,-1626.9 -196.1,-1721.5" /><path
         id="path138"
         style="fill:#f7a594;fill-opacity:1;fill-rule:nonzero;stroke:none"
         d="m 11933.6,16782.3 c 142.8,113.4 712.5,288.4 864,412.5 l -34.2,989 -560.1,54.5 c -162.5,-13.5 -325,-52.4 -464.7,-107.6 l -126.1,-651.2 -27.8,-141.2 c -63.4,-139 62.3,-306.6 348.9,-556" /><path
         id="path140"
         style="fill:#e6836f;fill-opacity:1;fill-rule:nonzero;stroke:none"
         d="m 12574.9,17959.8 c -87.8,-135.2 -455.7,-481.5 -962.4,-480.3 l 109.1,563.4 853.3,-83.1" /><path
         id="path142"
         style="fill:#f7a594;fill-opacity:1;fill-rule:nonzero;stroke:none"
         d="m 11335.1,19262.6 c -43.9,-194.8 -134.4,-622.6 -119.6,-819.6 22.5,-299.9 302.6,-632.6 546.9,-676.2 282.8,-28.8 664.1,55.4 871.1,233.2 115.2,135 338.1,455.3 440.7,735.6 214.1,584.8 -199.1,1097.5 -723.3,1216 -524.2,118.4 -878.8,-81.6 -1015.8,-689" /><path
         id="path144"
         style="fill:#73382a;fill-opacity:1;fill-rule:nonzero;stroke:none"
         d="m 12898.7,18349.3 c 109.3,192.4 -36,270.4 -195.2,121 27.2,145.2 192.7,570.6 46.1,711.6 -165.6,163.7 -894.2,92.4 -1285.7,500.6 0,0 291.8,639.7 1249.4,261.9 1081.7,-573.5 185.4,-1595.1 185.4,-1595.1" /><path
         id="path146"
         style="fill:#f7a594;fill-opacity:1;fill-rule:nonzero;stroke:none"
         d="m 12763.1,18532.3 c -82.8,-100.7 -86.3,-234.3 -7.8,-298.4 78.5,-64.1 209.2,-34.4 292,66.3 82.8,100.7 86.3,234.2 7.8,298.3 -78.5,64.1 -209.2,34.4 -292,-66.2" /><path
         id="path148"
         style="fill:#002e73;fill-opacity:1;fill-rule:nonzero;stroke:none"
         d="m 11616.7,17536.6 c 95.8,-171 1080.6,-82.1 1169.5,61.5 l 54.7,-547.1 -916.4,-519.8 -478.8,526.6 171,478.8" /><path
         id="path150"
         style="fill:#231f20;fill-opacity:1;fill-rule:nonzero;stroke:none"
         d="m 13235.1,19352.2 c -27,478.9 -953.9,1154.7 -1618.8,903.8 -448.4,-169.2 -343.2,-645.3 47.3,-735.2 344.3,-79.3 1297.9,333.5 1571.5,-168.6" /><path
         id="path152"
         style="fill:#231f20;fill-opacity:1;fill-rule:nonzero;stroke:none"
         d="m 11533.6,20254.5 c 0,0 19.7,136.5 93.4,238.6 -520.2,-340.7 -261.3,-748.3 -255.2,-765.6 206.3,626.4 698.6,597.7 873.4,595.4 -449.7,211.8 -707.1,-49.7 -711.6,-68.4" /><path
         id="path154"
         style="fill:#66b8ff;fill-opacity:1;fill-rule:nonzero;stroke:none"
         d="m 10093,12937.3 c 755.1,-325.6 2499.6,-253.9 3021,-4.4 l 133.3,-441.7 c -1134.3,-267.3 -2219.5,-274.8 -3249.75,8.4 l 95.45,437.7" /><path
         id="path156"
         style="fill:#002e73;fill-opacity:1;fill-rule:nonzero;stroke:none"
         d="m 15145.9,13973 c -499.5,-535.4 -1553.2,-1146.1 -1553.2,-1146.1 l -323.3,465.3 c 335.3,184.7 520,663.7 839.9,992.1 109.5,112.9 234.4,207 384.9,268.6 -509.8,131.7 -766.4,258.3 -1190.6,1033.2 -593.6,41.1 -721.8,817.6 -398.6,1106.8 243,217.2 855.3,444.7 1303.5,-270.3 800.6,-449.9 1142.7,-1431.8 1185.5,-1931.3 39.3,-142 -68.5,-325 -248.1,-518.3" /><path
         id="path158"
         style="fill:#231f20;fill-opacity:1;fill-rule:nonzero;stroke:none"
         d="m 13559.3,13535.7 c 0,0 -366.5,33.6 -493.1,-41 -105.8,-62.3 -68.6,-171.6 -68.6,-171.6 -214.1,-72.9 -98.9,-531.8 220.2,-699.1 319.1,-167.3 659.4,429.1 659.4,429.1 0,0 20.3,396.3 -317.9,482.6" /><path
         id="path160"
         style="fill:#231f20;fill-opacity:1;fill-rule:nonzero;stroke:none"
         d="m 15145.9,13973 c -30.8,-32.5 -63.3,-66.7 -97.5,-99.2 -526.8,-509.8 -1455.7,-1046.9 -1455.7,-1046.9 l -323.3,465.3 c 289.1,159.1 465.3,535.4 713.3,846.7 39.4,51.3 82.1,99.2 126.6,145.4 124.9,-73.5 497.8,-270.2 1036.6,-311.3" /><path
         id="path162"
         style="fill:#66b8ff;fill-opacity:1;fill-rule:nonzero;stroke:none"
         d="m 15145.9,13973 c -30.8,-32.5 -63.3,-66.7 -97.5,-99.2 -451.6,22.2 -875.8,184.7 -1065.7,265.1 39.4,51.3 82.1,99.2 126.6,145.4 124.9,-73.5 497.8,-270.2 1036.6,-311.3" /><path
         id="path164"
         style="fill:#d9ffff;fill-opacity:1;fill-rule:nonzero;stroke:none"
         d="m 12212.5,15967.7 v 0 c 0.2,1.7 0.3,2.5 0.3,2.6 l -0.3,-2.6" /><path
         id="path166"
         style="fill:#d9ffff;fill-opacity:1;fill-rule:nonzero;stroke:none"
         d="m 12212.5,15967.7 v 0 c 0.2,1.7 0.3,2.5 0.3,2.6 l -0.3,-2.6" /><path
         id="path168"
         style="fill:#d9ffff;fill-opacity:1;fill-rule:nonzero;stroke:none"
         d="m 11308.3,16097.4 0.3,2.6 c 0,-0.1 -0.1,-0.9 -0.3,-2.6" /><path
         id="path170"
         style="fill:#d9ffff;fill-opacity:1;fill-rule:nonzero;stroke:none"
         d="m 11308.3,16097.4 0.3,2.6 c 0,-0.1 -0.1,-0.9 -0.3,-2.6" /><path
         id="path172"
         style="fill:#ffffff;fill-opacity:1;fill-rule:nonzero;stroke:none"
         d="m 11792,16307.6 c 90,-141.5 245.5,-269.7 419.9,-340.4 -1.5,-13.4 -10.3,-87.7 -50.5,-430.2 -53.7,-456.9 -470.2,-622.2 -534.8,-647.5 -54.9,38.8 -422.1,320.1 -368.4,777.1 40.3,342.5 49,416.8 50.6,430.2 185,19.1 363.5,99.3 483.2,210.8" /><path
         id="path174"
         style="fill:#f7af0c;fill-opacity:1;fill-rule:nonzero;stroke:none"
         d="m 11744.5,16064.9 -0.7,-0.5 c -86.9,-68.7 -201.7,-116.3 -323.9,-134 l -34.4,-292.2 c -15.7,-133.7 18.2,-261.3 100.7,-379.3 51.9,-74.2 109.4,-124.7 141.4,-149.8 1.4,-1.1 2.9,-2.2 4.2,-3.3 35.4,14.3 105.7,47.3 176.1,107 107.1,90.8 169.3,204.6 185,338.3 l 34.4,292.2 c -114.4,51.7 -214.6,130.4 -282.8,221.6" /><path
         id="path176"
         style="fill:#66b8ff;fill-opacity:1;fill-rule:nonzero;stroke:none"
         d="m 11496.8,17204 c 49.1,-126.3 213,-237.5 397.8,-345.9 375.3,61.5 663.2,177.7 944.8,342.5 277.1,1.3 476.5,-105.4 681.6,-184.1 l -1636.2,-266.2 -961.1,362.8 c 127.8,46.5 310.8,78 573.1,90.9" /><path
         id="path178"
         style="fill:#d9ffff;fill-opacity:1;fill-rule:nonzero;stroke:none"
         d="m 17118.1,13808.4 v 0 c -0.1,8.1 -0.1,11.6 -0.1,12.4 0,-1.5 0.1,-12.4 0.1,-12.4" /><path
         id="path180"
         style="fill:#d9ffff;fill-opacity:1;fill-rule:nonzero;stroke:none"
         d="m 17118.1,13808.4 v 0 c -0.1,8.1 -0.1,11.6 -0.1,12.4 0,-1.5 0.1,-12.4 0.1,-12.4" /><path
         id="path182"
         style="fill:#d9ffff;fill-opacity:1;fill-rule:nonzero;stroke:none"
         d="m 12290.9,13755.3 c 0,0 -0.2,10.9 -0.2,12.4 0,-0.8 0.1,-4.4 0.2,-12.4" /><path
         id="path184"
         style="fill:#d9ffff;fill-opacity:1;fill-rule:nonzero;stroke:none"
         d="m 12290.9,13755.3 c 0,0 -0.2,10.9 -0.2,12.4 0,-0.8 0.1,-4.4 0.2,-12.4" /><path
         id="path186"
         style="fill:#ffffff;fill-opacity:1;fill-rule:nonzero;stroke:none"
         d="m 14685.9,15090.7 c 566.6,-596.1 1467.5,-1081.8 2429.4,-1284.9 0.7,-63.9 4.6,-417.7 22.8,-2048.4 24.1,-2175.3 -2048.7,-3251.9 -2370.5,-3417.2 -313.8,141.3 -2426.9,1188.9 -2451.1,3364.2 -18.1,1630.6 -22,1984.4 -22.7,2048.3 957.2,224.2 1839,729.6 2392.1,1338" /><path
         id="path188"
         style="fill:#007880;fill-opacity:1;fill-rule:nonzero;stroke:none"
         d="m 14694.3,14697.6 c 554.2,-499.4 1320,-889.8 2160.7,-1099.8 l 20.5,-1843 c 9.3,-843.4 -322.2,-1608.5 -985.5,-2274.3 -435.8,-437.5 -895.2,-710 -1128.5,-832.8 -10.1,5.1 -21.1,10.7 -32,16.3 l -40,6029.3 c 1.6,1.4 3.3,2.8 4.8,4.3" /><path
         id="path190"
         style="fill:#008f99;fill-opacity:1;fill-rule:nonzero;stroke:none"
         d="m 14689.5,14693.3 40,-6029.3 c -244.2,124.4 -688.3,382 -1114.7,791.4 -677.8,651.1 -1026.3,1408.7 -1035.7,2252.1 l -20.5,1843.1 c 833.4,227.7 1588.3,633.2 2130.9,1142.7" /><path
         id="path192"
         style="fill:#ffffff;fill-opacity:1;fill-rule:nonzero;stroke:none"
         d="m 14469.8,11496.1 c -0.9,132.5 105.8,240.1 238.9,241 133,0.8 242,-105.4 242.9,-237.8 0.6,-96.8 -57.5,-181.3 -140.8,-219.3 l 2.7,-405.6 c 0.3,-53.9 -43.4,-99 -98.5,-99.3 -54.1,-0.4 -98.5,44.1 -98.8,98 l -2.7,404.7 c -84.7,36.9 -143.1,120.6 -143.7,218.3 z m -737.8,534.2 9.5,-1427.9 c 1,-158.9 1951.3,-146.1 1950.2,12.8 l -9.5,1427.9 -1950.2,-12.8" /><path
         id="path194"
         style="fill:#ffffff;fill-opacity:1;fill-rule:nonzero;stroke:none"
         d="m 13902,12133.2 197.4,1.3 -0.6,96.1 c -2.2,333.2 268.3,606 602.9,608.2 334.7,2.2 608.8,-267.1 611,-600.2 l 0.6,-96.1 197.4,1.2 -0.6,96.2 c -2.9,441.5 -366.1,798.3 -809.7,795.4 -443.5,-2.9 -801.9,-364.5 -799,-806 l 0.6,-96.1" /></g></g></svg>
